<svg xmlns="http://www.w3.org/2000/svg" viewBox="0 0 16 16"><path d="M77.301 151.148c.05.084.119.203.186.321l1.812 2.947c.491.796 1.287 1.76 2.642 1.76.288 0 .88-.05 1.236-.236l.034-.017v-.017c.22-.406.169-.627-.068-1.1l-.017-.035h-.05c-.746 0-1.101-.101-1.677-1.05l-1.829-3.217a3.847 3.847 0 0 0 1.863-3.251c0-1.168-.762-3.387-4.267-3.387-.475 0-1.61.17-2.303.17-.796 0-1.389-.068-2.371-.085h-.017l-.034.017c-.355.355-.542.847-.017 1.388l.034.017.034.017c.813.051 1.118.186 1.134 1.202.017 1.338.034 1.999.034 3.455 0 1.371 0 1.896-.034 3.42-.016 1.101-.084 1.101-1.151 1.203h-.017l-.034.017c-.355.372-.49.88.017 1.388l.034.017h.017c.88-.017 1.456-.085 2.388-.085.93 0 1.591.068 2.59.085h.051l.017-.017c.373-.355.542-.863.017-1.388l-.017-.017h-.034c-1.151-.068-1.371-.153-1.388-.796-.017-1-.017-1.71-.034-2.777.186.034.49.05.863.05h.356zm-.356-.136c-.406 0-.71-.017-.914-.05l-.085-.018v.085c0 1.067.017 1.829.034 2.845.017.745.39.864 1.49.914.44.474.288.864-.017 1.169-.982-.017-1.66-.085-2.573-.085-.932 0-1.524.068-2.354.085-.44-.457-.322-.847-.017-1.169 1.084-.084 1.236-.203 1.253-1.32.034-1.524.034-2.05.034-3.421 0-1.456-.017-2.117-.034-3.471-.017-1.05-.406-1.27-1.253-1.321-.44-.474-.288-.864.017-1.168.965.016 1.524.084 2.337.084.71 0 1.845-.17 2.303-.17 3.42 0 4.131 2.151 4.131 3.252a3.657 3.657 0 0 1-1.913 3.2l.068.119 1.828 3.217c.576.949 1.016 1.118 1.761 1.118.204.44.22.576.068.914-.356.17-.914.22-1.168.22-1.287 0-2.05-.914-2.523-1.693l-1.812-2.946a9.714 9.714 0 0 1-.237-.407c-.17 0-.254.017-.424.017zm-1.388-.542c.372.102.813.153 1.388.153.576 0 .762.186 1 .575l1.811 2.947c.474.796 1.169 1.507 2.185 1.507.254 0 .71-.034.88-.119.051-.101.051-.101 0-.186-.017-.017-.017-.034-.017-.05-.762 0-1.405-.576-1.845-1.305l-2.117-3.691c1.575-.593 2.066-1.964 2.066-3.048 0-1-.61-2.862-3.742-2.862-.44 0-1.626.17-2.303.17-.847 0-1.338-.068-2.185-.085a.287.287 0 0 0 0 .39c1.186.05 1.456.135 1.473 1.54.017 1.406.034 2.235.034 3.64 0 1.406 0 2.185-.034 3.59-.033 1.423-.287 1.49-1.473 1.542a.287.287 0 0 0 0 .39c.83-.018 1.338-.086 2.202-.086.948 0 1.574.068 2.421.085a.287.287 0 0 0 0-.39c-1.168-.067-1.693-.152-1.71-1.134-.017-1.27-.034-2.354-.034-3.573zm.034-4.86c.017-.49.237-.812 1.456-.812 1.168 0 2.388.61 2.388 2.76 0 1.829-.932 2.658-2.574 2.658-.407 0-1.067-.034-1.304-.084v-.085c0-1.406.017-3.031.034-4.437zm.39.017a347.799 347.799 0 0 0-.035 4.098v.068h.068c.339.034.66.034.847.034 1.524 0 2.184-.678 2.184-2.27 0-1.997-1.05-2.37-1.998-2.37-.965 0-1.05.22-1.067.44zm.135 0v-.017c0-.101.017-.287.931-.287.897 0 1.863.304 1.863 2.235 0 1.524-.593 2.133-2.05 2.133-.169 0-.423 0-.778-.017 0-1.236.017-2.692.034-4.047z" aria-label="R" style="font-size:16.9333px;font-family:'Libertinus Serif Initials';-inkscape-font-specification:'Libertinus Serif Initials';fill:#8b0000;stroke-linejoin:round;paint-order:markers stroke fill" transform="translate(-69.725 -142.022)"/></svg>