<svg xmlns="http://www.w3.org/2000/svg" xmlns:xlink="http://www.w3.org/1999/xlink" xml:space="preserve" viewBox="0 0 500 300"><defs><linearGradient id="a"><stop offset="0" style="stop-color:#ba5e5e;stop-opacity:1"/><stop offset="1" style="stop-color:#613e32;stop-opacity:0"/></linearGradient><linearGradient id="m" x1="255" x2="255" y1="265.2" y2="235.7" gradientTransform="translate(0 -94)" gradientUnits="userSpaceOnUse"><stop offset="0" style="stop-color:#cf7a5d"/><stop offset="1" style="stop-color:#ffa685"/></linearGradient><linearGradient id="o" x1="345.1" x2="362.3" y1="312.1" y2="280.7" gradientTransform="translate(0 -94)" gradientUnits="userSpaceOnUse"><stop offset="0" style="stop-color:#ff641c"/><stop offset="1" style="stop-color:#ffa81c"/></linearGradient><linearGradient id="p" x1="326.6" x2="341.3" y1="313.4" y2="297.4" gradientTransform="translate(0 -94)" gradientUnits="userSpaceOnUse"><stop offset="0" style="stop-color:#ff641c"/><stop offset="1" style="stop-color:#ffa81c"/></linearGradient><linearGradient id="q" x1="320.4" x2="328.9" y1="325.5" y2="310.1" gradientTransform="translate(0 -94)" gradientUnits="userSpaceOnUse"><stop offset="0" style="stop-color:#ff641c"/><stop offset="1" style="stop-color:#ffa81c"/></linearGradient><linearGradient id="r" x1="367.5" x2="194.5" y1="268.7" y2="236.7" gradientTransform="translate(0 -94)" gradientUnits="userSpaceOnUse"><stop offset="0" style="stop-color:#70192d"/><stop offset="1" style="stop-color:#d42f54"/></linearGradient><linearGradient id="s" x1="248.3" x2="191.1" y1="239.9" y2="229.4" gradientTransform="translate(0 -94)" gradientUnits="userSpaceOnUse"><stop offset="0" style="stop-color:#70192d"/><stop offset="1" style="stop-color:#d42f54"/></linearGradient><linearGradient id="t" x1="294.9" x2="197.8" y1="256.8" y2="238.8" gradientTransform="translate(0 -94)" gradientUnits="userSpaceOnUse"><stop offset="0" style="stop-color:#70192d"/><stop offset="1" style="stop-color:#d42f54"/></linearGradient><linearGradient id="u" x1="274.1" x2="357.4" y1="244.8" y2="244.8" gradientTransform="translate(0 -94)" gradientUnits="userSpaceOnUse"><stop offset="0" style="stop-color:#70192d"/><stop offset="1" style="stop-color:#d42f54"/></linearGradient><linearGradient id="v" x1="263.3" x2="314" y1="223.4" y2="223.4" gradientTransform="translate(0 -94)" gradientUnits="userSpaceOnUse"><stop offset="0" style="stop-color:#70192d"/><stop offset="1" style="stop-color:#d42f54"/></linearGradient><linearGradient id="w" x1="216.6" x2="284.1" y1="261.8" y2="252.7" gradientTransform="translate(0 -94)" gradientUnits="userSpaceOnUse"><stop offset="0" style="stop-color:#d6642f"/><stop offset="1" style="stop-color:#d42f54"/></linearGradient><linearGradient id="x" x1="-89.6" x2="-82.9" y1="-234.3" y2="-246.4" gradientTransform="rotate(81.2 -162.4 230.7)" gradientUnits="userSpaceOnUse"><stop offset="0" style="stop-color:#ff641c"/><stop offset="1" style="stop-color:#ffa81c"/></linearGradient><linearGradient id="y" x1="-76.9" x2="-70.2" y1="-213.7" y2="-225.8" gradientTransform="scale(-1) rotate(-87.3 -198.6 -114.3)" gradientUnits="userSpaceOnUse"><stop offset="0" style="stop-color:#ff641c"/><stop offset="1" style="stop-color:#ffa81c"/></linearGradient><linearGradient id="z" x1="-65.6" x2="-57.2" y1="-189.5" y2="-204.8" gradientTransform="rotate(104.3 -65.7 159.5)" gradientUnits="userSpaceOnUse"><stop offset="0" style="stop-color:#ff641c"/><stop offset="1" style="stop-color:#ffa81c"/></linearGradient><linearGradient id="A" x1="-49.4" x2="-39.9" y1="-162.6" y2="-180" gradientTransform="rotate(116.1 -28.7 135.2)" gradientUnits="userSpaceOnUse"><stop offset="0" style="stop-color:#ff641c"/><stop offset="1" style="stop-color:#ffa81c"/></linearGradient><linearGradient id="B" x1="-32.6" x2="-21" y1="-131.6" y2="-152.8" gradientTransform="scale(-1) rotate(-55.4 -233 -10.3)" gradientUnits="userSpaceOnUse"><stop offset="0" style="stop-color:#ff641c"/><stop offset="1" style="stop-color:#ffa81c"/></linearGradient><linearGradient id="C" x1="-6.1" x2="5.5" y1="-96.4" y2="-117.7" gradientTransform="scale(-1) rotate(-34.9 -317 129.7)" gradientUnits="userSpaceOnUse"><stop offset="0" style="stop-color:#ff641c"/><stop offset="1" style="stop-color:#ffa81c"/></linearGradient><linearGradient id="D" x1="27.7" x2="39.4" y1="-57.7" y2="-78.9" gradientTransform="rotate(169.8 85.8 83.3)" gradientUnits="userSpaceOnUse"><stop offset="0" style="stop-color:#ff641c"/><stop offset="1" style="stop-color:#ffa81c"/></linearGradient><linearGradient id="E" x1="61.3" x2="73" y1="-20.5" y2="-41.7" gradientTransform="rotate(-166.7 120 75.4)" gradientUnits="userSpaceOnUse"><stop offset="0" style="stop-color:#ff641c"/><stop offset="1" style="stop-color:#ffa81c"/></linearGradient><linearGradient id="F" x1="89.7" x2="101.4" y1="11.5" y2="-9.8" gradientTransform="rotate(-151.9 138 72.8)" gradientUnits="userSpaceOnUse"><stop offset="0" style="stop-color:#ff641c"/><stop offset="1" style="stop-color:#ffa81c"/></linearGradient><linearGradient id="G" x1="123.6" x2="135.9" y1="43.5" y2="21.1" gradientTransform="rotate(-132.9 157.6 72.6)" gradientUnits="userSpaceOnUse"><stop offset="0" style="stop-color:#ff641c"/><stop offset="1" style="stop-color:#ffa81c"/></linearGradient><linearGradient id="H" x1="165.8" x2="178" y1="71.3" y2="48.9" gradientTransform="scale(-1) rotate(68.3 111.5 -261.6)" gradientUnits="userSpaceOnUse"><stop offset="0" style="stop-color:#ff641c"/><stop offset="1" style="stop-color:#ffa81c"/></linearGradient><linearGradient id="I" x1="205.2" x2="217.5" y1="97.1" y2="74.8" gradientTransform="rotate(-86.7 190.2 82.8)" gradientUnits="userSpaceOnUse"><stop offset="0" style="stop-color:#ff641c"/><stop offset="1" style="stop-color:#ffa81c"/></linearGradient><linearGradient id="J" x1="236.3" x2="248.6" y1="124.3" y2="101.9" gradientTransform="rotate(-68 190 90.7)" gradientUnits="userSpaceOnUse"><stop offset="0" style="stop-color:#ff641c"/><stop offset="1" style="stop-color:#ffa81c"/></linearGradient><linearGradient id="K" x1="268.9" x2="281.2" y1="149.1" y2="126.8" gradientTransform="rotate(-50 179.3 101)" gradientUnits="userSpaceOnUse"><stop offset="0" style="stop-color:#ff641c"/><stop offset="1" style="stop-color:#ffa81c"/></linearGradient><linearGradient id="L" x1="296.5" x2="308.8" y1="174.4" y2="152" gradientTransform="rotate(-30.2 119.6 109.7)" gradientUnits="userSpaceOnUse"><stop offset="0" style="stop-color:#ff641c"/><stop offset="1" style="stop-color:#ffa81c"/></linearGradient><linearGradient id="M" x1="326.6" x2="338.9" y1="195.2" y2="172.8" gradientTransform="translate(0 -94)" gradientUnits="userSpaceOnUse"><stop offset="0" style="stop-color:#ff641c"/><stop offset="1" style="stop-color:#ffa81c"/></linearGradient><linearGradient id="N" x1="342.1" x2="349.3" y1="225.8" y2="201" gradientTransform="translate(0 -94)" gradientUnits="userSpaceOnUse"><stop offset="0" style="stop-color:#ff641c"/><stop offset="1" style="stop-color:#ffa81c"/></linearGradient><linearGradient id="O" x1="192.5" x2="180.9" y1="272.8" y2="270.7" gradientTransform="translate(0 -94)" gradientUnits="userSpaceOnUse"><stop offset="0" style="stop-color:#70192d"/><stop offset="1" style="stop-color:#d42f54"/></linearGradient><linearGradient id="aR" x1="333.2" x2="342.2" y1="283.4" y2="244.8" gradientTransform="rotate(4.7 1480.4 249.4)" gradientUnits="userSpaceOnUse"><stop offset="0" style="stop-color:#4f8c66"/><stop offset="1" style="stop-color:#aae07e"/></linearGradient><linearGradient id="aS" x1="333.7" x2="342.7" y1="290" y2="251.5" gradientTransform="rotate(-22.9 80.7 244)" gradientUnits="userSpaceOnUse"><stop offset="0" style="stop-color:#4f8c66"/><stop offset="1" style="stop-color:#aae07e"/></linearGradient><linearGradient id="aT" x1="325.4" x2="332" y1="303.1" y2="275" gradientTransform="rotate(-51.6 209.7 243)" gradientUnits="userSpaceOnUse"><stop offset="0" style="stop-color:#4f8c66"/><stop offset="1" style="stop-color:#aae07e"/></linearGradient><linearGradient xlink:href="#a" id="n" x1="222.8" x2="222.8" y1="172.1" y2="132.9" gradientUnits="userSpaceOnUse"/></defs><g transform="translate(0 -101.3)"><linearGradient id="b" x1="104.9" x2="104.9" y1="154.4" y2="304.1" gradientUnits="userSpaceOnUse"><stop offset="0" style="stop-color:#bd6542"/><stop offset="1" style="stop-color:#7d422c"/></linearGradient><path d="M119.5 248.5v-40H146v40h24.5v25.3H146V315h-26.5v-41.3H39.2v-21.2l57.5-105.8H124L69.5 248.5Z" style="fill:url(#b)"/></g><g transform="translate(0 -101.3)"><linearGradient id="c" x1="395.1" x2="395.1" y1="154.4" y2="304.1" gradientUnits="userSpaceOnUse"><stop offset="0" style="stop-color:#bd6542"/><stop offset="1" style="stop-color:#7d422c"/></linearGradient><path d="M409.8 248.5v-40h26.5v40h24.5v25.3h-24.5V315h-26.5v-41.3h-80.3v-21.2L387 146.8h27.4l-54.6 101.7Z" style="fill:url(#c)"/></g><g transform="translate(0 -101.3)"><linearGradient id="d" x1="177.9" x2="252.3" y1="295.7" y2="295.7" gradientUnits="userSpaceOnUse"><stop offset="0" style="stop-color:#b0b0b0"/><stop offset="1" style="stop-color:#696969"/></linearGradient><path d="M252.3 295.7c0 15.3-13.3 27.7-33.8 27.7-20.6 0-40.6-12.4-40.6-27.7 0-15.3 20-27.7 40.6-27.7 20.5 0 33.8 12.4 33.8 27.7z" style="fill:url(#d)"/><path d="M211.3 280.3c0 1.3-.4 2.1-1.3 3-.8.7-1.7 1-3 1s-2.5 0-3.3-.8c-.9-.8-1.7-2-1.7-3.2 0-1.2.6-2.6 1.5-3.3.9-.8 2.2-.7 3.5-.7 1.3 0 2.6 0 3.4.7 1 .8.9 2.1.9 3.3zM238.4 284.1c0 1.3-.5 2.6-1.4 3.4-.8.7-2.2 1.1-3.4 1.1-1.3 0-2.5-.5-3.3-1.3-.9-.8-1-2-1-3.2 0-1.2.3-2 1.2-2.8.9-.8 1.8-1 3-1 1.3 0 2.5 0 3.4.7.9.8 1.5 2 1.5 3.1zM218 273.8c0 1-1.2 2.4-2.5 2.4-1.2 0-2-1.3-2-2.4 0-1.2.8-2.5 2-2.5 1.3 0 2.5 1.3 2.5 2.5zM220.9 281.5c0 1.1-1.1 2-2.4 2-1.2 0-2.6-.9-2.6-2s1.4-2.2 2.6-2.2c1.3 0 2.4 1 2.4 2.2zM196.4 291c0 1-.8 2-1.7 2.8-.8.7-1.8 1.2-3 1.2s-2.5-.1-3.3-.8c-.9-.8-1.2-2.1-1.2-3.3a4 4 0 0 1 1.4-3c.8-.6 2-1.5 3.1-1.5 1.2 0 2.3.8 3.1 1.5.9.7 1.6 1.9 1.6 3zM226.5 294.4c0 1.7-.5 3.2-1.8 4.4-1.2 1-2.8 2.2-4.6 2.2-1.8 0-3.7-.9-4.9-2a6.2 6.2 0 0 1-1.8-4.6 6 6 0 0 1 1.9-4.6c1.2-1.1 3-1.5 4.8-1.5 1.8 0 3.2.7 4.4 1.8 1.3 1.1 2 2.5 2 4.3zM230.1 275.8c0 2-1.9 3.8-4 3.8-2 0-3.4-1.9-3.4-3.8 0-2 1.4-3.9 3.5-3.9 2 0 4 2 4 3.9z" style="fill:#a3a3a3"/></g><g transform="translate(0 -101.3)"><linearGradient id="e" x1="221.9" x2="227.9" y1="328.9" y2="303" gradientTransform="rotate(-18.5 171.1 326.8)" gradientUnits="userSpaceOnUse"><stop offset="0" style="stop-color:#4f8c66"/><stop offset="1" style="stop-color:#aae07e"/></linearGradient><path d="M218.9 314.7c-.4.8-2.8-10-3.1-18.8-.4-9 1.3-10 3-7.5 1.5 2.5 5 15.2 0 26.3z" style="fill:url(#e)"/><linearGradient id="f" x1="214.9" x2="220.9" y1="278.4" y2="252.5" gradientTransform="rotate(-46 253.7 291.8)" gradientUnits="userSpaceOnUse"><stop offset="0" style="stop-color:#4f8c66"/><stop offset="1" style="stop-color:#aae07e"/></linearGradient><path d="M217.1 312.8c0 .9-7-7.6-11.5-15.3-4.4-7.7-3.4-9.5-.8-8a34.5 34.5 0 0 1 12.3 23.3z" style="fill:url(#f)"/><linearGradient id="g" x1="226.8" x2="231.2" y1="236.8" y2="217.9" gradientTransform="rotate(-74.8 271.3 281.9)" gradientUnits="userSpaceOnUse"><stop offset="0" style="stop-color:#4f8c66"/><stop offset="1" style="stop-color:#aae07e"/></linearGradient><path d="M217 314.4c.3.6-7.2-2.3-12.7-5.7-5.5-3.4-5.5-4.9-3.3-4.8 2.1 0 11.3 3 16 10.5z" style="fill:url(#g)"/></g><g transform="translate(0 -101.3)"><linearGradient id="h" x1="254.6" x2="329" y1="294.4" y2="294.4" gradientUnits="userSpaceOnUse"><stop offset="0" style="stop-color:#b0b0b0"/><stop offset="1" style="stop-color:#696969"/></linearGradient><path d="M329 294.4c0 15.2-13.3 27.6-33.8 27.6-20.6 0-40.6-12.4-40.6-27.6 0-15.3 20-27.7 40.6-27.7 20.5 0 33.8 12.4 33.8 27.7z" style="fill:url(#h)"/><path d="M298.1 280.4c0 1.2-.3 2.1-1.2 2.9-.8.7-1.8 1-3 1-1.3 0-2.5 0-3.3-.7-1-.8-1.7-2-1.7-3.2 0-1.2.6-2.6 1.5-3.4.8-.7 2.2-.7 3.5-.7 1.2 0 2.6 0 3.4.8.9.7.8 2 .8 3.3zM325.2 284.2c0 1.2-.4 2.6-1.3 3.4-.8.7-2.2 1-3.5 1-1.2 0-2.4-.5-3.2-1.2-1-.8-1-2-1-3.2 0-1.2.3-2 1.2-2.9.8-.7 1.8-1 3-1 1.3 0 2.5 0 3.3.8 1 .7 1.5 1.9 1.5 3.1zM304.8 273.8c0 1.2-1.2 2.5-2.4 2.5s-2-1.3-2-2.5c0-1.1.8-2.4 2-2.4s2.4 1.3 2.4 2.4zM307.7 281.6c0 1-1 2-2.3 2-1.2 0-2.7-1-2.7-2 0-1.2 1.5-2.2 2.7-2.2 1.2 0 2.3 1 2.3 2.2zM283.2 291c0 1.1-.8 2.1-1.6 2.9-.8.7-1.8 1.2-3 1.2s-2.6-.2-3.4-.9c-.8-.7-1.2-2-1.2-3.2a4 4 0 0 1 1.5-3c.8-.7 1.9-1.5 3-1.5 1.3 0 2.4.8 3.2 1.5.8.7 1.5 1.8 1.5 3zM313.3 294.4c0 1.8-.5 3.3-1.8 4.4-1.2 1.1-2.8 2.2-4.6 2.2-1.8 0-3.6-.8-4.8-1.9a6.2 6.2 0 0 1-1.8-4.7 6 6 0 0 1 1.8-4.6c1.2-1 3-1.4 4.8-1.4 1.8 0 3.3.7 4.5 1.8 1.3 1.1 2 2.5 2 4.2zM317 275.9c0 1.9-1.9 3.8-4 3.8-2 0-3.5-2-3.5-3.8 0-2 1.4-4 3.5-4s4 2 4 4z" style="fill:#b3b3b3"/></g><g transform="translate(0 -101.3)"><linearGradient id="i" x1="215.1" x2="300" y1="315.1" y2="315.1" gradientUnits="userSpaceOnUse"><stop offset="0" style="stop-color:#b0b0b0"/><stop offset="1" style="stop-color:#696969"/></linearGradient><path d="M300 315.1c0 17.5-15.2 31.6-38.6 31.6-23.5 0-46.3-14.1-46.3-31.6 0-17.4 22.8-31.6 46.3-31.6 23.4 0 38.6 14.2 38.6 31.6z" style="fill:url(#i)"/><path d="M261.3 295.8c0 1.3-.4 2.2-1.3 3-.8.7-1.7 1-3 1s-2.5 0-3.3-.8c-.9-.8-1.7-2-1.7-3.2 0-1.2.6-2.5 1.5-3.3.9-.8 2.2-.7 3.5-.7 1.3 0 2.6 0 3.4.7 1 .8.9 2.1.9 3.3zM288.4 299.7c0 1.2-.5 2.5-1.4 3.3-.8.7-2.2 1.1-3.4 1.1-1.3 0-2.5-.5-3.3-1.3-.9-.8-1-2-1-3.1 0-1.3.3-2.1 1.2-3 .9-.7 1.8-1 3-1 1.3 0 2.5 0 3.4.8.9.8 1.5 2 1.5 3.2zM268 289.3c0 1.1-1.2 2.4-2.5 2.4-1.2 0-2-1.3-2-2.4 0-1.2.8-2.5 2-2.5 1.3 0 2.5 1.3 2.5 2.5zM270.9 297c0 1.1-1.1 2-2.4 2-1.2 0-2.6-.9-2.6-2s1.4-2.1 2.6-2.1c1.3 0 2.4 1 2.4 2.1zM246.4 306.4c0 1.2-.8 2.2-1.7 3-.8.6-1.8 1.1-3 1.1s-2.5-.1-3.3-.8c-.9-.7-1.2-2.1-1.2-3.3a4 4 0 0 1 1.4-3c.8-.6 2-1.5 3.1-1.5 1.2 0 2.3.8 3.1 1.5.9.8 1.6 1.9 1.6 3zM276.5 309.9c0 1.7-.5 3.3-1.8 4.4-1.2 1-2.8 2.2-4.6 2.2-1.8 0-3.7-.9-4.9-2a6.2 6.2 0 0 1-1.8-4.6 6 6 0 0 1 1.9-4.6c1.2-1.1 3-1.5 4.8-1.5 1.8 0 3.2.8 4.4 1.8 1.3 1.2 2 2.5 2 4.3zM280.1 291.3c0 2-1.9 3.9-4 3.9-2 0-3.4-2-3.4-3.9s1.4-3.9 3.5-3.9c2 0 4 2 4 4z" style="fill:#c7c7c7"/></g><g transform="translate(0 -101.3)"><linearGradient id="j" x1="300.3" x2="307.8" y1="367.5" y2="335.3" gradientTransform="rotate(-18.5 171.1 326.8)" gradientUnits="userSpaceOnUse"><stop offset="0" style="stop-color:#4f8c66"/><stop offset="1" style="stop-color:#aae07e"/></linearGradient><path d="M305.3 327c-.5 1-3.5-12.4-4-23.5-.4-11 1.8-12.4 3.8-9.3a43 43 0 0 1 .2 32.8z" style="fill:url(#j)"/><linearGradient id="k" x1="266.4" x2="273.9" y1="348" y2="315.8" gradientTransform="rotate(-46 253.7 291.8)" gradientUnits="userSpaceOnUse"><stop offset="0" style="stop-color:#4f8c66"/><stop offset="1" style="stop-color:#aae07e"/></linearGradient><path d="M303 324.6c.1 1-8.7-9.4-14.3-19-5.5-9.7-4.2-11.9-1-10a43 43 0 0 1 15.3 29z" style="fill:url(#k)"/><linearGradient id="l" x1="237.9" x2="243.4" y1="322.6" y2="299.1" gradientTransform="rotate(-74.8 271.3 281.9)" gradientUnits="userSpaceOnUse"><stop offset="0" style="stop-color:#4f8c66"/><stop offset="1" style="stop-color:#aae07e"/></linearGradient><path d="M302.9 326.6c.4.7-8.9-2.9-15.8-7.1-6.9-4.2-6.8-6.1-4.1-6 2.7 0 14 3.8 19.9 13.1z" style="fill:url(#l)"/></g><path d="M203.2 173.8H305c7.7 0-10.1-27-30.1-37.5s-65.3-11.4-71.7 37.5z" style="fill:url(#m)" transform="translate(0 -7.3)"/><path d="M241.8 147.4c1-5.5.7-11-.7-16.3-17.4 2.7-34.2 14.3-38 42.7h22.1c7.6-3.9 13.9-11.6 16.6-26.4z" style="fill:url(#n)" transform="translate(0 -7.3)"/><path d="M328 202.7s4.2-12.8 10.7-18c6.5-5.1 15.6-7.2 15.8-6.2.2 1-2.3 5.9-4.7 7.6 0 0 8-4.5 19.6-5.6 11.5-1.2 19.2.3 19.5 1.4.3 1.1-14.6 10.6-23.6 13.9 0 0 15.8-.2 16.9 2.6 1 2.9-19.2 8.5-33.1 12.2-14 3.8-20.6 8-21.4 5.5-.8-2.3-1.5-8.8.4-13.4z" style="fill:url(#o)" transform="translate(0 -7.3)"/><path d="M312.6 231c-.5-.6 2.7-8.6 5.5-16.5 2.7-7.8 9-22 13-22 3.8.2 2.4 8.5 0 12.3 0 0 11-12 17.6-10.7 6.6 1.4-3 10.6-7.8 14.2 0 0 16.2-3.1 16.5-.3.2 2.9-5.6 5.6-16.3 9.6-10.8 4-26.3 15.8-28.5 13.3z" style="fill:url(#p)" transform="translate(0 -7.3)"/><path d="M312.5 231c-.2-.2 1.7-5 3.3-9.6 1.6-4.6 5.3-13 7.6-13 2.3.2 1.5 5 0 7.3 0 0 6.6-7.1 10.5-6.3 3.8.8-1.9 6.2-4.7 8.3 0 0 9.6-1.8 9.7-.1.2 1.7-3.2 3.3-9.6 5.6-6.3 2.4-15.4 9.3-16.8 7.9z" style="fill:url(#q)" transform="translate(0 -7.3)"/><path d="M352 118.5c-4.3-12.5-36.5-68.3-99.8-68.8-63.4-.4-99.9 37.1-109 81-10.6 51 12 110.7 73.9 121.5 61.8 10.8 96-18.3 98.7-21 2.6-2.6.8-5.4-2.9-3-3.7 2.6-12.4 14.5-45.6 13-33.3-1.5-65.1-8.2-77.1-46-13-40.8 47.2-74.5 87.6-45.2 11.3 8.1 58.5 21.6 68 5 9.5-16.5 9.5-27.5 6.3-36.6z" style="fill:url(#r)" transform="translate(0 -7.3)"/><path d="M190 171c2.4-23 25.8-31.7 52.6-32a36 36 0 0 0-40.7-35.8c-26.2 2.9-28 23.7-27.5 32.6 0 20 17 26 15.6 35.2z" style="fill:url(#s)" transform="translate(0 -7.3)"/><path d="M170.1 135.8c-.4-9 4.7-29.7 31-32.6 26.1-2.8 41.2 19.8 37.3 40.6-3.8 20.7-14.7 27.6-26 29.5h44c2.6 0 8.9-3.8 15 0 6 3.7 7.5 8.6 7.5 11.1s-3.2 4.6-13 4.6h-62.8c-7.8 0-13-1.5-14.6-8.8-1.6-7.3-18.4-24.4-18.4-44.4z" style="fill:url(#t)" transform="translate(0 -7.3)"/><path d="M292.5 146.4s25 .8 40.3-9a35.5 35.5 0 0 0 16.7-23.6s10 14 7.4 39.3c-2.6 25.2-16.8 34.6-38.4 34.7-21.5.1-29.4-6.6-33.8-10.3-8.6-7.5-12.9-20.4-9.3-25.3 3.5-5 9.9-5.6 17-5.8z" style="fill:url(#u)" transform="translate(0 -7.3)"/><path d="M263.3 145s12.1-8.9 25.6-17.6c13.8-9 24.2-14.5 25.1-13.5 1 1-21.9 27.3-23.7 29.2-1.9 2-27 2-27 2z" style="fill:url(#v)" transform="translate(0 -7.3)"/><path d="M248 160.2s-2.9-2.9 1.4-6.6c5.6-4.8 19-11.6 30.5-16 11.4-4.6 45.8-16.6 46.6-15.2.8 1.4-15 16.9-27 21.2 0 0 9.4.5 9.1 2.4-.3 2-6 8.7-11 12.2 0 0 6.1 0 6.4.9.3.9-2.4 8.8-10 13.6 0 0 4.7 6.2 3.5 6.9-1.2.6-8.4-.6-8.4-.6s6.6 7.8 6.2 8.6c-.4.8-11.8 2.2-22.4-1.6 0 0 2 3.7 1.2 4.2s-5.5-1-10.3-3.9c-1.2-.3-7.2-.5-13-.5h-14c-1.1 0-7.6 3.3-8.3 3.1-.7-.2-2.3-4.9-1.7-9.5.6-4.6 1.9-9.4 8.4-13.2 6.4-3.8 12.8-6 12.8-6z" style="fill:url(#w)" transform="translate(0 -7.3)"/><path d="M236.2 172.5c-.9-.8-1.8-1-2.6-.5-.9.5-1 2.7-.7 2.8.2 0 1-1.4 1.6-1.5.7-.2 2.2-.3 1.7-.8zM253.7 163s2-1.4 4.9-1.2c2.9 0 5.7.9 8.2-.8 2.5-1.6 2-3.1 4.5-3.6 0 0-.8 1-1.4 2.2-.7 1.3-1.4 3.5-5.6 4-4.3.5-6-1-7.4-.9-1.5 0-4 .7-3.2.3z" style="fill:#6e192b" transform="translate(0 -7.3)"/><path d="M302 240.4s7.5-4.7 11.2-7.9c2.8-2.4 2.8-4 3.3-4.3.5-.3 14.9-1.5 14.5.4-.3 2-11.2 11.8-29 11.8z" style="fill:url(#x)" transform="translate(0 -7.3)"/><path d="M284.2 248.3s8.3-3 12.5-5.4c3.3-1.8 6.2-3.4 6.8-3.5.5-.2 12.2 1.4 11.5 3.2-.7 1.8-13.3 9.3-30.8 5.7z" style="fill:url(#y)" transform="translate(0 -7.3)"/><path d="M260.9 253.2s10.9-1.7 16.7-3.5c4.4-1.4 8.4-2.6 9.1-2.6.8 0 14.7 4.7 13.4 6.8-1.4 2-18.7 8-39.2-.7z" style="fill:url(#z)" transform="translate(0 -7.3)"/><path d="M233.3 253.2a164 164 0 0 0 30.2-.7c.9 0 15.3 8.7 13.3 10.6-2 2-22.7 4.7-43.5-9.9z" style="fill:url(#A)" transform="translate(0 -7.3)"/><path d="M200.1 248.2s15 3.2 23.5 3.6c6.5.3 12.2.7 13.2 1 1 .3 16.8 13.3 14.1 15.3-2.7 2-28.3 1.5-50.8-19.9z" style="fill:url(#B)" transform="translate(0 -7.3)"/><path d="M172.4 231s13 8.1 20.8 11.5c6 2.5 11.2 4.9 12 5.5.9.6 11.1 18.4 7.9 19.3-3.3 1-27-8.5-40.7-36.4z" style="fill:url(#C)" transform="translate(0 -7.3)"/><path d="M151.8 201.4s8.4 12.8 14 19.1c4.4 4.8 8.1 9.2 8.6 10 .6 1 2.5 21.4-.9 20.9-3.3-.5-21-19-21.7-50z" style="fill:url(#D)" transform="translate(0 -7.3)"/><path d="M144.2 166.3s2.5 15.2 5.2 23.2c2 6.2 3.7 11.7 3.9 12.7 0 1-6.3 20.5-9.2 18.7-2.9-1.8-11.6-25.8 0-54.6z" style="fill:url(#E)" transform="translate(0 -7.3)"/><path d="M145.4 131.4s-1.4 15.3-.9 23.8c.5 6.5.7 12.2.5 13.2-.1 1-11.3 18.3-13.6 15.8-2.3-2.5-4.7-28 14-52.8z" style="fill:url(#F)" transform="translate(0 -7.3)"/><path d="M159.3 97s-6.6 14.8-9 23.4c-1.8 6.6-3.5 12.4-4 13.4s-17.6 14.2-19 11c-1.4-3.3 5-29.5 32-47.8z" style="fill:url(#G)" transform="translate(0 -7.3)"/><path d="M185 69.2S173.4 80.5 168 87.7c-4 5.6-7.7 10.3-8.6 11-.8.7-21.5 7-21.6 3.4-.2-3.6 15.2-25.6 47-33z" style="fill:url(#H)" transform="translate(0 -7.3)"/><path d="M220 54.5s-15.2 5.5-23 9.8c-6.1 3.2-11.5 6-12.5 6.3-1 .3-22.5-2.8-21.1-6.1 1.4-3.3 24.6-16.8 56.6-10z" style="fill:url(#I)" transform="translate(0 -7.3)"/><path d="M256.8 51.8s-16.1.2-25 1.8c-6.7 1.2-12.7 2-13.8 2-1 0-20.4-9.8-18-12.5 2.3-2.7 28.7-8 56.8 8.7z" style="fill:url(#J)" transform="translate(0 -7.3)"/><path d="M293.9 60.8s-15.5-4.8-24.4-6c-6.7-1-12.7-2-13.7-2.4-1-.4-16.4-15.7-13.3-17.5 3-1.8 29.8 1.2 51.4 25.9z" style="fill:url(#K)" transform="translate(0 -7.3)"/><path d="M324.8 81.2s-13-9.8-20.8-14c-6-3.1-11.3-6.1-12.2-6.8-.8-.7-10-20.3-6.5-21 3.5-.7 27.6 11.3 39.5 41.8z" style="fill:url(#L)" transform="translate(0 -7.3)"/><path d="M341.5 115s-6.3-15-11-22.5c-3.7-5.8-6.7-11-7-12-.4-1.1 1.4-22.7 4.8-21.5 3.4 1.2 18.2 23.7 13.2 56z" style="fill:url(#M)" transform="translate(0 -7.3)"/><path d="M335 135.8s15.2-7.2 18-19.4c3-13.8-1.2-24.5-3.5-23.9-2.2.6-7.8 17.3-8 20.2-.3 2.8 2 13-6.4 23z" style="fill:url(#N)" transform="translate(0 -7.3)"/><path d="m179.7 164.3 9.2 26-.4-10.1s-3.9-9.4-8.8-15.9z" style="fill:url(#O)" transform="translate(0 -7.3)"/><g transform="translate(0 -101.3)"><linearGradient id="P" x1="335.7" x2="343.3" y1="264" y2="261.1" gradientUnits="userSpaceOnUse"><stop offset="0" style="stop-color:#de385d;stop-opacity:0"/><stop offset="1" style="stop-color:#cf254c"/></linearGradient><path d="M340.8 262.4c.5 1.4-1.3 3.2-3.8 4-2.6.8-5 .3-5.4-1.2-.5-1.4 1.2-3.2 3.8-4 2.6-.8 5-.2 5.4 1.2z" style="fill:url(#P)"/><linearGradient id="Q" x1="333.5" x2="341.1" y1="258.5" y2="255.9" gradientUnits="userSpaceOnUse"><stop offset="0" style="stop-color:#de385d;stop-opacity:0"/><stop offset="1" style="stop-color:#cf254c"/></linearGradient><path d="M339 256.8c.5 1.4-1.2 3.2-3.7 4-2.6.8-5 .2-5.5-1.2-.4-1.4 1.3-3.2 3.9-4 2.5-.8 5-.3 5.4 1.2z" style="fill:url(#Q)"/><linearGradient id="R" x1="331.8" x2="340.9" y1="252.9" y2="249.8" gradientUnits="userSpaceOnUse"><stop offset="0" style="stop-color:#de385d;stop-opacity:0"/><stop offset="1" style="stop-color:#cf254c"/></linearGradient><path d="M337.4 251.1c.4 1.5-1.3 3.3-3.9 4-2.5.8-5 .3-5.4-1.1-.4-1.5 1.3-3.3 3.9-4 2.5-.8 5-.3 5.4 1.1z" style="fill:url(#R)"/><linearGradient id="S" x1="330" x2="337.7" y1="247.3" y2="244.1" gradientUnits="userSpaceOnUse"><stop offset="0" style="stop-color:#de385d;stop-opacity:0"/><stop offset="1" style="stop-color:#cf254c"/></linearGradient><path d="M335.6 245.5c.5 1.4-1.2 3.2-3.8 4-2.5.8-5 .2-5.4-1.2-.4-1.4 1.3-3.2 3.8-4 2.6-.8 5-.3 5.4 1.2z" style="fill:url(#S)"/></g><g transform="translate(0 -101.3)"><linearGradient id="T" x1="326.4" x2="334.4" y1="264.5" y2="261.9" gradientUnits="userSpaceOnUse"><stop offset="0" style="stop-color:#de385d;stop-opacity:0"/><stop offset="1" style="stop-color:#cf254c"/></linearGradient><path d="M332 262.8c.4 1.4-1.3 3.2-3.9 4-2.5.7-5 .2-5.4-1.2-.4-1.5 1.3-3.3 3.8-4 2.6-.8 5-.3 5.5 1.1z" style="fill:url(#T)"/><linearGradient id="U" x1="324.4" x2="331.1" y1="259" y2="256.5" gradientUnits="userSpaceOnUse"><stop offset="0" style="stop-color:#de385d;stop-opacity:0"/><stop offset="1" style="stop-color:#cf254c"/></linearGradient><path d="M330.2 257.1c.5 1.4-1.2 3.2-3.8 4-2.6.8-5 .3-5.4-1.2-.5-1.4 1.3-3.2 3.8-4 2.6-.8 5-.2 5.4 1.2z" style="fill:url(#U)"/><linearGradient id="V" x1="323.1" x2="329.1" y1="253.2" y2="250.6" gradientUnits="userSpaceOnUse"><stop offset="0" style="stop-color:#de385d;stop-opacity:0"/><stop offset="1" style="stop-color:#cf254c"/></linearGradient><path d="M328.5 251.5c.4 1.4-1.3 3.2-3.8 4-2.6.8-5 .2-5.4-1.2-.5-1.4 1.2-3.2 3.8-4 2.5-.8 5-.3 5.4 1.2z" style="fill:url(#V)"/></g><g transform="translate(0 -101.3)"><linearGradient id="W" x1="317.2" x2="325" y1="265.2" y2="262.3" gradientUnits="userSpaceOnUse"><stop offset="0" style="stop-color:#de385d;stop-opacity:0"/><stop offset="1" style="stop-color:#cf254c"/></linearGradient><path d="M323.6 263.2c.4 1.4-1.3 3.2-3.9 4-2.5.8-5 .2-5.4-1.2-.4-1.4 1.3-3.2 3.8-4 2.6-.8 5-.3 5.5 1.2z" style="fill:url(#W)"/><linearGradient id="X" x1="315.9" x2="322.6" y1="259.5" y2="256.8" gradientUnits="userSpaceOnUse"><stop offset="0" style="stop-color:#de385d;stop-opacity:0"/><stop offset="1" style="stop-color:#cf254c"/></linearGradient><path d="M321.8 257.5c.5 1.5-1.2 3.3-3.8 4-2.5.8-5 .3-5.4-1.1-.5-1.5 1.3-3.3 3.8-4 2.6-.8 5-.3 5.4 1.1z" style="fill:url(#X)"/></g><g transform="translate(0 -101.3)"><linearGradient id="Y" x1="267.2" x2="274.8" y1="175.7" y2="172.8" gradientTransform="matrix(-1 0 0 1 546 0)" gradientUnits="userSpaceOnUse"><stop offset="0" style="stop-color:#de385d;stop-opacity:0"/><stop offset="1" style="stop-color:#cf254c"/></linearGradient><path d="M273.6 174c-.4 1.5 1.3 3.3 3.9 4.1 2.5.8 5 .3 5.4-1.2.4-1.4-1.3-3.2-3.8-4-2.6-.8-5-.2-5.5 1.2z" style="fill:url(#Y)"/><linearGradient id="Z" x1="265.1" x2="272.6" y1="170.2" y2="167.5" gradientTransform="matrix(-1 0 0 1 546 0)" gradientUnits="userSpaceOnUse"><stop offset="0" style="stop-color:#de385d;stop-opacity:0"/><stop offset="1" style="stop-color:#cf254c"/></linearGradient><path d="M275.4 168.4c-.5 1.5 1.2 3.3 3.8 4 2.6.8 5 .3 5.4-1.1.5-1.5-1.3-3.3-3.8-4-2.6-.8-5-.3-5.4 1.1z" style="fill:url(#Z)"/><linearGradient id="aa" x1="263.3" x2="272.5" y1="164.5" y2="161.5" gradientTransform="matrix(-1 0 0 1 546 0)" gradientUnits="userSpaceOnUse"><stop offset="0" style="stop-color:#de385d;stop-opacity:0"/><stop offset="1" style="stop-color:#cf254c"/></linearGradient><path d="M277 162.8c-.3 1.4 1.4 3.2 4 4 2.5.8 4.9.3 5.3-1.2.5-1.4-1.2-3.2-3.8-4-2.5-.8-5-.2-5.4 1.2z" style="fill:url(#aa)"/><linearGradient id="ab" x1="261.5" x2="269.2" y1="159" y2="155.8" gradientTransform="matrix(-1 0 0 1 546 0)" gradientUnits="userSpaceOnUse"><stop offset="0" style="stop-color:#de385d;stop-opacity:0"/><stop offset="1" style="stop-color:#cf254c"/></linearGradient><path d="M278.8 157.2c-.4 1.4 1.3 3.2 3.8 4 2.6.8 5 .2 5.5-1.2.4-1.4-1.3-3.2-3.9-4-2.5-.8-5-.3-5.4 1.2z" style="fill:url(#ab)"/></g><g transform="translate(0 -101.3)"><linearGradient id="ac" x1="258" x2="265.9" y1="176.1" y2="173.6" gradientTransform="matrix(-1 0 0 1 546 0)" gradientUnits="userSpaceOnUse"><stop offset="0" style="stop-color:#de385d;stop-opacity:0"/><stop offset="1" style="stop-color:#cf254c"/></linearGradient><path d="M282.5 174.4c-.4 1.5 1.3 3.3 3.8 4 2.6.8 5 .3 5.5-1.1.4-1.5-1.3-3.3-3.9-4-2.5-.8-5-.3-5.4 1.1z" style="fill:url(#ac)"/><linearGradient id="ad" x1="255.9" x2="262.6" y1="170.7" y2="168.2" gradientTransform="matrix(-1 0 0 1 546 0)" gradientUnits="userSpaceOnUse"><stop offset="0" style="stop-color:#de385d;stop-opacity:0"/><stop offset="1" style="stop-color:#cf254c"/></linearGradient><path d="M284.2 168.8c-.4 1.4 1.3 3.2 3.9 4 2.5.8 5 .2 5.4-1.2.4-1.4-1.3-3.2-3.9-4-2.5-.8-5-.2-5.4 1.2z" style="fill:url(#ad)"/><linearGradient id="ae" x1="254.6" x2="260.6" y1="164.9" y2="162.3" gradientTransform="matrix(-1 0 0 1 546 0)" gradientUnits="userSpaceOnUse"><stop offset="0" style="stop-color:#de385d;stop-opacity:0"/><stop offset="1" style="stop-color:#cf254c"/></linearGradient><path d="M286 163.1c-.5 1.5 1.2 3.3 3.8 4 2.5.8 5 .3 5.4-1.1.4-1.5-1.3-3.3-3.8-4-2.6-.8-5-.3-5.4 1.1z" style="fill:url(#ae)"/></g><g transform="translate(0 -101.3)"><linearGradient id="af" x1="248.8" x2="256.5" y1="176.9" y2="173.9" gradientTransform="matrix(-1 0 0 1 546 0)" gradientUnits="userSpaceOnUse"><stop offset="0" style="stop-color:#de385d;stop-opacity:0"/><stop offset="1" style="stop-color:#cf254c"/></linearGradient><path d="M290.9 174.9c-.4 1.4 1.3 3.2 3.8 4 2.6.7 5 .2 5.5-1.2.4-1.5-1.3-3.3-3.9-4-2.5-.8-5-.3-5.4 1.2z" style="fill:url(#af)"/><linearGradient id="ag" x1="247.4" x2="254.1" y1="171.1" y2="168.5" gradientTransform="matrix(-1 0 0 1 546 0)" gradientUnits="userSpaceOnUse"><stop offset="0" style="stop-color:#de385d;stop-opacity:0"/><stop offset="1" style="stop-color:#cf254c"/></linearGradient><path d="M292.6 169.2c-.4 1.4 1.3 3.2 3.9 4 2.5.8 5 .3 5.4-1.2.4-1.4-1.3-3.2-3.9-4-2.5-.8-5-.2-5.4 1.2z" style="fill:url(#ag)"/></g><g transform="translate(0 -101.3)"><linearGradient id="ah" x1="297.2" x2="304.8" y1="213.9" y2="211" gradientTransform="scale(-1 1) rotate(11.6 28 -2467.7)" gradientUnits="userSpaceOnUse"><stop offset="0" style="stop-color:#de385d;stop-opacity:0"/><stop offset="1" style="stop-color:#cf254c"/></linearGradient><path d="M244.1 212.5c-.1 1.5 2 2.9 4.6 3.1 2.7.3 5-.7 5-2.2.2-1.5-1.8-3-4.5-3.2-2.7-.2-5 .8-5 2.3z" style="fill:url(#ah)"/><linearGradient id="ai" x1="295" x2="302.6" y1="208.4" y2="205.7" gradientTransform="scale(-1 1) rotate(11.6 28 -2467.7)" gradientUnits="userSpaceOnUse"><stop offset="0" style="stop-color:#de385d;stop-opacity:0"/><stop offset="1" style="stop-color:#cf254c"/></linearGradient><path d="M244.7 206.6c-.2 1.5 1.9 2.9 4.5 3.1 2.7.3 5-.7 5.1-2.2.2-1.5-1.9-3-4.5-3.2-2.7-.2-5 .8-5.1 2.3z" style="fill:url(#ai)"/><linearGradient id="aj" x1="293.3" x2="302.5" y1="202.7" y2="199.7" gradientTransform="scale(-1 1) rotate(11.6 28 -2467.7)" gradientUnits="userSpaceOnUse"><stop offset="0" style="stop-color:#de385d;stop-opacity:0"/><stop offset="1" style="stop-color:#cf254c"/></linearGradient><path d="M245.2 200.7c-.1 1.5 2 3 4.6 3.2 2.7.2 5-.8 5-2.3.2-1.5-1.8-2.9-4.5-3.1-2.7-.3-5 .7-5 2.2z" style="fill:url(#aj)"/><linearGradient id="ak" x1="291.5" x2="299.2" y1="197.2" y2="194" gradientTransform="scale(-1 1) rotate(11.6 28 -2467.7)" gradientUnits="userSpaceOnUse"><stop offset="0" style="stop-color:#de385d;stop-opacity:0"/><stop offset="1" style="stop-color:#cf254c"/></linearGradient><path d="M245.8 194.8c-.2 1.5 1.9 3 4.5 3.2 2.7.2 5-.8 5.1-2.3.2-1.5-1.9-2.9-4.6-3.1-2.6-.3-4.9.7-5 2.2z" style="fill:url(#ak)"/></g><g transform="translate(0 -101.3)"><linearGradient id="al" x1="287.9" x2="295.9" y1="214.3" y2="211.8" gradientTransform="scale(-1 1) rotate(11.6 28 -2467.7)" gradientUnits="userSpaceOnUse"><stop offset="0" style="stop-color:#de385d;stop-opacity:0"/><stop offset="1" style="stop-color:#cf254c"/></linearGradient><path d="M252.9 211c-.2 1.5 1.9 3 4.5 3.2 2.7.2 5-.8 5.1-2.3.1-1.5-1.9-2.9-4.6-3.2-2.6-.2-4.9.8-5 2.3z" style="fill:url(#al)"/><linearGradient id="am" x1="285.9" x2="292.6" y1="208.8" y2="206.3" gradientTransform="scale(-1 1) rotate(11.6 28 -2467.7)" gradientUnits="userSpaceOnUse"><stop offset="0" style="stop-color:#de385d;stop-opacity:0"/><stop offset="1" style="stop-color:#cf254c"/></linearGradient><path d="M253.4 205.1c-.1 1.5 2 3 4.6 3.2 2.6.2 5-.8 5-2.3.2-1.5-1.8-2.9-4.5-3.1-2.7-.3-5 .7-5 2.2z" style="fill:url(#am)"/><linearGradient id="an" x1="284.6" x2="290.6" y1="203.1" y2="200.5" gradientTransform="scale(-1 1) rotate(11.6 28 -2467.7)" gradientUnits="userSpaceOnUse"><stop offset="0" style="stop-color:#de385d;stop-opacity:0"/><stop offset="1" style="stop-color:#cf254c"/></linearGradient><path d="M254 199.3c-.2 1.4 1.9 2.9 4.5 3.1 2.7.3 5-.8 5.1-2.2.1-1.5-1.9-3-4.6-3.2-2.6-.3-4.9.8-5 2.3z" style="fill:url(#an)"/></g><g transform="translate(0 -101.3)"><linearGradient id="ao" x1="278.7" x2="286.5" y1="215.1" y2="212.1" gradientTransform="scale(-1 1) rotate(11.6 28 -2467.7)" gradientUnits="userSpaceOnUse"><stop offset="0" style="stop-color:#de385d;stop-opacity:0"/><stop offset="1" style="stop-color:#cf254c"/></linearGradient><path d="M261.2 209.7c-.2 1.5 1.9 3 4.6 3.2 2.6.2 4.9-.8 5-2.3.2-1.5-1.9-2.9-4.5-3.1-2.7-.3-5 .7-5.1 2.2z" style="fill:url(#ao)"/><linearGradient id="ap" x1="277.4" x2="284.1" y1="209.3" y2="206.7" gradientTransform="scale(-1 1) rotate(11.6 28 -2467.7)" gradientUnits="userSpaceOnUse"><stop offset="0" style="stop-color:#de385d;stop-opacity:0"/><stop offset="1" style="stop-color:#cf254c"/></linearGradient><path d="M261.7 203.8c-.1 1.5 2 3 4.6 3.2 2.7.3 5-.8 5-2.3.2-1.4-1.8-2.9-4.5-3.1-2.7-.3-5 .8-5 2.2z" style="fill:url(#ap)"/></g><g transform="translate(0 -101.3)"><linearGradient id="aq" x1="352.6" x2="360.2" y1="194.1" y2="191.2" gradientTransform="scale(-1 1) rotate(50.5 85.5 -389.4)" gradientUnits="userSpaceOnUse"><stop offset="0" style="stop-color:#de385d;stop-opacity:0"/><stop offset="1" style="stop-color:#ed426a"/></linearGradient><path d="M190.3 190.7c.9 1.3 3.3 1 5.6-.4 2.2-1.5 3.3-3.7 2.5-5-.8-1.2-3.3-1-5.5.5-2.3 1.5-3.4 3.7-2.6 5z" style="fill:url(#aq)"/><linearGradient id="ar" x1="350.4" x2="358" y1="188.6" y2="185.9" gradientTransform="scale(-1 1) rotate(50.5 85.5 -389.4)" gradientUnits="userSpaceOnUse"><stop offset="0" style="stop-color:#de385d;stop-opacity:0"/><stop offset="1" style="stop-color:#ed426a"/></linearGradient><path d="M187 185.8c.9 1.2 3.4 1 5.6-.4 2.2-1.5 3.4-3.7 2.5-5-.8-1.2-3.3-1-5.5.5-2.2 1.4-3.4 3.6-2.5 4.9z" style="fill:url(#ar)"/><linearGradient id="as" x1="348.7" x2="357.9" y1="182.9" y2="179.9" gradientTransform="scale(-1 1) rotate(50.5 85.5 -389.4)" gradientUnits="userSpaceOnUse"><stop offset="0" style="stop-color:#de385d;stop-opacity:0"/><stop offset="1" style="stop-color:#ed426a"/></linearGradient><path d="M183.8 180.9c.8 1.2 3.3 1 5.5-.4 2.3-1.5 3.4-3.7 2.6-5-.9-1.2-3.3-1-5.6.4-2.2 1.5-3.3 3.7-2.5 5z" style="fill:url(#as)"/><linearGradient id="at" x1="346.9" x2="354.6" y1="177.4" y2="174.2" gradientTransform="scale(-1 1) rotate(50.5 85.5 -389.4)" gradientUnits="userSpaceOnUse"><stop offset="0" style="stop-color:#de385d;stop-opacity:0"/><stop offset="1" style="stop-color:#ed426a"/></linearGradient><path d="M180.6 176c.8 1.2 3.3 1 5.5-.4 2.2-1.5 3.3-3.7 2.5-5-.8-1.2-3.3-1-5.5.4-2.2 1.5-3.4 3.7-2.5 5z" style="fill:url(#at)"/></g><g transform="translate(0 -101.3)"><linearGradient id="au" x1="343.3" x2="351.3" y1="194.5" y2="192" gradientTransform="scale(-1 1) rotate(50.5 85.5 -389.4)" gradientUnits="userSpaceOnUse"><stop offset="0" style="stop-color:#de385d;stop-opacity:0"/><stop offset="1" style="stop-color:#ed426a"/></linearGradient><path d="M196.2 184.1c.9 1.2 3.3 1 5.6-.4 2.2-1.5 3.3-3.7 2.5-5-.8-1.2-3.3-1-5.5.5-2.3 1.4-3.4 3.6-2.6 4.9z" style="fill:url(#au)"/><linearGradient id="av" x1="341.3" x2="348" y1="189" y2="186.5" gradientTransform="scale(-1 1) rotate(50.5 85.5 -389.4)" gradientUnits="userSpaceOnUse"><stop offset="0" style="stop-color:#de385d;stop-opacity:0"/><stop offset="1" style="stop-color:#ed426a"/></linearGradient><path d="M193 179.2c.8 1.2 3.3 1 5.5-.4 2.2-1.5 3.4-3.7 2.5-5-.8-1.2-3.3-1-5.5.4-2.2 1.5-3.4 3.7-2.5 5z" style="fill:url(#av)"/><linearGradient id="aw" x1="340" x2="346" y1="183.3" y2="180.7" gradientTransform="scale(-1 1) rotate(50.5 85.5 -389.4)" gradientUnits="userSpaceOnUse"><stop offset="0" style="stop-color:#de385d;stop-opacity:0"/><stop offset="1" style="stop-color:#ed426a"/></linearGradient><path d="M189.7 174.3c.8 1.2 3.3 1 5.5-.4 2.3-1.5 3.4-3.7 2.6-5-.9-1.2-3.3-1-5.6.4-2.2 1.5-3.3 3.7-2.5 5z" style="fill:url(#aw)"/></g><g transform="translate(0 -101.3)"><linearGradient id="ax" x1="334.1" x2="341.9" y1="195.3" y2="192.3" gradientTransform="scale(-1 1) rotate(50.5 85.5 -389.4)" gradientUnits="userSpaceOnUse"><stop offset="0" style="stop-color:#de385d;stop-opacity:0"/><stop offset="1" style="stop-color:#ed426a"/></linearGradient><path d="M201.9 177.9c.8 1.2 3.3 1 5.5-.4 2.3-1.5 3.4-3.7 2.6-5-.9-1.2-3.3-1-5.6.5-2.2 1.4-3.3 3.6-2.5 4.9z" style="fill:url(#ax)"/><linearGradient id="ay" x1="332.8" x2="339.5" y1="189.5" y2="186.9" gradientTransform="scale(-1 1) rotate(50.5 85.5 -389.4)" gradientUnits="userSpaceOnUse"><stop offset="0" style="stop-color:#de385d;stop-opacity:0"/><stop offset="1" style="stop-color:#ed426a"/></linearGradient><path d="M198.6 173c.9 1.2 3.3 1 5.6-.4 2.2-1.5 3.3-3.7 2.5-5-.8-1.2-3.3-1-5.5.4-2.3 1.5-3.4 3.7-2.6 5z" style="fill:url(#ay)"/></g><g transform="translate(0 -101.3)"><linearGradient id="az" x1="432.2" x2="439.8" y1="249" y2="246.1" gradientTransform="scale(1 -1) rotate(-76.3 -7.2 163)" gradientUnits="userSpaceOnUse"><stop offset="0" style="stop-color:#de385d;stop-opacity:0"/><stop offset="1" style="stop-color:#ed426a"/></linearGradient><path d="M179.7 249c1.5.1 2.8-2 3-4.7.1-2.6-1-4.9-2.5-5-1.5 0-2.8 2-3 4.7-.1 2.7 1 5 2.5 5z" style="fill:url(#az)"/><linearGradient id="aA" x1="430.1" x2="437.6" y1="243.5" y2="240.8" gradientTransform="scale(1 -1) rotate(-76.3 -7.2 163)" gradientUnits="userSpaceOnUse"><stop offset="0" style="stop-color:#de385d;stop-opacity:0"/><stop offset="1" style="stop-color:#ed426a"/></linearGradient><path d="M173.8 248.7c1.5 0 2.8-2 3-4.7.1-2.7-1-4.9-2.5-5-1.5 0-2.8 2-3 4.7-.1 2.7 1 4.9 2.5 5z" style="fill:url(#aA)"/><linearGradient id="aB" x1="428.3" x2="437.5" y1="237.8" y2="234.8" gradientTransform="scale(1 -1) rotate(-76.3 -7.2 163)" gradientUnits="userSpaceOnUse"><stop offset="0" style="stop-color:#de385d;stop-opacity:0"/><stop offset="1" style="stop-color:#ed426a"/></linearGradient><path d="M167.9 248.3c1.5.1 2.8-2 3-4.6.1-2.7-1-5-2.5-5-1.5-.1-2.8 2-3 4.6-.1 2.7 1 5 2.5 5z" style="fill:url(#aB)"/><linearGradient id="aC" x1="426.5" x2="434.2" y1="232.3" y2="229.1" gradientTransform="scale(1 -1) rotate(-76.3 -7.2 163)" gradientUnits="userSpaceOnUse"><stop offset="0" style="stop-color:#de385d;stop-opacity:0"/><stop offset="1" style="stop-color:#ed426a"/></linearGradient><path d="M162 248c1.5 0 2.8-2 3-4.7.1-2.6-1-4.9-2.4-5-1.5 0-2.9 2-3 4.7-.2 2.7.9 4.9 2.4 5z" style="fill:url(#aC)"/></g><g transform="translate(0 -101.3)"><linearGradient id="aD" x1="423" x2="430.9" y1="249.4" y2="246.9" gradientTransform="scale(1 -1) rotate(-76.3 -7.2 163)" gradientUnits="userSpaceOnUse"><stop offset="0" style="stop-color:#de385d;stop-opacity:0"/><stop offset="1" style="stop-color:#ed426a"/></linearGradient><path d="M177.9 240.3c1.5.1 2.8-2 3-4.6.1-2.7-1-5-2.4-5-1.5-.1-2.9 2-3 4.6-.2 2.7.9 5 2.4 5z" style="fill:url(#aD)"/><linearGradient id="aE" x1="420.9" x2="427.6" y1="243.9" y2="241.4" gradientTransform="scale(1 -1) rotate(-76.3 -7.2 163)" gradientUnits="userSpaceOnUse"><stop offset="0" style="stop-color:#de385d;stop-opacity:0"/><stop offset="1" style="stop-color:#ed426a"/></linearGradient><path d="M172 240c1.5 0 2.8-2 3-4.7.2-2.7-1-4.9-2.4-5-1.5 0-2.9 2-3 4.7-.2 2.7 1 4.9 2.4 5z" style="fill:url(#aE)"/><linearGradient id="aF" x1="419.6" x2="425.6" y1="238.2" y2="235.6" gradientTransform="scale(1 -1) rotate(-76.3 -7.2 163)" gradientUnits="userSpaceOnUse"><stop offset="0" style="stop-color:#de385d;stop-opacity:0"/><stop offset="1" style="stop-color:#ed426a"/></linearGradient><path d="M166.1 239.6c1.5.1 2.9-2 3-4.6.2-2.7-1-5-2.4-5-1.5-.1-2.9 2-3 4.7-.2 2.6 1 4.9 2.4 5z" style="fill:url(#aF)"/></g><g transform="translate(0 -101.3)"><linearGradient id="aG" x1="413.8" x2="421.5" y1="250.2" y2="247.2" gradientTransform="scale(1 -1) rotate(-76.3 -7.2 163)" gradientUnits="userSpaceOnUse"><stop offset="0" style="stop-color:#de385d;stop-opacity:0"/><stop offset="1" style="stop-color:#ed426a"/></linearGradient><path d="M176.3 232c1.5.1 2.9-2 3-4.6.2-2.7-1-4.9-2.4-5-1.5 0-2.8 2-3 4.7-.2 2.6 1 4.9 2.4 5z" style="fill:url(#aG)"/><linearGradient id="aH" x1="412.4" x2="419.1" y1="244.4" y2="241.8" gradientTransform="scale(1 -1) rotate(-76.3 -7.2 163)" gradientUnits="userSpaceOnUse"><stop offset="0" style="stop-color:#de385d;stop-opacity:0"/><stop offset="1" style="stop-color:#ed426a"/></linearGradient><path d="M170.4 231.7c1.5.1 2.9-2 3-4.6.2-2.7-.9-5-2.4-5-1.5-.1-2.8 2-3 4.6-.1 2.7 1 5 2.4 5z" style="fill:url(#aH)"/></g><g transform="translate(0 -101.3)"><linearGradient id="aI" x1="546" x2="551.9" y1="255.5" y2="253.2" gradientTransform="scale(1 -1) rotate(-16.7 -1582.7 1137)" gradientUnits="userSpaceOnUse"><stop offset="0" style="stop-color:#de385d;stop-opacity:0"/><stop offset="1" style="stop-color:#ed426a"/></linearGradient><path d="M206.3 321.5c.7-1-.2-2.7-2-3.9-1.7-1.1-3.6-1.3-4.2-.3-.7 1 .2 2.7 2 3.8 1.7 1.2 3.6 1.3 4.2.4z" style="fill:url(#aI)"/><linearGradient id="aJ" x1="544.4" x2="550.3" y1="251.2" y2="249.1" gradientTransform="scale(1 -1) rotate(-16.7 -1582.7 1137)" gradientUnits="userSpaceOnUse"><stop offset="0" style="stop-color:#de385d;stop-opacity:0"/><stop offset="1" style="stop-color:#ed426a"/></linearGradient><path d="M203.8 325.3c.6-1-.2-2.7-2-3.9-1.7-1.1-3.6-1.2-4.3-.3-.6 1 .2 2.7 2 3.9 1.7 1.1 3.6 1.3 4.3.3z" style="fill:url(#aJ)"/><linearGradient id="aK" x1="543" x2="550.1" y1="246.8" y2="244.4" gradientTransform="scale(1 -1) rotate(-16.7 -1582.7 1137)" gradientUnits="userSpaceOnUse"><stop offset="0" style="stop-color:#de385d;stop-opacity:0"/><stop offset="1" style="stop-color:#ed426a"/></linearGradient><path d="M201.2 329.1c.7-1-.2-2.7-2-3.8-1.7-1.2-3.6-1.3-4.2-.4-.7 1 .2 2.7 2 3.9 1.7 1.1 3.6 1.3 4.2.3z" style="fill:url(#aK)"/><linearGradient id="aL" x1="541.6" x2="547.6" y1="242.5" y2="240" gradientTransform="scale(1 -1) rotate(-16.7 -1582.7 1137)" gradientUnits="userSpaceOnUse"><stop offset="0" style="stop-color:#de385d;stop-opacity:0"/><stop offset="1" style="stop-color:#ed426a"/></linearGradient><path d="M198.7 333c.6-1-.2-2.7-2-3.9-1.7-1.2-3.6-1.3-4.3-.3-.6 1 .2 2.7 2 3.8 1.7 1.2 3.6 1.3 4.3.3z" style="fill:url(#aL)"/></g><g transform="translate(0 -101.3)"><linearGradient id="aM" x1="538.8" x2="545" y1="255.8" y2="253.8" gradientTransform="scale(1 -1) rotate(-16.7 -1582.7 1137)" gradientUnits="userSpaceOnUse"><stop offset="0" style="stop-color:#de385d;stop-opacity:0"/><stop offset="1" style="stop-color:#ed426a"/></linearGradient><path d="M199.8 319.2c.6-1-.2-2.7-2-3.8-1.7-1.2-3.6-1.3-4.3-.3-.6 1 .3 2.7 2 3.8 1.7 1.2 3.7 1.3 4.3.3z" style="fill:url(#aM)"/><linearGradient id="aN" x1="537.2" x2="542.4" y1="251.5" y2="249.6" gradientTransform="scale(1 -1) rotate(-16.7 -1582.7 1137)" gradientUnits="userSpaceOnUse"><stop offset="0" style="stop-color:#de385d;stop-opacity:0"/><stop offset="1" style="stop-color:#ed426a"/></linearGradient><path d="M197.3 323c.6-1-.3-2.6-2-3.8-1.7-1.1-3.7-1.3-4.3-.3-.7 1 .2 2.7 2 3.8 1.7 1.2 3.6 1.3 4.3.4z" style="fill:url(#aN)"/><linearGradient id="aO" x1="536.2" x2="540.9" y1="247.1" y2="245" gradientTransform="scale(1 -1) rotate(-16.7 -1582.7 1137)" gradientUnits="userSpaceOnUse"><stop offset="0" style="stop-color:#de385d;stop-opacity:0"/><stop offset="1" style="stop-color:#ed426a"/></linearGradient><path d="M194.7 326.9c.7-1-.2-2.7-2-3.9-1.7-1.1-3.6-1.3-4.3-.3-.6 1 .3 2.7 2 3.9 1.7 1.1 3.7 1.3 4.3.3z" style="fill:url(#aO)"/></g><g transform="translate(0 -101.3)"><linearGradient id="aP" x1="531.7" x2="537.7" y1="256.4" y2="254.1" gradientTransform="scale(1 -1) rotate(-16.7 -1582.7 1137)" gradientUnits="userSpaceOnUse"><stop offset="0" style="stop-color:#de385d;stop-opacity:0"/><stop offset="1" style="stop-color:#ed426a"/></linearGradient><path d="M193.6 317c.7-1-.2-2.6-2-3.8-1.7-1.2-3.6-1.3-4.2-.3-.7 1 .2 2.7 2 3.8 1.7 1.2 3.6 1.3 4.2.3z" style="fill:url(#aP)"/><linearGradient id="aQ" x1="530.6" x2="535.8" y1="251.9" y2="249.9" gradientTransform="scale(1 -1) rotate(-16.7 -1582.7 1137)" gradientUnits="userSpaceOnUse"><stop offset="0" style="stop-color:#de385d;stop-opacity:0"/><stop offset="1" style="stop-color:#ed426a"/></linearGradient><path d="M191 320.9c.7-1-.1-2.7-1.9-3.9-1.7-1.1-3.6-1.3-4.3-.3-.6 1 .2 2.7 2 3.8 1.7 1.2 3.6 1.3 4.3.4z" style="fill:url(#aQ)"/></g><path d="M331.6 192c-1 1 2-15.2 6.8-27.5 4.7-12.4 7.7-13 8.4-8.6.7 4.4-2 23.9-15.2 36.2z" style="fill:url(#aR)" transform="translate(0 -7.3)"/><path d="M330.4 191.3a98.7 98.7 0 0 1-6.7-27.6c-1.6-13.2.9-15 3.5-11.5 2.6 3.6 9.3 22 3.2 39.1z" style="fill:url(#aS)" transform="translate(0 -7.3)"/><path d="M329 192.1c.2 1-8.4-7.4-14-15.3-5.6-7.8-4.6-9.9-1.7-8.5 3 1.3 13.6 10.8 15.7 23.8z" style="fill:url(#aT)" transform="translate(0 -7.3)"/><g transform="translate(0 -101.3)"><linearGradient id="aU" x1="120.1" x2="129" y1="334.8" y2="296.3" gradientTransform="rotate(-6.5 -35 298.8)" gradientUnits="userSpaceOnUse"><stop offset="0" style="stop-color:#4f8c66"/><stop offset="1" style="stop-color:#aae07e"/></linearGradient><path d="M121 319.6c-.8 1-1-15.3 1.3-28.4 2.2-13 5-14.1 6.6-10a51.3 51.3 0 0 1-8 38.4z" style="fill:url(#aU)"/><linearGradient id="aV" x1="121.7" x2="130.6" y1="234" y2="195.5" gradientTransform="rotate(-34 249.4 276.7)" gradientUnits="userSpaceOnUse"><stop offset="0" style="stop-color:#4f8c66"/><stop offset="1" style="stop-color:#aae07e"/></linearGradient><path d="M119 316.2c-.2 1.3-8-13.1-12-25.7s-2-15 1.3-12c3.2 3 13.4 19.8 10.7 37.7z" style="fill:url(#aV)"/><linearGradient id="aW" x1="164.9" x2="171.4" y1="153.4" y2="125.3" gradientTransform="rotate(-62.8 274.7 273.6)" gradientUnits="userSpaceOnUse"><stop offset="0" style="stop-color:#4f8c66"/><stop offset="1" style="stop-color:#aae07e"/></linearGradient><path d="M118.3 318.6c.4.9-9.6-5.6-16.7-12.3-7-6.6-6.4-8.8-3.3-8 3.1.8 15.5 8 20 20.3z" style="fill:url(#aW)"/></g><g transform="translate(0 -101.3)"><linearGradient id="aX" x1="446.1" x2="453.8" y1="308.5" y2="275.4" gradientTransform="rotate(4.7 327.5 296.2)" gradientUnits="userSpaceOnUse"><stop offset="0" style="stop-color:#4f8c66"/><stop offset="1" style="stop-color:#aae07e"/></linearGradient><path d="M442.4 320c-.8.8 1.8-13.1 5.8-23.7 4-10.7 6.7-11.1 7.3-7.3.5 3.7-1.7 20.4-13.1 31z" style="fill:url(#aX)"/><linearGradient id="aY" x1="423.3" x2="431" y1="362.5" y2="329.3" gradientTransform="rotate(-22.9 313.3 291)" gradientUnits="userSpaceOnUse"><stop offset="0" style="stop-color:#4f8c66"/><stop offset="1" style="stop-color:#aae07e"/></linearGradient><path d="M441.3 316.8c-.4 1-4.5-12.4-5.8-23.7-1.3-11.3.8-13 3-9.8 2.3 3 8 18.9 2.8 33.5z" style="fill:url(#aY)"/><linearGradient id="aZ" x1="368.8" x2="374.4" y1="410.8" y2="386.6" gradientTransform="rotate(-51.6 307 290)" gradientUnits="userSpaceOnUse"><stop offset="0" style="stop-color:#4f8c66"/><stop offset="1" style="stop-color:#aae07e"/></linearGradient><path d="M440.3 318.7c.2.8-7.2-6.4-12-13.1-4.8-6.8-4-8.5-1.5-7.4a32.1 32.1 0 0 1 13.5 20.5z" style="fill:url(#aZ)"/></g><g transform="translate(0 -101.3)"><linearGradient id="ba" x1="371.1" x2="376.4" y1="332.6" y2="310" gradientTransform="rotate(4.7 327.5 296.2)" gradientUnits="userSpaceOnUse"><stop offset="0" style="stop-color:#4f8c66"/><stop offset="1" style="stop-color:#aae07e"/></linearGradient><path d="M366.4 337.3c-.5.5 1.2-9 4-16.2 2.8-7.3 4.6-7.5 5-5a30 30 0 0 1-9 21.2z" style="fill:url(#ba)"/><linearGradient id="bb" x1="345.9" x2="351.1" y1="350.6" y2="328" gradientTransform="rotate(-22.9 313.3 291)" gradientUnits="userSpaceOnUse"><stop offset="0" style="stop-color:#4f8c66"/><stop offset="1" style="stop-color:#aae07e"/></linearGradient><path d="M365.7 335.1c-.3.7-3-8.4-4-16.2-.9-7.7.6-8.8 2.1-6.7a30 30 0 0 1 1.9 23z" style="fill:url(#bb)"/><linearGradient id="bc" x1="307.7" x2="311.5" y1="363.2" y2="346.8" gradientTransform="rotate(-51.6 307 290)" gradientUnits="userSpaceOnUse"><stop offset="0" style="stop-color:#4f8c66"/><stop offset="1" style="stop-color:#aae07e"/></linearGradient><path d="M365 336.4c.1.6-4.9-4.3-8.2-9-3.2-4.5-2.7-5.7-1-5 1.7.9 8 6.4 9.2 14z" style="fill:url(#bc)"/></g><g transform="translate(0 -101.3)"><linearGradient id="bd" x1="421.8" x2="428.7" y1="361.3" y2="331.7" gradientTransform="rotate(4.7 327.5 296.2)" gradientUnits="userSpaceOnUse"><stop offset="0" style="stop-color:#4f8c66"/><stop offset="1" style="stop-color:#aae07e"/></linearGradient><path d="M414.2 370.5c-.7.7 1.6-11.7 5.2-21.3 3.6-9.5 6-9.9 6.5-6.5.5 3.4-1.5 18.3-11.7 27.8z" style="fill:url(#bd)"/><linearGradient id="be" x1="377.5" x2="384.4" y1="398.6" y2="369" gradientTransform="rotate(-22.9 313.3 291)" gradientUnits="userSpaceOnUse"><stop offset="0" style="stop-color:#4f8c66"/><stop offset="1" style="stop-color:#aae07e"/></linearGradient><path d="M413.2 367.7c-.3 1-4-11.2-5.2-21.3-1.2-10.1.7-11.5 2.7-8.8 2 2.7 7.2 17 2.5 30z" style="fill:url(#be)"/><linearGradient id="bf" x1="311.6" x2="316.6" y1="420.5" y2="398.9" gradientTransform="rotate(-51.6 307 290)" gradientUnits="userSpaceOnUse"><stop offset="0" style="stop-color:#4f8c66"/><stop offset="1" style="stop-color:#aae07e"/></linearGradient><path d="M412.3 369.4c.2.7-6.4-5.7-10.7-11.8-4.3-6-3.6-7.6-1.4-6.6 2.3 1 10.5 8.3 12.1 18.4z" style="fill:url(#bf)"/></g><g transform="translate(0 -101.3)"><linearGradient id="bg" x1="63.3" x2="69.8" y1="354.9" y2="326.9" gradientTransform="rotate(4.7 327.5 296.2)" gradientUnits="userSpaceOnUse"><stop offset="0" style="stop-color:#4f8c66"/><stop offset="1" style="stop-color:#aae07e"/></linearGradient><path d="M57.5 334.8c-.7.6 1.5-11 5-20 3.4-9 5.6-9.4 6-6.3.5 3.2-1.3 17.3-11 26.3z" style="fill:url(#bg)"/><linearGradient id="bh" x1="62.6" x2="69.1" y1="227.4" y2="199.5" gradientTransform="rotate(-22.9 313.3 291)" gradientUnits="userSpaceOnUse"><stop offset="0" style="stop-color:#4f8c66"/><stop offset="1" style="stop-color:#aae07e"/></linearGradient><path d="M56.6 332.1c-.3.9-3.8-10.5-5-20-1-9.6.8-11 2.7-8.4 1.8 2.6 6.7 16 2.3 28.4z" style="fill:url(#bh)"/><linearGradient id="bi" x1="117.9" x2="122.6" y1="119" y2="98.6" gradientTransform="rotate(-51.6 307 290)" gradientUnits="userSpaceOnUse"><stop offset="0" style="stop-color:#4f8c66"/><stop offset="1" style="stop-color:#aae07e"/></linearGradient><path d="M55.8 333.7c0 .7-6.1-5.4-10.2-11-4-5.8-3.4-7.3-1.3-6.3 2.2 1 10 7.8 11.5 17.3z" style="fill:url(#bi)"/></g><g transform="translate(0 -101.3)"><linearGradient id="bj" x1="127.1" x2="132.4" y1="384.5" y2="361.9" gradientTransform="rotate(4.7 327.5 296.2)" gradientUnits="userSpaceOnUse"><stop offset="0" style="stop-color:#4f8c66"/><stop offset="1" style="stop-color:#aae07e"/></linearGradient><path d="M119 369.2c-.5.5 1.3-9 4-16.2 2.8-7.2 4.6-7.5 5-5a30 30 0 0 1-9 21.2z" style="fill:url(#bj)"/><linearGradient id="bk" x1="105.5" x2="110.8" y1="283.9" y2="261.4" gradientTransform="rotate(-22.9 313.3 291)" gradientUnits="userSpaceOnUse"><stop offset="0" style="stop-color:#4f8c66"/><stop offset="1" style="stop-color:#aae07e"/></linearGradient><path d="M118.3 367c-.2.8-3-8.4-4-16.2-.9-7.7.6-8.8 2.1-6.7a30 30 0 0 1 2 23z" style="fill:url(#bk)"/><linearGradient id="bl" x1="128.9" x2="132.8" y1="189.3" y2="172.8" gradientTransform="rotate(-51.6 307 290)" gradientUnits="userSpaceOnUse"><stop offset="0" style="stop-color:#4f8c66"/><stop offset="1" style="stop-color:#aae07e"/></linearGradient><path d="M117.6 368.3c.1.6-4.9-4.3-8.2-9-3.2-4.5-2.7-5.7-1-5 1.7.9 8 6.4 9.2 14z" style="fill:url(#bl)"/></g><g transform="translate(0 -101.3)"><linearGradient id="bm" x1="62.4" x2="62.4" y1="329.3" y2="335.8" gradientUnits="userSpaceOnUse"><stop offset="0" style="stop-color:#b0b0b0"/><stop offset="1" style="stop-color:#696969"/></linearGradient><path d="M69.2 333.4c0 2-3 2.2-6.8 2.2-3.7 0-6.8-.3-6.8-2.2 0-1.8 3-4.6 6.8-4.6s6.8 2.8 6.8 4.6z" style="fill:url(#bm)"/><linearGradient id="bn" x1="51.8" x2="51.8" y1="330.2" y2="338.9" gradientUnits="userSpaceOnUse"><stop offset="0" style="stop-color:#bd6542"/><stop offset="1" style="stop-color:#7d422c"/></linearGradient><path d="M60.8 335.7c0 2.5-4 2.9-9 2.9s-9-.4-9-2.9 4-6.2 9-6.2 9 3.7 9 6.2z" style="fill:url(#bn)"/></g><g transform="translate(0 -101.3)"><linearGradient id="bo" x1="127.1" x2="127.1" y1="364.9" y2="371.4" gradientUnits="userSpaceOnUse"><stop offset="0" style="stop-color:#b0b0b0"/><stop offset="1" style="stop-color:#696969"/></linearGradient><path d="M133.9 369c0 1.9-3 2.2-6.8 2.2s-6.8-.3-6.8-2.2c0-1.9 3-4.6 6.8-4.6 3.7 0 6.8 2.7 6.8 4.6z" style="fill:url(#bo)"/><linearGradient id="bp" x1="116.4" x2="116.4" y1="365.8" y2="374.5" gradientUnits="userSpaceOnUse"><stop offset="0" style="stop-color:#bd6542"/><stop offset="1" style="stop-color:#7d422c"/></linearGradient><path d="M125.5 371.3c0 2.5-4 2.9-9.1 2.9-5 0-9-.4-9-2.9s4-6.2 9-6.2 9 3.7 9 6.2z" style="fill:url(#bp)"/></g><g transform="translate(0 -101.3)"><linearGradient id="bq" x1="370.8" x2="370.8" y1="332.9" y2="339.4" gradientUnits="userSpaceOnUse"><stop offset="0" style="stop-color:#b0b0b0"/><stop offset="1" style="stop-color:#696969"/></linearGradient><path d="M377.6 337c0 2-3 2.2-6.8 2.2s-6.8-.3-6.8-2.2c0-1.8 3-4.6 6.8-4.6 3.7 0 6.8 2.8 6.8 4.7z" style="fill:url(#bq)"/><linearGradient id="br" x1="360.1" x2="360.1" y1="333.8" y2="342.5" gradientUnits="userSpaceOnUse"><stop offset="0" style="stop-color:#bd6542"/><stop offset="1" style="stop-color:#7d422c"/></linearGradient><path d="M369.2 339.3c0 2.5-4 2.9-9.1 2.9-5 0-9-.4-9-2.9s4-6.2 9-6.2 9 3.7 9 6.2z" style="fill:url(#br)"/></g><g transform="translate(0 -101.3)"><linearGradient id="bs" x1="443.1" x2="443.1" y1="316" y2="325.2" gradientUnits="userSpaceOnUse"><stop offset="0" style="stop-color:#b0b0b0"/><stop offset="1" style="stop-color:#696969"/></linearGradient><path d="M452.7 321.9c0 2.6-4.3 3-9.6 3s-9.6-.4-9.6-3c0-2.7 4.3-6.6 9.6-6.6s9.6 3.9 9.6 6.6z" style="fill:url(#bs)"/><linearGradient id="bt" x1="428" x2="428" y1="317.3" y2="329.6" gradientUnits="userSpaceOnUse"><stop offset="0" style="stop-color:#bd6542"/><stop offset="1" style="stop-color:#7d422c"/></linearGradient><path d="M440.8 325c0 3.6-5.7 4.1-12.8 4.1-7 0-12.8-.5-12.8-4 0-3.6 5.7-8.8 12.8-8.8 7 0 12.8 5.2 12.8 8.8z" style="fill:url(#bt)"/></g><path d="M181 472.1c-.2 0-.3.1-.5.3l-.2.7v2.4l-1-.7c-.2-.2-.6-.2-1.1-.2-.8 0-1.5.2-2 .8a4.7 4.7 0 0 0-.6 3.7l.6 1c.3.4.6.6 1 .8l1 .2a2.6 2.6 0 0 0 1.5-.4l.6-.7v.2c0 .3 0 .5.2.7.2.2.4.2.6.2.2 0 .4 0 .5-.2.2-.2.3-.4.3-.7v-7.1l-.2-.7a.7.7 0 0 0-.6-.3zm-1 6.9-.5.7a1.4 1.4 0 0 1-2.2-.8l-.2-1 .2-1.2.6-.7c.2-.2.5-.2.8-.2.3 0 .5 0 .8.2l.5.7c.2.3.2.7.2 1.1 0 .5 0 .9-.2 1.2zM188.5 478c.2 0 .3-.3.3-.7a2.7 2.7 0 0 0-1.4-2.4 3.6 3.6 0 0 0-3-.2 2.7 2.7 0 0 0-1.5 1.8 4 4 0 0 0-.3 1.3c0 1 .3 1.8 1 2.4.5.6 1.3 1 2.3 1l1.2-.2 1-.5.4-.6c.2-.2.2-.3.2-.5l-.1-.4a.6.6 0 0 0-.4-.1l-.4.1a16.4 16.4 0 0 1-1 .8 1.7 1.7 0 0 1-1 .3 1.5 1.5 0 0 1-1.3-.9l-.2-1h3.2l1-.1zm-4.2-.7c0-.5.2-1 .5-1.2.2-.3.6-.4 1-.4s.7.1 1 .4c.2.2.4.7.4 1.2zM193.9 477.6l-1.2-.4a22.5 22.5 0 0 1-1.6-.6.5.5 0 0 1-.2-.4c0-.2 0-.3.3-.4.2-.2.4-.2.7-.2l.7.1.4.4.4.4.4.2c.2 0 .4 0 .6-.2l.1-.5-.1-.5-.5-.5-.9-.3a4.4 4.4 0 0 0-2.5.1 2 2 0 0 0-.8.7c-.2.3-.3.6-.3 1 0 .3 0 .6.3.8.2.3.5.5.8.6l1.4.5c.5 0 .8.2 1 .3.3.2.4.4.4.7 0 .2-.1.3-.3.5l-.8.2c-.4 0-.8 0-1-.2l-.6-.7-.2-.3-.4-.2-.5.2-.2.5c0 .3.1.5.3.8.2.3.5.5 1 .7l1.4.2c.6 0 1.1 0 1.6-.2a2 2 0 0 0 1-.7c.1-.4.3-.7.3-1.2 0-.3-.1-.5-.3-.8a2 2 0 0 0-.7-.6zM196.5 474.5l-.6.3-.2.7v4.6c0 .4 0 .6.2.8l.6.2c.2 0 .4 0 .6-.2l.2-.8v-4.6c0-.3 0-.6-.2-.7a.8.8 0 0 0-.6-.3zM196.5 472.2c-.2 0-.4 0-.6.2l-.2.6c0 .2 0 .4.2.6l.6.2c.2 0 .4 0 .6-.2l.2-.6c0-.3 0-.5-.2-.6a.9.9 0 0 0-.6-.2zM203.6 474.5c-.2 0-.4.1-.5.3a1 1 0 0 0-.2.6v.2a3 3 0 0 0-1-.8c-.3-.2-.7-.2-1.1-.2-.4 0-.8 0-1.1.2l-.9.6-.5 1a4 4 0 0 0-.2 1.3c0 .6 0 1.2.3 1.7.2.5.5.9 1 1.2.4.2.8.4 1.4.4.4 0 .8-.1 1.1-.3.4-.2.6-.4.9-.8a26 26 0 0 1-.2 1.8c0 .2-.3.4-.5.5l-1 .2h-.5l-.4-.2-.3-.3-.3-.3a.8.8 0 0 0-.6-.3l-.5.1-.2.5c0 .3.1.5.3.8l1 .6c.5.2 1 .2 1.6.2.6 0 1 0 1.5-.2.4 0 .7-.3 1-.5l.5-1 .2-1.4v-4.7c0-.4 0-.7-.2-.9 0-.2-.3-.3-.6-.3zm-1 4.4c-.1.3-.3.5-.6.7l-.7.2c-.5 0-.9-.2-1.2-.5-.2-.4-.4-.9-.4-1.5 0-.7.1-1.2.4-1.5.3-.4.7-.5 1.1-.5.5 0 .9.1 1.2.5.3.4.4.9.4 1.5 0 .5 0 .8-.2 1.1zM211 475.6c-.2-.3-.4-.6-.8-.8-.3-.2-.7-.3-1.1-.3-.5 0-.8.1-1.2.3l-1 .8v-.7a.7.7 0 0 0-.7-.4c-.2 0-.4.1-.5.3-.2.1-.2.4-.2.7v4.6c0 .4 0 .6.2.8l.6.2c.2 0 .4 0 .6-.2l.2-.8v-2l.1-1.3c.1-.3.3-.6.5-.7.3-.2.5-.3.8-.3.5 0 .8.1.9.4l.2 1.2v2.7c0 .4.1.6.3.8l.5.2c.3 0 .5 0 .6-.2.2-.2.2-.4.2-.8v-3.8l-.2-.7zM217.8 478c.3 0 .4-.3.4-.7a2.7 2.7 0 0 0-1.4-2.4 3.6 3.6 0 0 0-3-.2 2.7 2.7 0 0 0-1.6 1.8 4 4 0 0 0-.2 1.3c0 1 .3 1.8.9 2.4.6.6 1.4 1 2.4 1l1.2-.2.9-.5.5-.6.2-.5c0-.1 0-.3-.2-.4a.6.6 0 0 0-.4-.1l-.3.1a21.3 21.3 0 0 1-1 .8 1.8 1.8 0 0 1-1.7 0c-.3-.1-.5-.3-.6-.6-.2-.3-.2-.6-.2-1h3.1l1-.1zm-4.1-.7c0-.5.2-1 .4-1.2.3-.3.6-.4 1-.4.5 0 .8.1 1 .4.3.2.5.7.5 1.2zM224.2 472.1l-.6.3-.2.7v2.4l-.9-.7c-.3-.2-.7-.2-1.2-.2-.8 0-1.4.2-2 .8a4.6 4.6 0 0 0-.6 3.7c.2.4.4.8.7 1 .2.4.5.6.8.8l1.1.2a2.5 2.5 0 0 0 1.5-.4l.6-.7v.2c0 .3.1.5.3.7.1.2.3.2.5.2s.4 0 .6-.2l.2-.7v-7.1c0-.3 0-.6-.2-.7a.7.7 0 0 0-.6-.3zm-1 6.9-.6.7a1.4 1.4 0 0 1-1.6 0c-.2-.2-.4-.4-.5-.8-.2-.3-.2-.6-.2-1 0-.5 0-.9.2-1.2 0-.3.3-.5.5-.7.2-.2.5-.2.8-.2.3 0 .5 0 .8.2l.5.7c.2.3.3.7.3 1.1 0 .5-.1.9-.3 1.2zM233.6 475c-.4-.3-.9-.4-1.4-.4-.5 0-.9 0-1.2.2l-1 .7v-2.4l-.1-.7a.7.7 0 0 0-.6-.3l-.6.3-.2.7v7.1l.2.7c.2.2.4.2.6.2.2 0 .4 0 .5-.2.2-.2.3-.4.3-.7v-.2c.1.3.3.4.4.5l.4.3.6.2.7.1c.4 0 .7 0 1-.2l1-.7.5-1 .2-1.4a4 4 0 0 0-.4-1.8c-.2-.4-.5-.8-1-1zm-.8 4.3c-.3.4-.6.6-1 .6-.5 0-1-.2-1.2-.5a2.8 2.8 0 0 1-.2-2.6c0-.4.3-.6.5-.8a1.4 1.4 0 0 1 1.6 0l.6.7.1 1.1c0 .7-.1 1.2-.4 1.5z" style="fill:#404040" transform="translate(0 -156)"/><path d="M240.5 474.6a.7.7 0 0 0-.3 0h-.4l-.3.4-.3.7-1.3 3.7-1.3-4a2 2 0 0 0-.3-.6c-.2-.2-.3-.3-.6-.3l-.4.1a.8.8 0 0 0-.4.7l.2.6 2 5-.1.4a4 4 0 0 1-.3.6l-.3.3a1 1 0 0 1-.5.1h-1l-.1.5c0 .3 0 .5.3.6l1 .1c.6 0 1 0 1.2-.2.3-.1.6-.4.7-.6l.6-1.2 2-5.5a4.8 4.8 0 0 0 .3-.7l-.1-.4-.3-.3zM263 472.1l-1.3.2c-.3.2-.6.4-.7.7l-.2 1.2v.5h-.4c-.5 0-.8.2-.8.6 0 .1 0 .3.2.4l.6.2h.4v4.2c0 .4.1.6.3.8l.5.2c.3 0 .5 0 .6-.2.2-.2.2-.4.2-.8V476h.4c.3 0 .6 0 .7-.2.2 0 .3-.2.3-.5s-.3-.5-1-.5h-.4v-.4c0-.3 0-.6.2-.7 0-.2.2-.3.5-.3h1.1l.2-.5c0-.4-.5-.7-1.5-.7zM268 474.8a2 2 0 0 0-.9-.3c-.3 0-.6.1-.8.3l-.6.7c0-.3 0-.5-.2-.7-.1-.2-.3-.3-.6-.3-.5 0-.8.4-.8 1.1v4.5l.2.8.6.2c.3 0 .5 0 .6-.2.2-.2.2-.4.2-.8v-2.5l.3-1c0-.2.2-.3.3-.5l.6-.2.6.1.4.2.5-.2.2-.5c0-.3-.2-.5-.5-.7zM274.2 478c.2 0 .3-.3.3-.7a2.7 2.7 0 0 0-1.3-2.4c-.5-.2-1-.4-1.7-.4-.4 0-.9.1-1.3.3a2.7 2.7 0 0 0-1.6 1.7 4 4 0 0 0-.2 1.3c0 1 .3 1.8.8 2.4.6.6 1.4 1 2.5 1l1.2-.2.8-.5.6-.6.1-.5-.1-.4a.6.6 0 0 0-.4-.1l-.4.1a16.5 16.5 0 0 1-.9.8l-.5.2h-.5c-.3 0-.5 0-.8-.2l-.6-.6-.2-1h3.2l1-.1zm-4.2-.7c0-.5.2-1 .5-1.2.3-.3.6-.4 1-.4s.8 0 1 .4c.3.2.4.7.5 1.2zM281 478c.2 0 .3-.3.3-.7a2.7 2.7 0 0 0-1.4-2.4 3.7 3.7 0 0 0-3-.2 2.7 2.7 0 0 0-1.6 1.8 4 4 0 0 0-.2 1.3c0 1 .3 1.8.9 2.4.6.6 1.4 1 2.4 1l1.2-.2.9-.5.5-.6.2-.5c0-.1 0-.3-.2-.4a.6.6 0 0 0-.4-.1l-.3.1a20.3 20.3 0 0 1-1 .8l-.4.2h-.5c-.3 0-.6 0-.8-.2-.3-.1-.5-.3-.6-.6-.2-.3-.2-.6-.2-1h3.1l1-.1zm-4.2-.7c0-.5.2-1 .4-1.2.3-.3.6-.4 1-.4.5 0 .8 0 1 .4.3.2.5.7.5 1.2zM287 475a2.6 2.6 0 0 0-2.6-.2l-1 .8v-.1l-.1-.7a.7.7 0 0 0-.6-.3c-.2 0-.4.1-.5.3-.2.1-.2.3-.2.7v7l.1.8.6.2c.5 0 .8-.3.8-1V480c.3.4.6.7.9.8.3.2.7.3 1.2.3.3 0 .7 0 1-.2.4-.2.7-.4.9-.7l.6-1 .2-1.4a4 4 0 0 0-.4-1.7c-.2-.5-.5-1-1-1.2zm-.5 4-.6.6c-.2.2-.5.3-.7.3-.5 0-.9-.2-1.2-.6-.3-.3-.4-.8-.4-1.5 0-.6.1-1.2.4-1.5.3-.4.7-.5 1.2-.5.2 0 .5 0 .7.2l.6.7.2 1.1-.2 1.1zM289.9 474.5l-.6.3-.2.7v4.6c0 .4 0 .6.2.8l.6.2c.2 0 .4 0 .6-.2l.2-.8v-4.6c0-.3 0-.6-.2-.7a.8.8 0 0 0-.6-.3zM290 472.2c-.3 0-.5 0-.6.2l-.3.6c0 .2 0 .4.2.6l.6.2c.2 0 .4 0 .6-.2l.2-.6c0-.3 0-.5-.2-.6a.8.8 0 0 0-.6-.2zM297.3 479.6l-1.7-2.6.9-.8c.4-.4.6-.7.6-1 0-.2 0-.3-.2-.5a.7.7 0 0 0-.5-.2c-.2 0-.3 0-.4.2l-.5.5-1.9 1.9v-4c0-.3 0-.5-.2-.7a.7.7 0 0 0-.6-.3l-.6.3-.2.8v7l.2.7.6.2c.2 0 .4 0 .6-.2.2-.2.2-.4.2-.7v-1.3l1-.9 1.3 2.4.5.6.4.1c.3 0 .5 0 .6-.2l.2-.6v-.3l-.3-.4zM299.5 479.3c-.3 0-.5.1-.7.3l-.2.6c0 .3 0 .5.2.7.2.2.4.2.7.2.2 0 .4 0 .6-.2.2-.2.3-.4.3-.7l-.3-.6a.9.9 0 0 0-.6-.3zM306.8 478.4c-.1 0-.3 0-.4.2l-.3.4a2 2 0 0 1-.6.7l-.9.2-.6-.1-.5-.4-.4-.7v-.8c0-.7 0-1.2.4-1.6.3-.3.6-.5 1.1-.5.4 0 .6 0 .8.2.3.1.5.4.7.7l.3.3.3.1c.2 0 .4 0 .5-.2.2-.1.2-.3.2-.5l-.1-.6-.6-.6a3.4 3.4 0 0 0-2-.7c-.7 0-1.3.2-1.8.4-.5.3-.9.7-1.1 1.2-.3.5-.4 1.1-.4 1.8 0 1 .3 1.8.8 2.3.6.6 1.4 1 2.4 1 .5 0 .9-.1 1.3-.3.3 0 .6-.3.9-.5l.5-.6c.2-.3.2-.5.2-.7 0-.1 0-.3-.2-.5a.6.6 0 0 0-.5-.2zM313.6 475.5a3 3 0 0 0-1-.7c-.4-.2-.8-.3-1.3-.3s-1 .1-1.3.3a3 3 0 0 0-1 .6 3 3 0 0 0-.7 1 4 4 0 0 0-.2 1.4c0 .5 0 1 .2 1.4a3 3 0 0 0 1.7 1.7c.4.2.8.2 1.3.2s1 0 1.3-.2a3 3 0 0 0 1.7-1.7l.2-1.4c0-.5 0-.9-.2-1.3a3 3 0 0 0-.7-1zm-1.1 3.9c-.3.3-.7.5-1.2.5-.3 0-.6 0-.9-.2-.2-.2-.4-.4-.5-.8a3 3 0 0 1-.2-1c0-.5 0-.9.2-1.2.1-.3.3-.6.5-.7l.9-.3c.5 0 .9.2 1.2.6.2.4.4.9.4 1.5 0 .7-.2 1.2-.4 1.6zM323.6 474.8c-.3-.2-.7-.2-1.2-.2-.4 0-.7 0-1 .2a3 3 0 0 0-.9.7l-.7-.7c-.3-.2-.7-.2-1-.2-.5 0-.8 0-1.1.2-.4.1-.7.4-1 .7v-.1c0-.3 0-.5-.2-.6a.8.8 0 0 0-.5-.3l-.6.3-.2.7v4.6c0 .3 0 .6.2.8l.7.2c.2 0 .4 0 .6-.2l.2-.8V478c0-.7 0-1.2.2-1.5.2-.4.6-.6 1-.6.3 0 .5 0 .7.2l.2.6v3.5c0 .3.1.6.3.8l.6.2c.2 0 .4 0 .6-.2l.2-.8V478c0-.7 0-1.2.2-1.5 0-.2.2-.4.4-.5l.6-.2c.3 0 .5 0 .6.2l.3.5v3.6c0 .3 0 .6.2.8l.7.2c.2 0 .4 0 .6-.2l.2-.8V477c0-.6 0-1-.2-1.3-.2-.4-.4-.6-.7-.8zM245.3 477.4zM245.4 478zM245.9 479.5zM245.8 479.4v-.1zM245.5 478.5zM250.7 470.7v-.3c.3 0 .5-.3.5-.6 0-.4-.3-.7-.7-.7a.7.7 0 0 0-.1 1.3v.3c-1 .2-1.8.6-1.8.6l.2.4a8 8 0 0 1 3.6-.4v-.5s-.7-.2-1.7-.1zM245.5 473.2l-1 1.3v-.1a.6.6 0 0 0-.5-.2h-.2v-.3c0-.3-.1-.5-.4-.5-.2 0-.4.2-.4.5a.4.4 0 0 0 .5.4l.6.2h.2l.1.3c-.2.8-.2 1.7-.2 1.7h.7c0-.3 0-.9.2-1.4l.8-1.5-.1-.2zM257.3 471.8a.4.4 0 0 0-.4.5l-.2.5-.1.3h-.2a5.1 5.1 0 0 0-1.1-1l-.5.5a7.4 7.4 0 0 1 1.8 2.5l.7-.3-.7-1.4.2-.1c0-.1.2-.3.1-.5l.1-.3.3.1a.4.4 0 1 0 0-.8zM255.6 477.5a14.3 14.3 0 0 1-6.3 1.4 17.4 17.4 0 0 1-3.8-.4c0 .3.2.5.3.8v.1l.8 1c.9 1 1.8 1.2 1.8 1.2s.8.2 2 .2a9 9 0 0 0 3.6-.7c.9-.4 1.7-1 2-1.7.4-.4.6-.9.7-1.4l.1-1.1-1.2.6z" style="fill:#404040" transform="translate(0 -156)"/><path d="m252.3 471.7-.8-.1h-1l-1.6.4c-.9.3-1.6.8-2.2 1.3l-.5.6s-.4.5-.7 1.4c-.3.6-.3 1.5-.3 1.5v.7l.2.5c.4 0 3 .7 6 .3a13.6 13.6 0 0 0 5.3-2c-.2-.6-.6-1.7-1-2.3-1.3-1.8-2.7-2.2-3.4-2.3zm-3.6 5.2a1.8 1.8 0 1 1 0-3.5 1.8 1.8 0 0 1 0 3.5zm5.1-1.3a1 1 0 1 1 0-2.2 1 1 0 0 1 0 2.2z" style="fill:#404040" transform="translate(0 -156)"/></svg>