<svg xmlns="http://www.w3.org/2000/svg" width="50mm" height="50mm" viewBox="0 0 50 50"><path d="m80.955 303.758 4.721 8.344h84.733l2.342-8.344s-23.417-12.934-28.101-21.278c-4.683-8.345-63.695 21.278-63.695 21.278" style="fill:#ffd2b5" transform="matrix(.26458 0 0 .26458 -8.453 -72.122)"/><path d="m80.955 303.758 20.139-22.76 15.356 6.809z" style="fill:#d6aa92" transform="matrix(.26458 0 0 .26458 -8.453 -72.122)"/><path d="m83.708 314.455 17.385 46.463-22.883 56.405s-11.774 34.549 47.237 35.801 49.626-37.967 49.626-37.967L146.63 362.08l23.721-47.668a1.565 1.565 0 0 0-1.401-2.263l-83.61-.047a1.742 1.742 0 0 0-1.632 2.353" style="fill:#ffe2d2" transform="matrix(.26458 0 0 .26458 -8.453 -72.122)"/><path d="m85.97 398.195 82.388.411s8.92 16.133 6.609 28.701c-2.346 12.764-14.394 25.845-47.27 25.842-30.195-.003-46.448-9.917-49.261-21.35-3.101-12.61 7.534-33.604 7.534-33.604" style="fill:#410f00" transform="matrix(.26458 0 0 .26458 -8.453 -72.122)"/><path d="m85.97 398.195-2.271 5.015h86.867l-2.207-4.604z" style="fill:#6b3c32" transform="matrix(.26458 0 0 .26458 -8.453 -72.122)"/><path d="M129.214 362.139c-2.391 4.28-5.651 8.091-7.469 12.644a22.37 22.37 0 0 0-1.074 12.96c.978 4.49 3.313 8.546 5.557 12.556 4.061 7.255 7.999 14.834 8.99 23.089s-1.267 20.12-8.015 24.978c-2.771 1.995-5.302 3.694-8.303 4.483 0 0 19.225 1.634 35.565-6.492 6.35-3.158 13.442-13.165 13.442-22.188 0-9.412-2.57-18.64-7.101-26.889l-15.079-27.452c2.249-6.449 5.508-22.596 7.757-29.045l5.341-15.313c1.68-4.816 4.168-13.367 4.168-13.367-5.992.127-25.656.031-25.656.031s-1.053 37.351-8.123 50.005" style="opacity:.35;fill:#fff" transform="matrix(.26458 0 0 .26458 -8.453 -72.122)"/><path d="M93.632 340.974s30.565 3.004 66.707 0l.433.582c1.23 1.654 1.379 3.766.389 5.544l-7.924 14.234 8.437 14.198c.529.89 1.827 1.553 1.242 3.743l-1.655 1.836-15.436 1.021c-5.356.557-34.834.366-40.164-.368l-12.897-1.256-1.708-1.441c-.89-1.462-.229-3.458.616-4.941l7.03-12.325-6.446-16.301a3 3 0 0 1 .254-2.718z" style="fill:#ce9576" transform="matrix(.26458 0 0 .26458 -8.453 -72.122)"/><path d="M98.702 361.801s33.146 2.593 54.534-.466" style="fill:none;stroke:#a56825;stroke-width:3;stroke-linecap:round;stroke-miterlimit:10" transform="matrix(.26458 0 0 .26458 -8.453 -72.122)"/><path d="M117.642 361.036s-5.776-1.892-3.903 3.219M115.673 364.255s3.448 7.922 3.452 12.204" style="fill:none;stroke:#a56825;stroke-width:3;stroke-linecap:round;stroke-miterlimit:10" transform="matrix(.26458 0 0 .26458 -8.453 -72.122)"/><path d="M113.15 362.57s-8.075 6.9-11.939 14.514" style="fill:none;stroke:#a56825;stroke-width:3;stroke-linecap:round;stroke-miterlimit:10" transform="matrix(.26458 0 0 .26458 -8.453 -72.122)"/></svg>