<svg xmlns="http://www.w3.org/2000/svg" width="177.07" height="130.38"><path fill="#929497" d="M31.887 82.184c-6.469-1.735-13.735-1.227-19.008 3.109-2.234 1.836-3.29 4.133-3.441 6.473-.254 1.59-.133 3.32.39 5.12 1.98 6.79 11.434 9.481 17.836 9.985 7.59.602 15.793-2.488 17.043-10.758 1.211-8.011-5.973-12.09-12.82-13.93M104.371 95.059c-1.808-1.368-4.152-1.903-6.527-1.73-4.594.339-7.258 4.534-8.461 8.401-2.543 8.145 6.836 13.422 13.418 15.098 3.87.984 8.586 1.938 12.578 1.64 5.586-.413 10.676-5.456 10.488-11.023-.34-10.257-12.953-12.078-21.496-12.386M25.52 72.406c3.554 1.707 8.238 2.317 12.125 1.707 2.101-.332 4.14-.742 6.148-1.406 2.164.25 4.328.477 6.539.57 8.856.387 13.918-8.96 8.43-15.789-3.782-4.715-9.73-6.73-15.535-8.062-7.438-1.707-15.157-3.973-22.016.8-9.344 6.508-4.441 17.989 4.309 22.18M81.383 102.82c-2.653-2.36-6.414-2.933-9.84-3.402-3.164-.434-6.2-.758-9.348-.137-2.777.551-5.797.852-8.62 2.492-1.782 1.032-3.048 2.805-3.692 4.782-.73 1.535-.992 3.265-.535 4.98.425 1.606 1.191 2.809 2.191 3.715 1.02 1.184 2.316 2.125 3.79 2.879 3.589 1.832 7.972 2.148 11.937 2.371 6.199.352 13.351-.164 16.312-6.332a5.5 5.5 0 0 0 .55-2.715c1.243-3.183-.226-6.394-2.745-8.633"/><path fill="#929497" d="M164.457 65.336c-1.355-1.824-2.512-3.047-4.59-4.164-.527-.285-2.254-1.399-.3.074-1.747-1.312-3.497-1.969-5.641-2.45a22.2 22.2 0 0 0-4.414-.5c2.957-5.593-.39-13.265-4.578-17.991-4.649-5.242-11.852-7.895-18.864-7.328-.433-.942-1.035-1.782-1.746-2.414-3.023-2.688-8.156-2.485-10.847.597a13.7 13.7 0 0 0-1.899 2.805c-1 1.781-1.637 3.797-1.973 5.883-6.312-5.508-17.8-3.61-24.078 1.984-.66.105-1.32.273-1.976.457 1.363-1.406 2.187-3.23 2.117-5.367-.137-4.082-3.79-7.367-7.996-7.113-.43.003-.98.003-1.457.011-1.762-3.52-4.797-4.75-8.5-5.156-3.297-1.21-6.649-1.484-10.227-1.621q-.407-.017-.824-.027a16 16 0 0 0-1.18-.645c-7.523-3.625-15.691 4.992-11.261 11.973.312.496.644.96.992 1.414.597 2.164 2.144 3.996 4.273 5.25 4.137 2.437 8.203 4.765 13.063 5.523 1.633.254 3.351.2 5.062.082a26 26 0 0 0 3.348.16c1.648-.027 3.254-.3 4.867-.597-4.93 3.976-5.121 10.437-.887 15.148 2.52 2.801 7.407 3.785 10.985 4.395 3.812.648 7.367.758 11.168.058 5.957-1.09 12.347-5.976 15.136-11.718 1.66 3.199 4.633 6.043 8.196 8.105a14.5 14.5 0 0 0 3.562 2.02c2.453.945 5.254 1.41 8.114 1.441.27.008.535 0 .804-.004a11 11 0 0 0-1.14 3.07c-.496 1.051-.707 2.204-.516 3.414.332 2.047 1.086 3.68 2.156 4.989-.289.101-.574.207-.855.332-.723-3.489-2.778-6.438-6.16-8.692-2.832-1.89-6.399-2.59-9.715-3.254-1.528-.304-3.094-.511-4.637-.558-3.242-1.192-6.293-1.402-9.969-.567-3.668.836-6.543 3.758-7.98 7.176-1.328-1.12-2.945-1.98-4.715-2.531a7 7 0 0 0-1.312-.34q-.271-.02-.547-.043c-2.403.078-2.887-.039-1.461-.355-1.75-.547-3.813-.512-5.614-.575-3.984-.144-7.57.868-11.113 2.36-5.625 1.855-10.86 6.812-8.57 13.082.183.496.414.96.672 1.402l.02.121c.745 3.368 5.55 5.61 8.605 6.383 6.472 1.64 15.863 2.653 21.789-1.02 2.16-1.335 3.773-3.546 4.746-5.968 2.41 2.308 5.715 3.855 8.863 4.762 2.352.68 4.828.703 7.207 1.21 2.29.493 5.578.676 6.793.91 2.043.395 4.168.208 6.117-.433.735 5.438 4.032 9.809 8.848 12.742-1.672-1.011.32.258.547.414 1.258.864 2.5 1.703 3.84 2.434 2.39 1.297 5.023 1.824 7.73 1.926 5.555.199 9.797-3.23 12.57-7.563 3.75-5.844 2.446-12.828-1.933-17.804a17 17 0 0 0-1.047-1.07c2.117-.29 4.184-.813 6.223-1.81 3.297-1.613 4.007-4.91 3.222-7.902.649-2.129.438-4.441-1.113-6.527"/><path fill="#232020" d="M86.89 61.203c10.145 1.649 20.739-6.133 23.516-15.574 1.133-3.824 1.438-7.762-1.945-10.45-1.5-1.195-3.371-1.206-5.211-.679l-.012-.012c-2.957-2.504-8.613-2.113-12.101-1.082-5.106 1.496-12.457 3.54-16.114 7.692-7.699 8.757 2.852 18.64 11.868 20.105"/><path fill="#985614" d="M73.578 49.664c-1.375-6.437 3.797-9.316 8.684-11.621 3.922-1.852 8.125-3.64 12.465-4.035 2.507-.23 5.707-.762 7.976.66-1.82.625-3.582 1.723-4.879 2.68l.043.05c1.715-1.113 3.508-1.757 5.504-2.238 6.54-1.586 7.637 4.238 6.77 8.106-.649 2.898-1.54 5.78-3.266 8.246-4.48 6.406-15.645 10.351-23.105 7.699-4.301-1.531-9.188-4.828-10.192-9.547"/><path fill="#753600" d="M109.043 36.457c.375 1.527.18 3.176-.723 4.7-1.824 3.081-4.898 4.69-8.172 5.85-3.843 1.36-7.78 2.403-11.851 2.798-2.871.28-6.34.46-8.77-1.371-1.25-.942-1.843-2.61-.03-3.23 2.183-.747 4.519-.302 6.737-.763 2.551-.527 5.496-1.242 7.473-3.046 1.348-1.235 2.441-2.868 3.969-3.899l.168-.101-.02-.047c1.297-.957 3.059-2.055 4.88-2.68-2.27-1.422-5.47-.89-7.977-.66-4.34.394-8.543 2.183-12.465 4.035-4.887 2.305-10.059 5.184-8.684 11.621 1.004 4.719 5.89 8.016 10.192 9.547 7.46 2.652 18.625-1.293 23.105-7.7 1.727-2.464 2.617-5.347 3.266-8.245.496-2.215.347-5.07-1.098-6.809"/><path fill="#6F340A" d="M110.398 41.098c.016-1.078-.132-2.176-.5-3.141v-.008c.368.969.516 2.067.5 3.149"/><path fill="#552000" d="m94.766 59.266-.016-.016c-1.344-1.195-2.64-1.797-4.125-1.797-.68 0-1.398.125-2.18.375-.136.043-.25.117-.379.172-.441-1.008-1.336-1.656-2.468-2.043 1.761-.094 3.523-.398 5.222-.828 5.278-1.324 10.18-3.031 14.489-6.445 3.285-2.606 4.742-6.645 4.59-10.727.367.965.515 2.063.5 3.14-.012.75-.106 1.489-.258 2.169-.649 2.898-1.54 5.78-3.266 8.246a15.4 15.4 0 0 1-2.367 2.644 6.6 6.6 0 0 0-1.52-.191c-1.488 0-2.785.605-4.129 1.8-.816.727-1.402 1.684-1.804 2.778q-1.127.417-2.29.723M77.75 55.89c-1.309-1.063-2.445-2.309-3.227-3.727.915.992 2.059 1.813 3.403 2.445a14 14 0 0 0 2.59.91c-.957.075-1.903.208-2.766.372"/><path fill="#6F340A" d="M79.473 45.21h.004q.005-.003.02-.007c2.183-.746 4.519-.3 6.737-.762 2.551-.527 5.496-1.242 7.473-3.046-1.977 1.804-4.922 2.52-7.473 3.046-2.218.461-4.554.016-6.738.762zm15.066-4.645c.652-.699 1.273-1.441 1.961-2.101q.002.001.004-.004c-.688.66-1.313 1.406-1.965 2.105"/><path fill="#552000" d="M79.477 45.21c1.316-1.605 4.222-2.57 5.894-3.206 2.258-.856 4.617-1.441 6.926-2.133 1.336-.398 2.781-.851 4.203-1.406-.687.66-1.309 1.402-1.96 2.101-.27.286-.548.567-.833.829-1.977 1.804-4.922 2.52-7.473 3.046-2.218.461-4.554.016-6.738.762-.008.004-.016.004-.02.008"/><path fill="#232020" d="M79.086 44.941c2.527-1.03 5.543-.84 8.2-1.484h.015l.09-.125c.125-.008.25 0 .379 0 2.757-.734 6.351-2.297 8.289-4.23l.054.058c-.55.778-1.199 1.414-1.914 1.98q.219-.058.43-.078c.86-.05 1.824.282 2.652.141.098-.02.18.156.07.195-.609.204-1.39.122-2.035.149-.976.039-1.754.668-2.707.758l-.09-.02c-.804.477-1.652.918-2.496 1.375-1.375.735-3.085 1.278-4.625 1.528-2.113.343-4.105-.215-6.199.058-.156.016-.273-.234-.113-.305M80.379 46.242c.144.031.242.203.172.336-.125.223-1.383.973-1.074 1.281.07.067.05.23-.075.164-.78-.418.328-1.906.977-1.78M82.414 48.805c4.586.8 8.906.515 13.363-.797 2.66-.781 11.504-3.414 11.785-6.715l.06.012c.292 3.547-6.524 5.922-8.97 6.902-5.062 2.035-10.96 2.563-16.246 1.027-.23-.066-.297-.484.008-.43M76.773 44.371c.165.184.266.34.332.574.043.157-.195.157-.222.016q-.104-.253-.215-.5z"/><path fill="#BA6B31" d="m106.41 36.004-.078.039c1.004 3.5-2.402 6.848-5.129 8.441-3.332 1.946-7.316 2.758-11.101 3.157-.149.015-.2.27-.024.285 3.992.347 9.106-.824 12.332-3.274 2.387-1.816 5.66-5.375 4-8.648"/><path fill="#232020" d="M138.215 30.316c-2.336-4.828-6.942-7.007-11.738-8.652-2.399-.82-9.055-1.977-10.399 1.09-.105-.04-.195-.102-.3-.137-1.97-.633-3.43-.25-4.981 1.125-2.703 2.41-2.242 8.09-.926 10.992 2.309 5.102 6.266 7.836 11.695 8.973 5.227 1.098 9.47.07 13.68-3.234 2.82-2.223 4.61-6.77 2.969-10.157"/><path fill="#985614" d="M133.996 40.305c-1.36.754-2.523 1.722-3.973 2.363-2.386 1.043-4.847.785-7.328.367-3.738-.625-7.465-2.23-9.965-5.16-2.671-3.133-6.55-11.988-.261-14.07 3.324-1.102 6.273 2.793 8.699 4.554.246.18.504.368.762.563-.727.035-1.43.738-2.14.633l-.032.078c.469.125.91-.14 1.355-.266.496-.137.95-.14 1.395-.012 2.707 2.051 5.531 4.618 5.898 7.989l.102-.024c.094-1.976-.7-3.625-1.887-5.07-.062-.812-.156-1.52.004-2.34l-.098-.008c-.18.54-.382 1.227-.34 1.848-1.277-1.39-2.902-2.586-4.417-3.687-.098-.5.074-.852.343-1.282l-.062-.027c-.262.297-.582.672-.625 1.066-.278-.207-.563-.414-.828-.61-.133-.105-.254-.214-.38-.32l-.027-.128c-.617-.535-.5-1.703-.086-2.282l-.02-.02c-.515.403-.694.825-.73 1.474v.027c-.882-1.07-1.71-2.328-2.84-3.008 1.883-3.031 9.567-.633 11.786.067 3.219 1.02 5.875 2.984 7.941 5.585.051.797.29 1.575.336 2.391.067 1.129-.36 1.887-.89 2.813-.07.12-.008.296.14.3.832.04 1.113-.996 1.336-1.629.188-.523.121-1.156.016-1.687-.133-.691-.442-1.234-.672-1.848.113.157.238.297.344.45 2.492 3.496.8 8.878-2.856 10.91"/><path fill="#753600" d="M136.852 29.395c-.106-.153-.23-.293-.344-.45.23.614.539 1.157.672 1.848.105.531.172 1.164-.016 1.687-.223.633-.504 1.668-1.336 1.63-.148-.005-.21-.18-.14-.301.53-.926.957-1.684.89-2.813-.047-.816-.285-1.594-.336-2.39a18 18 0 0 0-1.898-2.04 8 8 0 0 1-.047.856c-.23 1.988-2.012 3.55-4.02 3.566-.894.008-1.605-.183-2.261-.797-.399-.375-.645-1.8-1.543-1.48-.407.144-.88.363-1.325.348-.468-.02-.984-.16-1.007-.735-.02-.515.187-1.031.16-1.543-.043-.758-.84-.586-1.262-.57-1.27.055-1.914-.531-1.559-1.86.192-.714-2.914-1.53-2.203-2.824-1.215.153-2.226.567-2.761 1.426 1.129.68 1.957 1.938 2.84 3.008v-.027c.035-.649.214-1.07.73-1.473l.02.02c-.415.578-.532 1.746.085 2.28l.028.13c.125.105.246.214.379.32.265.195.55.402.828.61.043-.395.363-.77.625-1.067l.062.027c-.27.43-.441.782-.343 1.282 1.515 1.101 3.14 2.296 4.418 3.687-.043-.621.16-1.309.34-1.848l.097.008c-.16.82-.066 1.527-.004 2.34 1.188 1.445 1.98 3.094 1.887 5.07l-.102.024c-.367-3.371-3.191-5.938-5.898-7.989-.445-.128-.899-.125-1.395.012-.445.125-.886.39-1.355.266l.031-.078c.711.105 1.414-.598 2.14-.633-.257-.195-.515-.383-.761-.563-2.426-1.761-5.375-5.656-8.7-4.554a5 5 0 0 0-.866.37c1.691-.105 3.468-.042 4.73 1.005.543.453.898.976.984 1.695.145 1.148-.312 3.191 1.348 3.477 1.004.168 2.29-.114 3.184.523.699.488 1.183 1.117 1.566 1.879.664 1.312-.059 2.61-1.465 2.875-4.113.77-9.687-.742-12.183-4.3a8 8 0 0 1-.52-.84c.527 2.85 2.152 5.827 3.484 7.386 2.5 2.93 6.227 4.535 9.965 5.16 2.48.418 4.942.676 7.328-.367 1.45-.64 2.614-1.61 3.973-2.363 3.656-2.032 5.348-7.414 2.856-10.91"/><path fill="#191310" d="M119.355 25.93c.028-.504.145-.871.438-1.2v.004c-.285.328-.41.692-.438 1.196"/><path fill="#552000" d="M119.355 25.96c-.882-1.07-1.71-2.327-2.84-3.007l.094-.133q.228.195.614.371c.804.364 2.375.055 2.523 1.27.008.09.027.18.047.27-.293.328-.41.695-.438 1.199v.031"/><path fill="#191310" d="M121.926 28.922h.004zm-.758-.563-.02-.011q-.002-.005-.003-.004l-.004-.004-.036-.024q0-.003-.007-.007c-.004 0-.004-.004-.008-.004q-.013-.01-.02-.02c-.007-.004-.011-.008-.02-.012q-.003 0-.007-.007h-.004q-.006-.004-.012-.008l-.011-.012q-.018-.011-.036-.027-.003.001-.007-.004a12.123 12.123 0 0 1 .195.145"/><path fill="#6F340A" d="M121.926 28.922h.004zm-.778-.574q-.002-.005-.003-.004.001-.001.003.004m-.007-.008-.036-.024zm-.051-.035q-.013-.01-.02-.02.007.01.02.02m-.04-.032q-.003 0-.007-.007c.004.004.004.007.008.007m-.012-.007q-.006-.004-.012-.008.006.004.012.008m-.023-.02q-.018-.011-.036-.027.018.017.036.027m-.043-.031c-.004-.004-.012-.012-.02-.016.008.004.016.012.02.016m-.286-.226h-.003z"/><path fill="#552000" d="M120.352 29.492c-1.25-.66-1.215-2.176-1.872-3.265a3 3 0 0 0-.273-.387c.871.73 1.7 1.52 2.477 2.148h.004q0 .005.003.004.131.106.262.207c.008.004.016.012.02.016q.004.005.007.004.018.017.036.027l.011.012q.006.004.012.008h.004c.004.004.004.007.008.007.008.004.011.008.02.012q.006.01.019.02c.004 0 .004.004.008.004q.007.003.007.007l.036.024.004.004q.001-.001.003.004l.02.011c.246.18.504.368.762.563h-.004c-.531.027-1.055.41-1.574.57M118.277 41.79c-2.117-.88-4.05-2.161-5.547-3.915-.55-.645-1.144-1.535-1.695-2.555 1.59 1.59 3.594 2.793 5.649 3.317.664.172 1.464.265 2.312.265.543 0 1.102-.039 1.652-.12-.761.726-1.425 1.5-1.96 2.323q-.224.345-.41.684"/><path fill="#191310" d="M120.5 29.574h-.004c.207-.062.41-.148.617-.207h-.008q-.01.007-.023.008l-.004.004h-.004q-.005.002-.015.004l-.141.047c-.137.047-.277.101-.418.144"/><path fill="#552000" d="M125.438 35.305q.029-.152.046-.317c.172-1.554-.964-3.086-2.16-3.93-.886-.628-1.836-1.03-2.824-1.484.14-.043.281-.097.418-.144l.14-.047q.011-.002.016-.004h.004l.004-.004q.012-.001.023-.008h.008c.258-.07.5-.105.739-.105q.333 0 .656.093c1.812 1.375 3.68 2.98 4.824 4.907q-.957.498-1.894 1.043"/><path fill="#552000" d="M127.793 34.023a9.6 9.6 0 0 0-1.172-1.773c-.035-.48-.086-.922-.086-1.371 0-.313.024-.633.09-.969l-.098-.008c-.164.493-.347 1.106-.347 1.68q.001.087.007.168c-1.277-1.39-2.902-2.586-4.417-3.687a1.3 1.3 0 0 1-.028-.274c-.004-.363.153-.66.371-1.008l-.062-.027c-.262.297-.582.672-.625 1.066-.278-.207-.563-.414-.828-.61-.133-.105-.254-.214-.38-.32l-.027-.128c-.472-.41-.511-1.188-.32-1.79.102.266.266.5.555.669a1 1 0 0 0 .457.105h.057999999999999996c.848 0 1.157.649 1.336 1.352.141.55.371 1.07.84 1.425.645.493 1.281.73 2.086.829q.093.01.18.011c.164 0 .328-.023.484-.05.156-.024.305-.047.445-.047.418 0 .743.222.868 1.336.054.464.093.882.199 1.34.148.683.469 1.288.734 1.917-.105.055-.215.11-.32.164M137.055 30.305c-.14-.434-.332-.82-.5-1.239l.015-.035c.098.121.196.242.282.364q.292.416.507.855c-.101.02-.203.035-.304.055"/><path fill="#232020" d="M124.793 35.879c-2.941.508-5.773-.535-8.36-1.797-2.992-1.46-5.863-2.586-6.683-6.16l-.02.008c.196 3.133 1.82 4.816 4.575 6.191 3.086 1.543 7.062 3.45 10.55 2.149.196-.083.188-.434-.062-.391"/><path fill="#232020" d="M132.531 58.238c9.7.14 18.516-8.59 19.813-17.785.523-3.73.265-7.45-3.262-9.488-1.566-.906-3.312-.66-4.965.086l-.004-.016c-3.11-1.926-8.336-.777-11.449.664-4.566 2.102-11.14 5.024-13.976 9.406-5.985 9.235 5.222 17.008 13.843 17.133"/><path fill="#985614" d="M118.512 49.297c-2.168-5.817 2.258-9.215 6.508-12.047 3.406-2.27 7.082-4.52 11.074-5.484 2.312-.567 5.226-1.496 7.543-.485-1.617.836-3.11 2.102-4.188 3.176l.047.043c1.45-1.273 3.035-2.125 4.828-2.852 5.89-2.378 7.719 2.899 7.442 6.637-.207 2.793-.645 5.613-1.91 8.145-3.305 6.601-13.18 11.824-20.512 10.375-4.227-.836-9.239-3.246-10.832-7.508"/><path fill="#753600" d="M149.16 31.61c.66.917.988 2.054.887 3.304-.195 2.473-1.367 4.395-3.27 5.95-2.386 1.94-5.468 3.14-8.27 4.359-3.03 1.32-6.472 2.175-9.792 2.156h-.371c-1.633.008-5.39.016-6-1.54-1.063-2.71 4.504-2.487 5.789-2.788 3.84-.903 8.3-3.739 10.55-7.016.657-.953 1.266-1.86 2.153-2.57q-.69.467-1.34 1.035l-.047-.043c1.078-1.074 2.57-2.34 4.188-3.176-2.317-1.011-5.23-.082-7.543.485-3.992.964-7.668 3.214-11.074 5.484-4.25 2.832-8.676 6.23-6.508 12.047 1.593 4.262 6.605 6.672 10.832 7.508 7.332 1.449 17.207-3.774 20.511-10.375 1.266-2.532 1.704-5.352 1.91-8.145.176-2.402-.519-5.441-2.605-6.676"/><path fill="#191310" d="M139.887 34.035a19.5 19.5 0 0 1 2.242-1.836q.013-.005.031-.015a20 20 0 0 0-2.273 1.851"/><path fill="#6F340A" d="M123.543 43.777c1.496-.554 3.816-.547 4.59-.726 3.84-.903 8.3-3.739 10.55-7.016.657-.953 1.266-1.86 2.153-2.57-.887.71-1.496 1.617-2.152 2.57-2.25 3.278-6.711 6.113-10.551 7.016-.774.18-3.094.172-4.59.726"/><path fill="#552000" d="M123.543 43.777c.894-1.34 3.234-2.168 4.445-2.71 1.93-.868 3.836-1.91 5.563-3.137 1.77-1.254 3.328-2.774 5.129-3.996 1.074-.727 2.285-1.184 3.449-1.735a19.5 19.5 0 0 0-2.242 1.836q-.228.217-.438.422l.047.043q.65-.568 1.34-1.035c-.887.71-1.496 1.617-2.152 2.57-2.25 3.278-6.711 6.113-10.551 7.016-.774.18-3.094.172-4.59.726"/><path fill="#191310" d="M129.344 56.805c-.176-.035-.356-.07-.535-.114q.27.063.535.114"/><path fill="#6F340A" d="M151.469 35.027"/><path fill="#552000" d="M130.074 56.926a9 9 0 0 1-.73-.121c-.176-.035-.356-.07-.535-.114-3.996-.902-8.512-3.187-10.16-7.074 1.253 1.543 2.972 2.727 4.835 3.48a14.5 14.5 0 0 0 5.504 1.067q.183.001.371-.004a22 22 0 0 0 .715 2.766m20.531-12.293c-.527-.156-1.039-.305-1.527-.45-.207-.062-.422-.117-.644-.175 1.89-2.598 3.043-6.207 2.879-9.5.054.172.109.344.156.52a10.1 10.1 0 0 1 .297 3.257c-.16 2.149-.457 4.313-1.16 6.348"/><path fill="#232020" d="M123.004 44.129c2.215-1.309 5.058-1.55 7.45-2.512h.015l.066-.133c.117-.027.235-.035.352-.054 2.472-1.07 5.613-3.024 7.156-5.09l.059.047c-.407.8-.926 1.48-1.512 2.11.129-.052.262-.106.39-.126.797-.176 1.739.008 2.493-.246.09-.027.187.121.093.176-.543.277-1.285.308-1.879.422-.906.172-1.542.863-2.421 1.082l-.082-.008c-.692.562-1.418 1.086-2.145 1.625-1.184.883-2.707 1.617-4.11 2.07-1.925.61-3.859.363-5.784.906-.137.036-.282-.18-.141-.27M124.395 45.168c.136.008.242.156.199.285-.086.23-1.153 1.102-.82 1.34.074.059.074.21-.047.168-.793-.273.039-1.82.668-1.793M126.64 47.277c4.395.118 8.387-.75 12.368-2.582 2.379-1.101 10.27-4.777 10.078-7.894h.055c.761 3.27-5.278 6.422-7.418 7.683-4.45 2.594-9.883 3.903-15.028 3.196-.222-.032-.343-.41-.054-.403M120.766 43.918c.18.148.296.281.39.488.063.14-.16.176-.203.047-.098-.144-.183-.297-.273-.437z"/><path fill="#BA6B31" d="m147.324 32.137-.117.054c2.04 8.38-9.125 11.942-15.297 13.325-.219.05-.148.379.063.379 4.351-.016 8.695-2.141 12.074-4.747 2.633-2.035 5.18-5.605 3.277-9.011M132.352 26.04c-1.141-1.524-3.317-2.298-5.055-2.856-2.145-.704-4.516-1.22-6.766-1.145l-.004.05c2.024.384 3.985.876 5.938 1.571 1.98.707 3.726 1.89 5.668 2.621.133.051.328-.097.219-.242M119.234 34.527c-3.203-1.941-11.078-4.46-7.82-9.55l-.035-.036c-1.758 1.125-.965 4.122.133 5.399 1.054 1.234 2.254 1.812 3.644 2.582 1.293.71 2.606 1.351 4.031 1.73z"/><path fill="#232020" d="M46.176 76.934C42.46 72.71 34.98 70.625 29.78 69.098c-3.55-1.047-9.312-1.442-12.32 1.105l-.004.012c-1.879-.535-3.785-.524-5.312.691-3.442 2.735-3.125 6.742-1.977 10.637 2.828 9.61 13.61 17.531 23.934 15.852 9.18-1.489 19.914-11.547 12.074-20.461"/><path fill="#985614" d="M37.277 95.371c-7.593 2.695-18.957-1.316-23.52-7.844-1.753-2.504-2.66-5.441-3.32-8.386-.882-3.942.231-9.868 6.891-8.254 2.031.488 3.856 1.148 5.602 2.273l.043-.043c-1.317-.976-3.11-2.097-4.965-2.73 2.308-1.45 5.562-.91 8.117-.676 4.414.41 8.691 2.223 12.688 4.11 4.972 2.35 10.238 5.277 8.84 11.827-1.02 4.797-5.993 8.16-10.376 9.723"/><path fill="#753600" d="M38.813 73.82c-3.997-1.886-8.274-3.699-12.688-4.11-2.555-.233-5.809-.772-8.117.677 1.855.633 3.648 1.754 4.965 2.73l-.043.043a12 12 0 0 0-.766-.457c.781.606 1.508 1.336 2.203 2.047 2.766 2.836 6.367 4.828 10.297 5.465 1.625.265 3.094.144 4.715.21.937.04 2.117.075 2.894.684 1.766 1.387-.128 2.985-1.586 3.434-7.148 2.219-14.761.816-21.445-2.266-3.02-1.39-6.785-3.535-7.793-6.976-.265-.91-.379-1.84-.18-2.715-1.207 1.789-1.3 4.453-.832 6.555.66 2.945 1.567 5.882 3.32 8.386 4.563 6.528 15.927 10.54 23.52 7.844 4.383-1.562 9.356-4.926 10.375-9.723 1.399-6.55-3.867-9.476-8.84-11.828"/><path fill="#6F340A" d="M41.27 80.64c-.618-.167-1.301-.19-1.891-.214-1.621-.067-3.09.054-4.715-.211-3.93-.637-7.531-2.63-10.297-5.465-.695-.71-1.422-1.441-2.203-2.047.781.606 1.508 1.336 2.203 2.047 2.766 2.836 6.367 4.828 10.297 5.465 1.625.265 3.094.144 4.715.21.586.024 1.27.048 1.887.212z"/><path fill="#552000" d="M41.266 80.637c-.618-.164-1.301-.188-1.887-.211-1.621-.067-3.09.054-4.715-.211-3.93-.637-7.531-2.63-10.297-5.465-.695-.71-1.422-1.441-2.203-2.047.262.145.516.293.766.457l.043-.043c-1.317-.976-3.11-2.097-4.965-2.73l.047-.024c1.074.453 2.285.606 3.402.91 2.023.551 3.961 1.348 5.813 2.325 2.105 1.109 4.058 2.523 6.277 3.414.777.312 5.402 2.035 7.719 3.625M31.95 96.223c-6.845 0-14.61-3.575-18.192-8.696-1.754-2.504-2.66-5.441-3.32-8.386a11 11 0 0 1-.239-1.72c.625 1.981 1.797 3.868 3.074 5.407 1.551 1.867 3.422 3.125 5.594 4.145 3.008 1.41 6.067 2.703 9.293 3.511 1.887.477 3.774.672 5.676.672 1.27 0 2.547-.09 3.832-.242 2.703-.316 5.785-.789 7.969-2.555a9.8 9.8 0 0 0 1.8-1.91c-1.374 4.375-6.03 7.446-10.16 8.922-1.636.582-3.445.852-5.328.852"/><path fill="#232020" d="M42.043 80.844c-2.57-1.051-5.64-.86-8.344-1.508h-.02l-.085-.125c-.13-.02-.262-.008-.387-.008-2.805-.746-6.465-2.34-8.437-4.297l-.055.047c.558.797 1.219 1.445 1.945 2.016-.144-.031-.289-.063-.433-.07-.88-.055-1.856.28-2.7.136-.101-.02-.18.164-.07.2.613.21 1.418.124 2.066.148.997.043 1.786.683 2.758.781l.09-.023c.824.492 1.68.933 2.54 1.394 1.401.754 3.144 1.305 4.71 1.559 2.156.351 4.172-.223 6.313.058.156.02.27-.242.109-.308M40.727 82.172c-.145.031-.243.2-.164.336.124.226 1.398.992 1.085 1.305-.07.066-.05.234.075.167.797-.425-.332-1.94-.996-1.808M38.66 84.773c-4.672.825-9.07.524-13.601-.808-2.711-.8-11.711-3.473-12-6.836l-.059.016c-.3 3.613 6.645 6.02 9.133 7.023 5.148 2.07 11.152 2.602 16.531 1.043.238-.063.305-.492-.004-.438M44.398 80.258c-.164.191-.27.347-.336.586-.046.168.196.164.227.02l.219-.516z"/><path fill="#BA6B31" d="M35.457 84.328c-4.539-.043-9.027-.61-13.191-2.543-1.817-.84-3.59-1.75-5.297-2.785-1.328-.8-2.309-1.828-3.184-3.094-.414-.601-.637-1.172-.676-1.91-.093-1.766 1.352-2.351 2.758-2.613l.004-.078c-2.008-.27-3.629 1.644-3.113 3.64.71 2.73 3.437 4.871 5.898 5.996 3.012 1.368 5.723 2.91 9.04 3.434 2.5.39 5.3.723 7.78.07z"/><path fill="#232020" d="M81.758 21.922c-2.957-6.121-8.793-8.89-14.88-10.973-3.034-1.035-11.472-2.504-13.175 1.387-.125-.055-.242-.125-.379-.172-2.496-.8-4.347-.316-6.308 1.43-3.43 3.047-2.84 10.246-1.176 13.926 2.926 6.46 7.945 9.93 14.816 11.367 6.63 1.39 12.004.09 17.344-4.098 3.57-2.805 5.832-8.578 3.758-12.867"/><path fill="#985614" d="M76.414 34.574c-1.723.957-3.2 2.184-5.039 2.992-3.016 1.329-6.14.996-9.281.465-4.739-.793-9.461-2.82-12.63-6.535-3.386-3.976-8.308-15.195-.331-17.832 4.207-1.394 7.953 3.54 11.02 5.77.316.238.644.468.968.718-.914.04-1.812.934-2.715.801l-.035.102c.59.156 1.145-.176 1.715-.336.633-.18 1.207-.188 1.773-.016 3.426 2.602 7.004 5.852 7.473 10.117l.125-.023c.117-2.504-.883-4.602-2.394-6.426-.075-1.027-.196-1.93.011-2.965.02-.097-.101-.082-.133-.008-.23.68-.476 1.547-.425 2.34-1.621-1.761-3.68-3.277-5.602-4.68-.121-.628.098-1.074.445-1.609l-.082-.05c-.336.378-.742.855-.789 1.351-.363-.262-.715-.516-1.058-.77-.164-.12-.32-.27-.473-.406l-.043-.168c-.777-.672-.625-2.152-.102-2.883l-.027-.027c-.652.52-.883 1.05-.93 1.871l.008.031c-1.125-1.351-2.172-2.949-3.601-3.808 2.386-3.848 12.12-.809 14.93.082 4.078 1.293 7.453 3.785 10.066 7.078.066 1.016.367 1.996.43 3.031.082 1.434-.461 2.39-1.133 3.563-.086.144-.012.375.18.383 1.05.046 1.41-1.258 1.69-2.063.24-.668.153-1.465.02-2.137-.168-.879-.558-1.562-.851-2.343.144.195.297.375.441.57 3.156 4.43 1.012 11.246-3.62 13.82"/><path fill="#753600" d="M80.129 20.91c.098.402.168.809.215 1.211.035.137.074.266.101.406.133.672.22 1.47-.02 2.137-.16.45-.343 1.05-.66 1.488-.5 1.38-1.328 2.672-2.6 3.301-2.032 1.012-4.563.215-5.653-1.789-.617-1.129.043-4.2-1.489-4.508-.566-.113-1.53-.136-1.828-.765-.543-1.153.16-3.746-2.039-3.141-.742.2-2.047.313-2.297-.719-.168-.683.067-1.062.164-1.738.133-.95-.628-.914-1.277-.883-.273.016-.531.027-.687-.035-.637-.254-1.098-.531-1.063-1.285.102-2.043-1.809-1.164-2.531-2.402-.285-.485-.168-1.016.094-1.481-1.895.09-3.508.605-4.297 1.883 1.43.86 2.476 2.457 3.601 3.808l-.008-.03c.047-.821.278-1.352.93-1.872l.028.027c-.524.73-.676 2.211.101 2.883l.043.168c.152.137.309.285.473.406q.514.379 1.058.77c.047-.496.453-.973.79-1.352l.081.051c-.347.535-.566.98-.445 1.61 1.922 1.402 3.98 2.918 5.602 4.68-.051-.794.195-1.66.425-2.34.032-.075.153-.09.133.007-.207 1.035-.086 1.938-.011 2.965 1.511 1.824 2.511 3.922 2.394 6.426l-.125.023c-.469-4.265-4.047-7.515-7.473-10.117-.566-.172-1.14-.164-1.773.016-.57.16-1.125.492-1.715.336l.035-.102c.903.133 1.801-.762 2.715-.8-.324-.25-.652-.481-.969-.72-2.734-1.988-6.007-6.12-9.664-6.007 2.617.535 5.067 1.922 5.996 4.222.45 1.114.063 3.165 1.016 3.91 1.207.954 3.043.7 4.45 1.208 1.874.668 4.581 2.879 4.12 5.125-.488 2.39-5.047 2.152-6.652 1.82-3.32-.684-6.824-2.473-9.637-4.344-2.484-1.648-4.738-4.387-4.597-7.555.007-.171.035-.34.054-.511-1.562 4.465 1.742 11.277 4.227 14.195 3.168 3.715 7.89 5.742 12.629 6.535 3.14.532 6.265.864 9.281-.465 1.84-.808 3.316-2.035 5.04-2.992 4.577-2.547 6.722-9.234 3.714-13.664"/><path fill="#191310" d="M69.453 30.281c-.031-1.828-.644-3.437-1.617-4.883.965 1.43 1.59 3.02 1.629 4.829z"/><path fill="#552000" d="M69.465 30.227c-.04-1.809-.664-3.399-1.63-4.829a13 13 0 0 0-.772-1.027c-.043-.601-.102-1.16-.102-1.73 0-.399.027-.805.113-1.235v-.02c0-.034-.02-.046-.043-.046h-.004a.1.1 0 0 0-.086.058c-.207.618-.43 1.387-.433 2.118q.001.111.008.222c-1.621-1.761-3.68-3.277-5.602-4.68a1.7 1.7 0 0 1-.035-.335c0-.461.2-.84.48-1.274l-.082-.05c-.336.378-.742.855-.789 1.351-.363-.262-.715-.516-1.058-.77-.164-.12-.32-.27-.473-.406l-.043-.168c-.383-.328-.539-.851-.539-1.386 0-.555.172-1.122.438-1.497v-.007c.41.168.75.441.917.949.22.648.442.894 1.125 1.117 1.59.508 1.262 1.57 2.028 2.648.34.477 1.015.918 1.57 1.082.723.215 1.465.325 2.16.633.895.403 1.043 1.532 1.262 2.336.305 1.13 1.23 1.907 1.52 3.051.238.961.335 2.684.07 3.895"/><path fill="#191310" d="M57.855 16.367c.043-.738.23-1.242.743-1.715-.512.473-.7.98-.743 1.715"/><path fill="#552000" d="M57.863 16.398c-1.125-1.351-2.172-2.949-3.601-3.808l.043-.059c.652.559 1.273 1.09 2.074 1.446.668.289 1.648.238 2.398.523q-.091.076-.18.152c-.511.473-.699.977-.742 1.715z"/><path fill="#191310" d="M62.137 38.04q-.02-.002-.043-.009c-4.739-.793-9.461-2.82-12.63-6.535a16 16 0 0 1-.855-1.113q.437.622.848 1.11c.004 0 .004.003.008.003 3.168 3.715 7.89 5.742 12.629 6.535a.2.2 0 0 0 .043.008"/><path fill="#6F340A" d="M49.465 31.496c-.004 0-.004-.004-.008-.004.004 0 .004.004.008.004m-.856-1.113q-.24-.341-.48-.723a18.323 18.323 0 0 0 .48.723"/><path fill="#552000" d="M66.617 38.5c-1.484 0-2.98-.207-4.48-.46q-.02-.002-.043-.009c-4.739-.793-9.461-2.82-12.63-6.535q-.003-.002-.007-.004a15 15 0 0 1-.848-1.11 18 18 0 0 1-.664-1.015 24 24 0 0 1-2.09-4.332c.649 1.035 1.438 2.012 2.258 2.895 3.594 3.86 8.278 5.906 13.23 7.465 1.489.468 3.028.687 4.567.687 3.836 0 7.684-1.36 10.8-3.574a10 10 0 0 0 3.556-4.48c.757-1.876.671-3.973.48-6 2.016 4.37-.125 10.206-4.332 12.546-1.723.957-3.2 2.184-5.039 2.992-1.559.692-3.152.93-4.758.934"/><path fill="#232020" d="M64.754 28.96c-3.727.65-7.32-.667-10.594-2.269-3.793-1.855-7.433-3.285-8.469-7.808l-.023.008c.242 3.976 2.305 6.101 5.793 7.847 3.91 1.953 8.95 4.375 13.363 2.719.25-.098.246-.547-.07-.496"/><path fill="#BA6B31" d="M77.68 19.48c-1.004-1.957-2.5-3.144-4.254-4.402-1.614-1.152-3.547-1.66-5.403-2.285-1.082-.363-2.234-.477-3.347-.719-1.07-.23-2.09-.476-3.184-.437l-.008.09c3.442 1.011 6.836 1.949 10.149 3.39 3.515 1.528 6.875 5.805 6.906 9.68.004.285.406.285.477.031.53-1.902-.493-3.703-1.336-5.348M60.457 27.29c-1.41-.606-2.926-.981-4.375-1.509-1.715-.629-3.191-1.672-4.562-2.87-1.387-1.216-2.66-2.782-3.16-4.583-.317-1.133-.31-2.336.449-3.277.289-.367.683-.61.984-.953l-.094-.118c-.953.68-1.719 1.192-2.011 2.415-.43 1.82.417 3.656 1.414 5.105 2.554 3.723 6.886 5.617 11.226 6.156.2.028.344-.273.129-.367"/><path fill="#232020" d="M133.602 64.102c-2.961-6.125-8.79-8.891-14.875-10.973-3.036-1.04-11.473-2.508-13.184 1.383-.125-.055-.242-.13-.375-.172-2.496-.8-4.356-.317-6.309 1.426-3.43 3.054-2.843 10.25-1.175 13.93 2.925 6.46 7.941 9.933 14.82 11.37 6.621 1.391 11.996.09 17.34-4.101 3.566-2.805 5.832-8.578 3.758-12.863"/><path fill="#985614" d="M128.258 76.754c-1.723.957-3.203 2.183-5.04 2.988-3.015 1.336-6.14.996-9.277.473-4.75-.797-9.464-2.824-12.636-6.54-3.387-3.976-8.301-15.195-.332-17.835 4.215-1.39 7.957 3.543 11.027 5.773.313.235.64.469.965.715-.918.043-1.813.93-2.711.8l-.04.102c.587.153 1.15-.175 1.716-.335.632-.176 1.207-.184 1.765-.016 3.434 2.605 7.008 5.851 7.48 10.121l.126-.027c.113-2.508-.887-4.598-2.395-6.422-.074-1.031-.195-1.93.016-2.965.012-.098-.106-.082-.133-.012-.234.688-.484 1.555-.434 2.34-1.617-1.758-3.675-3.277-5.601-4.676-.113-.633.101-1.074.441-1.617l-.074-.047c-.332.383-.742.856-.793 1.352-.36-.258-.715-.512-1.055-.77-.168-.125-.32-.27-.472-.402l-.043-.168c-.778-.676-.63-2.152-.106-2.883l-.027-.031c-.648.52-.879 1.05-.926 1.875v.031c-1.117-1.355-2.16-2.95-3.601-3.808 2.394-3.848 12.12-.81 14.937.078 4.078 1.293 7.453 3.789 10.067 7.082.066 1.011.359 1.992.425 3.027.082 1.434-.457 2.39-1.132 3.563-.079.148-.008.375.183.382 1.05.051 1.41-1.254 1.695-2.062.23-.668.145-1.461.016-2.137-.164-.875-.555-1.566-.851-2.34.14.188.296.371.44.57 3.157 4.426 1.009 11.247-3.62 13.82"/><path fill="#753600" d="M131.879 62.934c-.145-.2-.3-.383-.441-.57.296.773.687 1.464.851 2.34.129.675.215 1.468-.016 2.136-.12.336-.253.758-.445 1.137-.375 1.171-.996 2.257-1.668 3.335-1.992 3.188-5.488 6.524-9.36 7.098-1.218.18-2.91.25-3.831-.77-.692-.773-1.203-2.038-.266-2.874 1.36-1.215 3.344-.805 4.848-1.465.547-.922.715-2.18.726-3.14.008-1.032-.187-1.638-.863-2.438-.176-.203-.43-.453-.48-.739-.235-1.296.8-2.363 1.207-3.52.656-1.882-1.114-1.573-2.73-1.269-.852.164-1.661.325-2.052.168-1.57-.625-.789-2.14-.601-3.34.222-1.46-2.832-.511-3.445-1.128-.77-.766-.477-1.985-1.747-2.348-.902-.262-2.574-1.031-1.832-2.27.079-.132.176-.25.266-.37-1.719.144-3.16.671-3.902 1.863 1.441.859 2.484 2.453 3.601 3.808v-.031c.047-.824.278-1.356.926-1.875l.027.031c-.523.73-.672 2.207.106 2.883l.043.168c.152.133.304.277.472.402.34.258.696.512 1.055.77.05-.496.461-.969.793-1.352l.074.047c-.34.543-.554.984-.441 1.617 1.926 1.399 3.984 2.918 5.601 4.676-.05-.785.2-1.652.434-2.34.027-.07.145-.086.133.012-.211 1.035-.09 1.934-.016 2.965 1.508 1.824 2.508 3.914 2.395 6.422l-.125.027c-.473-4.27-4.047-7.516-7.48-10.121-.56-.168-1.133-.16-1.766.016-.567.16-1.13.488-1.715.335l.039-.101c.898.129 1.793-.758 2.71-.8-.323-.247-.651-.481-.964-.716-2.031-1.472-4.348-4.12-6.898-5.351l.148.113c1.191 1.008 2.645 2.672 2.816 4.293.067.64-.445 1.879-.144 2.414.308.547.805.902 1.39 1.11 1.739.62 4.45.41 5.813 1.808 1.195 1.227.66 3.332-.582 4.328-1.629 1.305-4.332.55-6.066-.086-2.41-.887-4.774-2.105-6.829-3.648-2.136-1.602-4.543-4.504-4.222-7.38q.05-.427.172-.831c-2.657 4.36 1.007 12.125 3.707 15.293 3.172 3.715 7.886 5.742 12.636 6.539 3.137.523 6.262.863 9.278-.473 1.836-.805 3.316-2.031 5.039-2.988 4.629-2.574 6.777-9.395 3.62-13.82"/><path fill="#191310" d="M118.355 65.914a4 4 0 0 1-.007-.215c0-.613.164-1.265.343-1.832-.195.63-.379 1.367-.336 2.047m-6.027-4.988c-.36-.258-.715-.512-1.055-.77-.168-.125-.32-.27-.472-.402l-.043-.168c-.52-.45-.625-1.25-.485-1.953a3 3 0 0 0-.054.558c-.004.536.156 1.063.539 1.395l.043.168c.152.133.304.277.472.402.34.258.696.512 1.055.77.05-.496.461-.969.793-1.352l.074.047-.074-.047c-.332.383-.742.856-.793 1.352"/><path fill="#552000" d="M118.355 65.914c-1.617-1.758-3.675-3.277-5.601-4.676a2 2 0 0 1-.031-.332c0-.465.195-.84.472-1.285l-.074-.047c-.332.383-.742.856-.793 1.352-.36-.258-.715-.512-1.055-.77-.168-.125-.32-.27-.472-.402l-.043-.168c-.383-.332-.543-.86-.54-1.395q.001-.282.055-.558c.04-.207.106-.403.184-.578.445.375.715.86 1.035 1.437.758 1.36 2.375.703 3.172 1.871.496.727.465 1.809 1.293 2.336.527.336 1.023.461 1.652.547.5.07.86.25 1.121.508-.011.039-.027.074-.039.113-.18.567-.343 1.219-.343 1.832q.001.11.007.215"/><path fill="#191310" d="M121.258 71.777c-.172-1.746-.887-3.28-1.91-4.664 1.011 1.36 1.726 2.867 1.914 4.575q.001.044-.004.09"/><path fill="#552000" d="M121.262 71.688c-.188-1.708-.903-3.215-1.914-4.575q-.216-.287-.442-.562c-.066-.914-.156-1.73-.031-2.625.305.406.422.957.41 1.605-.02 1.215 1.067 2.324 1.45 3.422.257.762.53 1.785.527 2.734"/><path fill="#191310" d="M110.434 60.336a80 80 0 0 1-.664-.586v-.004q.334.304.664.59"/><path fill="#6F340A" d="M110.906 60.746a57 57 0 0 1-1.129-.988l-.007-.008a80 80 0 0 0 1.136.996"/><path fill="#552000" d="M111.469 62.852a1.54 1.54 0 0 1-.524-.747c-.257-.796-.515-1.437-1-2.128l-.168-.22q.576.519 1.13.99c.37.316.734.612 1.093.866.313.235.64.469.965.715-.504.024-1 .3-1.496.524"/><path fill="#191310" d="M114.82 63.758"/><path fill="#552000" d="M120.613 70.781c-.64-1.191-1.488-2.289-2.39-3.328-1.285-1.484-2.805-3.203-4.762-3.707-.582-.281-1.273-.426-1.805-.762l.274-.09q.49-.136.941-.136.421 0 .824.12c.375.286.754.579 1.125.88 2.426 1.949 4.739 4.25 5.793 7.023M118.457 80.676c-1.496 0-3.004-.207-4.516-.461-4.75-.797-9.464-2.824-12.636-6.54-1.457-1.706-3.192-4.753-4.063-7.882-.047-1.172-.219-2.328-.555-3.375-.039-1.219.13-2.375.579-3.39-.516 1.597-.024 3.449.37 5.046.684 2.742 2.06 4.91 4.024 6.903 3.75 3.808 9.082 6.796 14.219 8.214.926.254 1.851.371 2.777.371 2.617 0 5.207-.921 7.574-2.234a7 7 0 0 0-.503 1.012c-.797.515-1.61 1.012-2.508 1.402-1.563.692-3.156.934-4.762.934m12.09-6.274q.259-.208.512-.418c.234-.195.453-.398.668-.601q-.323.521-.704.996a6 6 0 0 0-.476.023"/><path fill="#191310" d="M109.79 57.906c.093-.367.257-.672.53-.957h.004c-.273.285-.441.59-.535.957m-3.687-3.144.128-.188a1.4 1.4 0 0 0-.117.176c-.004 0-.004.004-.004.004-.004 0-.004.004-.004.004s0 .004-.003.004"/><path fill="#6F340A" d="M106.102 54.762c.003 0 .003-.004.003-.004s0 .004-.003.004m.007-.008s0-.004.004-.004c-.004 0-.004.004-.004.004m.004-.004q.053-.093.117-.176.035-.046.075-.094a3 3 0 0 0-.192.27m.192-.273q.002.001.004-.004c0 .004-.004.004-.004.004"/><path fill="#552000" d="M109.7 58.578c-1.118-1.355-2.16-2.95-3.602-3.808.004-.004.004-.004.004-.008.003 0 .003-.004.003-.004s0-.004.004-.004c0 0 0-.004.004-.004a3 3 0 0 1 .192-.27v-.003q.002.001.004-.004c.539-.676 1.343-1.098 2.308-1.34-.64.902-.781 2.031.246 2.965.282.254.66.41 1 .57.176.086.325.18.457.281-.273.285-.437.59-.53.957q-.077.292-.09.64z"/><path fill="#232020" d="M116.598 71.14c-3.735.65-7.325-.675-10.594-2.273-3.79-1.855-7.43-3.277-8.477-7.808l-.02.011c.247 3.973 2.305 6.102 5.798 7.848 3.906 1.953 8.949 4.371 13.363 2.715.25-.098.242-.547-.07-.492"/><path fill="#BA6B31" d="M109.285 68.895c-2.62-1.54-5.402-2.442-7.855-4.325-1.43-1.093-1.86-2.578-2.11-4.297-.101-.683.121-1.851.368-2.496.273-.715 1.117-.996 1.582-1.566l-.032-.05c-1.332.425-2.129.76-2.488 2.23-.395 1.593-.242 3.414.469 4.914.781 1.648 2.527 2.586 3.972 3.582 1.75 1.207 3.895 1.968 5.957 2.386.227.047.332-.265.137-.378M129.68 62.574c-.715-2.004-1.93-3.176-3.637-4.355-1.816-1.258-4.047-1.98-6.04-2.918-2.37-1.11-4.827-1.344-7.362-1.84l-.02.09c2.016.57 4.102.976 6.02 1.855 1.734.785 3.375 1.774 5.097 2.578 1.477.696 3.285 1.758 4.149 3.196 1.23 2.058 1.652 4.183 1.316 6.55-.043.317.375.48.531.184.903-1.703.57-3.594-.054-5.34"/><path fill="#232020" d="M63.77 80.453c5.335 4.188 10.71 5.488 17.34 4.102 6.874-1.438 11.894-4.91 14.816-11.368C97.59 69.505 98.18 62.31 94.75 59.25c-1.957-1.742-3.812-2.223-6.305-1.422-.136.043-.25.117-.379.172-1.707-3.89-10.144-2.426-13.18-1.383-6.081 2.078-11.921 4.848-14.882 10.969-2.07 4.289.195 10.059 3.766 12.867"/><path fill="#985614" d="M61.738 66.418c.137-.2.29-.379.434-.57-.297.78-.68 1.468-.852 2.34-.129.675-.215 1.476.02 2.14.285.805.64 2.113 1.695 2.063.184-.004.266-.235.18-.383-.676-1.172-1.215-2.13-1.13-3.567.056-1.03.364-2.011.427-3.027 2.617-3.297 5.988-5.785 10.07-7.078 2.805-.89 12.54-3.93 14.926-.082-1.434.863-2.485 2.457-3.598 3.809v-.028c-.043-.82-.27-1.355-.926-1.875l-.03.028c.526.73.675 2.21-.106 2.886l-.04.164c-.148.137-.304.285-.468.407l-1.059.77c-.05-.497-.457-.978-.793-1.356l-.078.05c.344.54.567.98.442 1.618-1.918 1.394-3.985 2.914-5.598 4.671.05-.785-.203-1.652-.43-2.335-.023-.07-.148-.094-.129.007.203 1.04.086 1.934.008 2.965-1.512 1.828-2.508 3.918-2.394 6.426l.125.027c.472-4.27 4.05-7.523 7.476-10.125.57-.164 1.14-.156 1.774.016.57.164 1.12.496 1.71.34l-.035-.098c-.902.125-1.796-.762-2.714-.8.324-.255.656-.489.972-.72 3.067-2.234 6.813-7.167 11.02-5.773 7.972 2.637 3.054 13.86-.332 17.832-3.164 3.719-7.895 5.746-12.637 6.54-3.14.527-6.254.862-9.277-.47-1.836-.804-3.317-2.035-5.04-2.992-4.628-2.574-6.777-9.39-3.613-13.82"/><path fill="#753600" d="M95.758 67.305c-1.153 1.488-2.645 2.582-4.2 3.632-1.62 1.098-3.226 2.231-5.007 3.06-2.903 1.347-6.438 2.378-9.281.355-2.008-1.43-.192-3.579 1.308-4.48.988-.599 2.106-1.134 3.27-1.278 1.351-.172 3.37-.172 4.355-1.297 1.824-2.09.547-5.574 3.45-6.926a9.2 9.2 0 0 1 3.445-.863c-.157-.063-.301-.125-.461-.18-4.207-1.394-7.953 3.54-11.02 5.774-.316.23-.648.464-.972.718.918.04 1.812.926 2.714.801l.036.098c-.59.156-1.141-.176-1.711-.34-.633-.172-1.204-.18-1.774-.016-3.426 2.602-7.004 5.856-7.476 10.125l-.125-.027c-.114-2.508.882-4.598 2.394-6.426.078-1.031.195-1.926-.008-2.965-.02-.101.106-.078.13-.007.226.683.48 1.55.429 2.335 1.613-1.757 3.68-3.277 5.598-4.671.125-.637-.098-1.079-.442-1.618l.078-.05c.336.379.742.859.793 1.355l1.059-.77c.164-.12.32-.269.469-.406l.039-.164c.78-.676.632-2.156.105-2.886l.031-.028c.657.52.883 1.055.926 1.875v.028c1.113-1.352 2.164-2.946 3.598-3.81-.73-1.171-2.145-1.702-3.836-1.85.242.171.465.378.629.628.336.512.996 1.489.457 2.11-.637.73-1.442.617-2.309.476-1.11-.176-.25 1.817-.597 2.215-.254.297-.797.293-1.332.285-.633-.004-1.254-.012-1.348.496-.156.852-.149 2.082-.902 2.696-.7.57-1.567.77-2.465.539-2.586-.66-2.645 1.879-3.094 3.613-.625 2.43-2.313 4.562-4.898 4.934-1.922.277-3.586-.723-4.57-2.247-.005.122-.075.239-.208.243-1.055.05-1.41-1.258-1.695-2.063-.235-.664-.149-1.465-.02-2.14.16-.825.516-1.489.801-2.215l.012-.07c-.137.171-.27.335-.395.515-3.164 4.43-1.015 11.246 3.614 13.82 1.722.957 3.203 2.188 5.039 2.992 3.023 1.332 6.136.997 9.277.47 4.742-.794 9.473-2.821 12.637-6.54 2.058-2.414 4.68-7.512 4.629-11.726a11 11 0 0 1-1.176 1.87"/><path fill="#191310" d="M70.39 83.23c-1.835-.804-3.316-2.035-5.038-2.992 1.722.957 3.203 2.188 5.039 2.992"/><path fill="#552000" d="M75.152 84.164c-1.605 0-3.195-.242-4.761-.934-1.836-.804-3.317-2.035-5.04-2.992a8.5 8.5 0 0 1-1.097-.722c-1.578-1.22-2.766-2.961-3.426-4.875 2.48 4.222 7.715 6.3 12.367 6.73q.835.077 1.657.078c4.98 0 9.746-2.039 13.828-4.804 3.601-2.438 6.972-6.122 8.234-10.415-.254 4.047-2.68 8.665-4.61 10.93-3.163 3.719-7.894 5.746-12.636 6.54-1.512.253-3.02.464-4.516.464"/><path fill="#191310" d="M79.816 66.438q-.001-.005.004-.004-.005-.001-.004.004m.004-.004q.011-.006.016-.012-.005.006-.016.012m.02-.016.008-.008zm.012-.008.007-.008zm.007-.008q.01-.005.02-.015-.01.01-.02.015m.02-.015c.004 0 .008-.004.008-.004q-.001.002-.008.004m.012-.008c.004 0 .004-.004.007-.004q-.003.002-.007.004"/><path fill="#552000" d="M73.953 72.336c1.442-2.297 3.676-4.234 5.863-5.898q-.001-.005.004-.004.011-.006.016-.012l.004-.004.008-.008h.004l.007-.008q.01-.005.02-.015c.004 0 .008-.004.008-.004l.004-.004c.004 0 .004-.004.007-.004l.012-.012q.41-.117.832-.117.45-.001.942.133c.464.133.918.383 1.39.383q.158-.001.32-.043l-.035-.098a1 1 0 0 1-.175.012c-.844 0-1.684-.778-2.54-.813.325-.254.657-.488.973-.718 2.64-1.922 5.785-5.852 9.297-6.008a6.7 6.7 0 0 0-1.144.351c-1.094.461-2.043 1.223-2.93 2-.785.688-1.809 1.805-2.113 2.832-.211.703-.32 1.426-.61 2.106-.535 1.258-1.793.976-2.805 1.129-2.32.351-4.285 1.914-5.992 3.437-.468.426-.937.89-1.367 1.387"/><path fill="#232020" d="M77.012 74.625c3.726.648 7.324-.672 10.593-2.27 3.793-1.855 7.434-3.28 8.473-7.808l.024.008c-.247 3.972-2.305 6.101-5.79 7.851-3.914 1.953-8.957 4.367-13.367 2.711-.254-.094-.246-.547.067-.492"/><path fill="#BA6B31" d="M82.328 57.773c-4.566-.32-8.289 1.016-12.266 3.172-3.21 1.739-6.992 4.727-6.574 8.782.012.117.203.144.215.015.504-4.027 3.945-6.535 7.238-8.383 3.668-2.062 7.188-3.125 11.391-3.422.11-.003.102-.156-.004-.164M93.328 60.438l-.098.085c1.668 3.258.364 6.66-2.492 8.762-1.062.781-2.433 1.348-3.64 1.86-1.063.445-2.297.714-3.274 1.316-.094.062-.058.25.067.227 3.32-.583 6.683-1.508 9.046-4.094 1.122-1.223 1.657-2.774 1.833-4.406.18-1.63-.274-2.72-1.442-3.75"/><path fill="#232020" d="M161.988 81.434c-3.718-4.22-11.195-6.305-16.39-7.832-3.555-1.047-9.313-1.442-12.328 1.101l-.004.016c-1.871-.54-3.782-.528-5.309.691-3.441 2.73-3.125 6.742-1.98 10.637 2.832 9.605 13.609 17.531 23.933 15.851 9.184-1.492 19.922-11.55 12.078-20.464"/><path fill="#985614" d="M153.086 99.875c-7.59 2.695-18.95-1.32-23.512-7.844-1.754-2.504-2.664-5.441-3.32-8.386-.887-3.942.226-9.868 6.887-8.258 2.027.488 3.851 1.152 5.605 2.277l.04-.043c-1.317-.976-3.11-2.098-4.966-2.73 2.305-1.454 5.563-.914 8.121-.676 4.414.406 8.692 2.222 12.684 4.11 4.973 2.35 10.238 5.277 8.84 11.827-1.024 4.797-5.996 8.16-10.38 9.723"/><path fill="#753600" d="M154.625 78.324c-3.992-1.886-8.27-3.703-12.684-4.11-2.558-.237-5.816-.776-8.12.677 1.855.632 3.648 1.754 4.964 2.73l-.039.043a14 14 0 0 0-.71-.43c1.667 1.192 3.214 2.645 4.734 3.786 1.867 1.402 3.89 2.671 6.187 3.203.816.187 1.645.34 2.473.484 1.234.121 2.468.297 3.715.344.94.035 1.882.094 2.82.21 1.015.13 3.691.516 3.566 2.079-.172 2.144-2.965 2.863-4.691 3.125-3.168.472-6.395.289-9.555-.137-3.191-.43-6.344-1.078-9.367-2.18-2.742-.472-5.383-1.972-7.34-3.843-1.832-1.743-3.52-4.352-3.629-6.985-1.07 1.782-1.152 4.309-.695 6.325.656 2.945 1.566 5.882 3.32 8.386 4.563 6.524 15.922 10.54 23.512 7.844 4.383-1.562 9.355-4.926 10.379-9.723 1.398-6.55-3.867-9.476-8.84-11.828"/><path fill="#552000" d="M147.766 100.727c-6.848 0-14.61-3.575-18.192-8.696-1.754-2.504-2.664-5.441-3.32-8.386-.277-1.223-.352-2.633-.129-3.95.035.438.098.871.164 1.274.387 2.336 1.445 4.484 2.824 6.386 3.125 4.313 8.016 7.063 13.13 8.204 2.23.496 4.683.8 7.14.8 2.937 0 5.879-.433 8.445-1.488 2.227-.914 4.094-2.422 5.52-4.281-1.227 4.566-6.016 7.77-10.262 9.285-1.633.582-3.441.852-5.32.852"/><path fill="#6F340A" d="m158 85.27-.035-.008a33 33 0 0 0-2.82-.211c-1.247-.047-2.48-.223-3.715-.344a48 48 0 0 1-2.473-.484c-2.297-.532-4.32-1.801-6.187-3.203-1.516-1.137-3.06-2.586-4.723-3.778 1.664 1.192 3.207 2.64 4.723 3.778 1.867 1.402 3.89 2.671 6.187 3.203.816.187 1.645.34 2.473.484 1.234.121 2.468.297 3.715.344.94.035 1.882.094 2.82.21.012.005.023.005.035.009"/><path fill="#191310" d="M138.648 77.52a25 25 0 0 0-1.398-.946c.004.004.008.004.012.008.5.313.965.629 1.386.938"/><path fill="#552000" d="m158.164 85.29-.164-.02c-.012-.004-.023-.004-.035-.008a33 33 0 0 0-2.82-.211c-1.247-.047-2.48-.223-3.715-.344a48 48 0 0 1-2.473-.484c-2.297-.532-4.32-1.801-6.187-3.203-1.516-1.137-3.06-2.586-4.723-3.778-.008-.004-.008-.004-.012-.008.235.133.477.278.711.43l.04-.043q-.066-.05-.138-.101a23 23 0 0 0-1.386-.938c3.218 1.496 6.797 1.973 10.258 2.957 3.789 1.082 7.71 2.98 10.644 5.75"/><path fill="#232020" d="M157.855 85.344c-2.57-1.051-5.64-.856-8.343-1.504l-.016-.004-.09-.125c-.125-.016-.261-.004-.383-.004-2.808-.75-6.472-2.34-8.437-4.3l-.059.05c.559.793 1.22 1.441 1.946 2.016-.145-.032-.29-.063-.438-.07-.875-.055-1.851.277-2.691.132-.102-.015-.184.164-.078.203.62.207 1.418.125 2.07.149.996.043 1.781.683 2.754.777l.094-.02c.824.489 1.68.934 2.535 1.395 1.41.75 3.148 1.305 4.715 1.559 2.152.347 4.175-.223 6.316.054.148.02.27-.238.105-.308M156.54 86.676a.238.238 0 0 0-.169.336c.125.226 1.402.988 1.09 1.3-.07.07-.047.239.074.172.797-.425-.332-1.945-.996-1.808M154.473 89.273c-4.672.825-9.07.528-13.602-.808-2.71-.797-11.71-3.473-12.004-6.832l-.054.012c-.301 3.613 6.648 6.023 9.132 7.023 5.149 2.074 11.153 2.605 16.528 1.047.242-.063.304-.496 0-.442M160.207 84.762a1.5 1.5 0 0 0-.332.586c-.043.168.195.16.223.02.074-.173.152-.345.222-.516z"/><path fill="#BA6B31" d="M155.664 88.836c-5.137 1.012-10.027-.39-15-1.59-2.367-.566-4.867-1.808-6.941-3.101-2.375-1.473-5.196-2.856-4.953-6.125l-.079-.004c-.53 2.136.645 3.836 2.25 5.144 2.301 1.871 5.13 3.211 7.809 4.438 1.332.605 2.938.828 4.332 1.257 1.39.422 2.89.774 4.344.868 2.789.18 5.812.875 8.355-.63.156-.09.04-.288-.117-.257"/><path fill="#232020" d="M127.156 94.16c-3.722-4.222-11.199-6.305-16.394-7.832-3.559-1.047-9.313-1.441-12.328 1.102l-.004.015c-1.875-.539-3.782-.523-5.305.692-3.445 2.73-3.133 6.742-1.984 10.636 2.832 9.61 13.609 17.536 23.937 15.848 9.176-1.484 19.914-11.547 12.078-20.46"/><path fill="#985614" d="M118.254 112.602c-7.594 2.695-18.953-1.32-23.516-7.844-1.754-2.504-2.664-5.442-3.32-8.387-.887-3.941.223-9.867 6.887-8.254 2.027.488 3.851 1.145 5.605 2.274l.04-.043c-1.317-.98-3.11-2.098-4.966-2.73 2.305-1.45 5.563-.911 8.121-.677 4.41.407 8.692 2.223 12.68 4.106 4.977 2.355 10.238 5.281 8.844 11.828-1.024 4.809-5.996 8.16-10.375 9.727"/><path fill="#753600" d="M119.785 91.047c-3.988-1.883-8.27-3.7-12.68-4.106-2.558-.234-5.816-.773-8.12.676 1.1.38 2.183.926 3.156 1.516 1.707.637 3.457 2.887 4.296 3.789 3.274 3.508 8.68 4.219 13.329 4.918 1.367-.028 2.73-.035 4.062.273.777.184 2.637.883 1.758 2.043-1.004 1.34-2.992 1.324-4.488 1.656-1.918.422-4.375 1.184-6.461.997-1.817.168-3.7-.094-5.473-.45-3.547-.71-7.36-1.347-10.57-3.109-2.52-1.375-5.168-3.445-5.946-6.355-.324-1.215-.34-2.395-.085-3.497-1.5 1.762-1.657 4.7-1.145 6.973.656 2.945 1.566 5.883 3.32 8.387 4.563 6.523 15.922 10.539 23.516 7.844 4.379-1.567 9.351-4.918 10.375-9.727 1.394-6.547-3.867-9.473-8.844-11.828"/><path fill="#191310" d="M102.148 89.137q-.003-.005-.007-.004-.33-.194-.664-.387a16 16 0 0 1 .671.39"/><path fill="#6F340A" d="M123.078 97.98c-.793-.117-1.594-.148-2.398-.148q-.276-.001-.551.004.329-.007.652-.008c.766 0 1.528.031 2.278.14.007.005.011.009.02.012"/><path fill="#552000" d="M123.059 97.969c-.75-.11-1.512-.14-2.278-.14q-.323 0-.652.007-.181.002-.363.004c-4.649-.7-10.055-1.41-13.329-4.918-.84-.899-2.585-3.145-4.289-3.785q-.003-.005-.007-.004a16 16 0 0 0-.664-.387q-.03-.016-.059-.031c1.539.488 3.062 1.008 4.625 1.445 3.473.965 7.031 1.68 10.332 3.168 2.09.95 3.742 2.336 5.535 3.719.266.203.676.574 1.149.922"/><path fill="#191310" d="M118.254 112.602c4.379-1.567 9.351-4.918 10.375-9.727q.227-1.089.226-2.055c0-1.328-.308-2.484-.847-3.5 0-.007-.004-.011-.008-.02.805 1.516 1.11 3.337.629 5.575-1.024 4.809-5.996 8.16-10.375 9.727m-23.527-7.864q-.007-.006-.008-.011.001.005.008.011m-.012-.011q-.058-.089-.121-.176.064.087.12.176m-.12-.18q-.007-.005-.008-.016.001.011.008.016m-.02-.031"/><path fill="#552000" d="M112.926 113.45c-6.844 0-14.61-3.575-18.188-8.692q-.006-.01-.011-.02-.007-.006-.008-.011h-.004q-.058-.089-.121-.176v-.004q-.007-.005-.008-.016l-.012-.015c-1.097-1.633-1.847-3.446-2.422-5.313.512.715 1.082 1.39 1.703 2.008 3.727 3.687 9.09 5.426 14.172 6.113 1.614.219 3.266.34 4.926.34 3.578 0 7.188-.547 10.48-1.809 2.2-.835 4.778-2.449 5.11-5.011.164-1.254-.074-2.422-.535-3.524.539 1.016.847 2.172.847 3.5q.001.966-.226 2.055c-1.024 4.809-5.996 8.16-10.375 9.727-1.637.578-3.445.847-5.328.847"/><path fill="#232020" d="M123.02 98.074c-2.57-1.054-5.641-.86-8.348-1.508l-.016-.004-.09-.124c-.125-.016-.254-.004-.379-.004-2.808-.75-6.472-2.34-8.44-4.301l-.056.05c.555.797 1.22 1.442 1.946 2.016-.149-.031-.293-.062-.434-.07-.879-.055-1.855.277-2.7.133-.097-.02-.179.164-.073.203.62.21 1.418.125 2.07.148.996.043 1.781.684 2.758.782l.09-.028c.824.492 1.68.938 2.535 1.399 1.402.75 3.144 1.3 4.715 1.558 2.156.352 4.175-.222 6.316.055.152.02.27-.242.106-.305M121.7 99.402c-.145.028-.235.2-.165.332.125.227 1.403.996 1.086 1.305-.07.07-.043.238.074.172.797-.426-.328-1.941-.996-1.809M119.637 102.004c-4.672.82-9.07.523-13.606-.809-2.707-.797-11.71-3.476-11.996-6.836l-.058.012c-.301 3.613 6.644 6.027 9.128 7.027 5.157 2.07 11.157 2.602 16.532 1.043.242-.066.312-.492 0-.437M125.371 97.488c-.164.192-.27.348-.336.586-.039.168.195.16.23.02.07-.172.145-.348.215-.516z"/><path fill="#BA6B31" d="M113.91 101.027c-4-.386-7.808-1.293-11.633-2.492-1.906-.597-4.007-1.43-5.422-2.879-1.535-1.574-2.625-4.449-1.175-6.437.074-.102-.047-.211-.137-.125-2.86 2.68.031 7.215 2.75 8.652 4.695 2.484 10.305 3.95 15.605 3.434z"/><path fill="#232020" d="M53.95 48.2c-3.66-4.157-11.028-6.208-16.15-7.712-3.495-1.031-9.163-1.418-12.132 1.086l-.008.012c-1.844-.527-3.722-.516-5.226.684-3.391 2.687-3.079 6.64-1.954 10.472 2.793 9.461 13.41 17.266 23.579 15.617 9.043-1.472 19.613-11.379 11.89-20.16"/><path fill="#985614" d="M45.191 66.36c-7.484 2.656-18.671-1.301-23.168-7.723-1.726-2.461-2.62-5.356-3.27-8.262-.866-3.875.224-9.707 6.786-8.133 1.992.485 3.797 1.137 5.52 2.246l.039-.043c-1.297-.965-3.063-2.066-4.891-2.691 2.273-1.422 5.484-.895 7.996-.668 4.356.402 8.563 2.195 12.492 4.055 4.903 2.312 10.086 5.195 8.711 11.648-1.011 4.73-5.91 8.031-10.215 9.57"/><path fill="#753600" d="M46.695 45.14c-3.93-1.859-8.136-3.652-12.492-4.054-2.398-.219-5.422-.703-7.672.488q.796.45 1.508.965a21.5 21.5 0 0 1 3.059 1.906l-.04.043a15 15 0 0 0-1.859-1.011c2.313 2.09 3.93 4.8 7.121 5.816.825.266 3.278.773 5.457 1.586 2.145.758 4.383.867 6.621 1.152.829.106 1.88.352 2.528.91 1.57 1.368-.332 2.922-1.746 3.309-2.91.805-6.239.75-9.203.383-.329 0-.637-.004-.914-.004-3.856-.008-7.493-.344-11.047-2.031-4.239-2.012-8.11-6.203-8.375-10.766-1.25 1.758-1.36 4.438-.887 6.543.648 2.906 1.543 5.8 3.27 8.262 4.496 6.422 15.683 10.379 23.167 7.722 4.305-1.539 9.204-4.84 10.215-9.57 1.375-6.453-3.808-9.336-8.71-11.648"/><path fill="#6F340A" d="M50.7 52.773c-.587-.398-1.384-.605-2.075-.71.691.105 1.492.312 2.074.707z"/><path fill="#552000" d="M50.7 52.77c-.583-.395-1.384-.602-2.075-.708q-.116-.015-.227-.03c-2.238-.286-4.476-.395-6.62-1.153-2.18-.813-4.633-1.32-5.458-1.586-3.191-1.016-4.808-3.727-7.12-5.816.241.109.476.234.718.355 2.055 1.43 4.566 2.438 6.867 3.316 2.746 1.047 5.598 1.704 8.469 2.301 2.14.446 4.754 1.145 5.445 3.32"/><path fill="#191310" d="M39.941 67.2c1.852 0 3.637-.266 5.25-.84-1.613.574-3.398.84-5.25.84"/><path fill="#552000" d="M39.941 67.2c-6.746 0-14.39-3.524-17.918-8.563-1.726-2.461-2.62-5.356-3.27-8.262-.019-.094-.034-.195-.054-.293.766 2.27 2.258 4.273 4 5.883 4.117 3.797 10.203 5.57 15.637 6.187 1.129.13 2.316.203 3.523.203 4.547 0 9.387-1.054 12.536-4.273.316-.316.62-.656.933-1-.906 3.598-4.05 6.344-7.402 8.086-.91.473-1.836.871-2.735 1.191-1.613.575-3.398.84-5.25.84"/><path fill="#232020" d="M49.879 52.055c-2.531-1.035-5.55-.844-8.219-1.48l-.015-.005-.086-.125c-.125-.015-.25 0-.375 0-2.77-.742-6.371-2.304-8.317-4.242l-.054.05c.55.786 1.207 1.419 1.917 1.985-.14-.027-.285-.062-.425-.07-.867-.055-1.828.281-2.66.133-.098-.016-.18.16-.075.195.61.211 1.399.129 2.04.156.98.04 1.757.664 2.718.766l.09-.027c.809.48 1.652.922 2.496 1.375 1.387.738 3.102 1.285 4.64 1.535 2.122.344 4.114-.215 6.216.062.152.016.273-.242.109-.308M48.586 53.36c-.145.035-.242.203-.172.335.125.22 1.387.977 1.074 1.282-.07.066-.047.234.078.168.782-.415-.328-1.915-.98-1.786M46.547 55.922c-4.602.808-8.926.523-13.395-.797-2.668-.781-11.535-3.414-11.816-6.727l-.059.012c-.289 3.555 6.547 5.934 8.993 6.918 5.074 2.043 10.988 2.57 16.289 1.027.23-.062.293-.488-.012-.433M52.195 51.484c-.16.18-.258.34-.328.578-.039.157.196.153.223.016q.105-.259.21-.512z"/><path fill="#BA6B31" d="M42.133 55.54c-4.399-.22-8.313-1.196-12.41-2.84-3.73-1.5-9.059-4.481-7.664-9.274l-.07-.024c-.321.535-.872.778-.919 1.52-.074 1.2.426 2.215.992 3.242 1.22 2.195 3.247 3.625 5.446 4.691 4.437 2.153 9.672 3.606 14.633 2.829.093-.012.093-.141-.008-.145"/><path fill="#232020" d="M53.484 107.95c4.68 3.667 9.391 4.812 15.203 3.593 6.024-1.262 10.422-4.309 12.993-9.973 1.46-3.226 1.968-9.535-1.032-12.21-1.718-1.532-3.343-1.958-5.535-1.25-.117.035-.215.097-.328.148-1.496-3.41-8.894-2.125-11.555-1.215-5.332 1.832-10.453 4.25-13.046 9.621-1.82 3.762.171 8.82 3.3 11.285"/><path fill="#985614" d="M51.7 95.645c.12-.176.257-.332.382-.508-.254.687-.598 1.293-.746 2.05-.11.594-.191 1.293.02 1.876.246.71.562 1.859 1.484 1.812.164-.008.23-.203.152-.336-.59-1.031-1.062-1.863-.984-3.121.054-.906.312-1.773.37-2.66 2.294-2.887 5.247-5.07 8.825-6.203 2.469-.782 11-3.442 13.094-.07-1.258.753-2.176 2.148-3.156 3.34v-.032c-.04-.719-.243-1.184-.813-1.64l-.023.03c.46.633.593 1.934-.09 2.528l-.035.137c-.14.125-.27.25-.418.359q-.452.335-.926.68c-.04-.438-.398-.86-.691-1.192l-.07.043c.3.473.495.864.386 1.414-1.684 1.227-3.492 2.555-4.91 4.106.047-.695-.176-1.453-.375-2.051h-.114c.18.914.075 1.7.004 2.602-1.316 1.605-2.195 3.441-2.093 5.636l.109.02c.41-3.738 3.547-6.59 6.55-8.871.497-.149 1-.14 1.555.011.5.141.989.43 1.504.297l-.03-.09c-.794.118-1.575-.664-2.38-.703l.852-.629c2.683-1.953 5.969-6.28 9.656-5.054 6.992 2.312 2.68 12.152-.289 15.633-2.777 3.261-6.918 5.039-11.074 5.734-2.75.457-5.492.758-8.137-.41-1.613-.707-2.906-1.785-4.418-2.621-4.055-2.262-5.941-8.242-3.172-12.117"/><path fill="#753600" d="M79.723 97.879c-2.989 3.023-9.399 7.93-13.735 4.855-1.761-1.246-.832-3.125.5-4.234.785-.656 1.918-1.266 2.95-1.414 2.097-.3 3.746-.406 4.105-2.957.332-2.324 1.324-3.598 3.703-3.992.969-.157 1.965-.149 2.961-.04a6 6 0 0 0-1.418-.671c-3.687-1.227-6.973 3.101-9.656 5.054q-.423.311-.852.63c.805.038 1.586.82 2.38.703l.03.09c-.515.132-1.004-.157-1.504-.298-.554-.152-1.058-.16-1.554-.011-3.004 2.281-6.14 5.133-6.551 8.87l-.11-.019c-.1-2.195.778-4.03 2.094-5.636.07-.903.176-1.688-.004-2.602h.114c.199.598.422 1.356.375 2.05 1.418-1.55 3.226-2.878 4.91-4.105.11-.55-.086-.941-.387-1.414l.07-.043c.293.332.653.754.692 1.192q.474-.345.926-.68c.148-.11.277-.234.418-.36l.035-.136c.683-.594.55-1.895.09-2.527l.023-.032c.57.457.774.922.813 1.641v.031c.98-1.191 1.898-2.586 3.156-3.34-.508-.82-1.399-1.28-2.488-1.5.238.329.277.727-.008 1.215-.328.567-1.223.551-1.778.602-1.746.16-.355 1.543-.964 2.289-.778.945-3.004.078-3.094 1.57-.043.719.035 1.86-.574 2.399-.715.644-1.239.62-2.125.324-2.028-.68-1.407 1.863-1.797 2.863-.645 1.649-2.395 2.86-4.203 2.125-1.93-.781-3.196-2.926-3.461-4.95a6.7 6.7 0 0 1 .105-2.374c-.535.539-1.05 1.105-1.531 1.71-.059.888-.316 1.755-.371 2.661-.078 1.258.394 2.09.984 3.121.078.133.012.328-.152.336-.922.047-1.238-1.102-1.485-1.812-.21-.583-.128-1.282-.02-1.876.15-.757.493-1.363.747-2.05-.125.175-.262.332-.383.508-2.77 3.875-.883 9.855 3.172 12.117 1.512.836 2.805 1.914 4.418 2.62 2.645 1.169 5.387.868 8.137.411 4.156-.695 8.297-2.473 11.074-5.734 2.05-2.407 4.742-7.848 3.906-11.746a11 11 0 0 1-2.683 4.566"/><path fill="#191310" d="m67.285 95.863.004-.004zm.008-.008q.17-.127.34-.261-.17.134-.34.261"/><path fill="#552000" d="M61.684 102.219c1.078-2.535 3.343-4.614 5.601-6.356l.004-.004.004-.004q.17-.127.34-.261c.242-.07.48-.106.73-.106q.398 0 .825.117c.261.075.515.188.777.262-.903.707-1.996 1.246-2.965 1.805-1.117.644-2.16 1.414-3.148 2.238-.766.645-1.563 1.426-2.168 2.309"/><path fill="#191310" d="M69.34 95.453c-.352-.164-.703-.324-1.059-.344.356.02.707.18 1.059.344m-.207-.973c.59-.43 1.215-.976 1.863-1.554-.504.449-.992.879-1.465 1.254q-.066.052-.125.097h-.004c-.015.016-.035.028-.05.043h-.004l-.012.012-.016.012-.015.011q-.023.013-.04.032-.005.001-.011.008-.046.032-.086.062c-.004.004-.008.004-.012.008-.008.004-.015.012-.023.015"/><path fill="#552000" d="M70.09 95.762c-.25-.07-.5-.188-.75-.309-.352-.164-.703-.324-1.059-.344l.852-.629c.008-.003.015-.011.023-.015.004-.004.008-.004.012-.008q.04-.032.086-.062.006-.007.012-.008.016-.019.039-.032l.015-.011.016-.012.012-.012h.004c.015-.015.035-.027.05-.043h.004q.06-.045.125-.097c.473-.375.961-.805 1.465-1.254 1.887-1.676 4-3.602 6.29-3.7a6 6 0 0 0-2.2.825c-2.113 1.285-2.895 3.742-4.617 5.398-.114.114-.25.207-.38.313"/><path fill="#191310" d="M71.14 91.793c-.038-.703-.234-1.164-.777-1.606 0 0 .004 0 .004-.003.54.445.735.906.774 1.609"/><path fill="#552000" d="M71.14 91.824v-.031c-.038-.703-.234-1.164-.773-1.61.153-.163.371-.304.7-.413 1.261-.41 1.667-1.532 1.34-2.625.812.257 1.48.68 1.89 1.34-1.258.753-2.176 2.148-3.156 3.34"/><path fill="#191310" d="M68.809 93.73c-.086-.324-.32-.625-.543-.89h.004c.222.262.457.566.539.89"/><path fill="#552000" d="M68.836 93.887a.7.7 0 0 0-.027-.157c-.082-.324-.317-.628-.54-.89.465-.168.989-.13 1.286-.578.484-.727.308-1.508.773-2.043.438.648.559 1.91-.113 2.492l-.035.137c-.14.125-.27.25-.418.359q-.452.335-.926.68"/><path fill="#191310" d="M63.55 98.258c1.419-1.551 3.227-2.88 4.91-4.106a1.7 1.7 0 0 0 .032-.304q0-.094-.015-.188c.023.156.02.317-.016.492-1.684 1.227-3.492 2.555-4.91 4.106m-.121-1.18a7 7 0 0 0-.114-.418h.004q.059.2.11.418"/><path fill="#552000" d="M63.55 98.258c.028-.387-.03-.793-.12-1.18a9 9 0 0 0-.11-.418 1.3 1.3 0 0 1 .403-.101c1.93-.196 3.058-1.383 3.855-3.09.152-.32.356-.48.582-.582.16.261.281.504.317.773q.016.094.015.188-.001.146-.031.304c-1.684 1.227-3.492 2.555-4.91 4.106"/><path fill="#191310" d="M61.145 102.555q-.005-.017-.004-.028c.273-1.218.851-2.312 1.613-3.32-.766 1.016-1.336 2.121-1.61 3.348m1.922-3.746"/><path fill="#552000" d="M61.14 102.527c-.163-1.187.356-2.355.946-3.382.46-.797.34-1.934 1.047-2.391.054.64 0 1.238-.055 1.894l-.012.16c-.109.133-.21.266-.312.399-.762 1.008-1.34 2.102-1.613 3.32"/><path fill="#191310" d="M59.29 110.383c-1.614-.707-2.907-1.785-4.419-2.621-1.445-.805-2.613-2.082-3.394-3.567.78 1.485 1.953 2.762 3.394 3.567 1.512.836 2.805 1.914 4.418 2.62"/><path fill="#552000" d="M63.465 111.2c-1.41 0-2.805-.212-4.176-.817-1.613-.707-2.906-1.785-4.418-2.621-1.441-.805-2.613-2.082-3.394-3.567-1.305-2.48-1.524-5.543-.141-7.965-.395 1.391-.383 2.97-.117 4.278.941 4.707 6.047 8.129 10.445 9 .89.176 1.781.262 2.66.262 4.414 0 8.637-2.079 12.11-4.754 3.355-2.586 5.46-6.344 6.113-10.438.133 3.734-2.211 8.324-4.047 10.48-2.777 3.262-6.918 5.04-11.074 5.735-1.328.223-2.649.406-3.961.406"/><path fill="#232020" d="M65.094 102.836c3.273.57 6.418-.586 9.293-1.988 3.32-1.63 6.511-2.88 7.43-6.856l.011.012c-.215 3.492-2.016 5.355-5.078 6.883-3.426 1.715-7.844 3.836-11.715 2.386-.222-.085-.215-.488.059-.437"/><path fill="#BA6B31" d="M69.438 87.281c-2.84-1.054-6.387.27-9.036 1.281-3.101 1.192-5.75 2.848-6.867 6.079l.14.05c1.759-2.879 4.403-4.37 7.505-5.554 1.324-.512 2.664-1.035 4.054-1.34 1.41-.305 2.746-.219 4.164-.32.09-.008.145-.157.04-.196M80.262 90.969l-.059.031c2.281 5.988-7.113 8.508-10.902 10.227-.125.058-.117.273.043.257 1.52-.14 2.937-.75 4.351-1.296 1.461-.575 3.227-1.333 4.414-2.364 1.801-1.562 3.961-4.484 2.153-6.855"/><path fill="#232020" d="M165.11 51.848c-3.637-4.133-10.95-6.168-16.032-7.664-3.476-1.02-9.101-1.41-12.047 1.078l-.011.015c-1.833-.523-3.692-.515-5.188.68-3.367 2.668-3.059 6.586-1.937 10.398 2.77 9.395 13.312 17.141 23.406 15.497 8.972-1.457 19.472-11.293 11.808-20.004"/><path fill="#985614" d="M156.406 69.867c-7.426 2.645-18.531-1.285-22.996-7.664-1.715-2.441-2.601-5.316-3.246-8.2-.867-3.85.223-9.64 6.738-8.065 1.98.472 3.766 1.117 5.477 2.222l.039-.047c-1.29-.957-3.04-2.043-4.856-2.668 2.258-1.414 5.438-.89 7.942-.66 4.316.399 8.5 2.176 12.402 4.016 4.864 2.3 10.008 5.164 8.645 11.566-1.004 4.692-5.863 7.977-10.145 9.5"/><path fill="#753600" d="M164.945 53.469c.375 1.941.235 4.176-.812 5.761-1.594 2.407-4.574 3.086-7.254 3.461-3.219.45-6.484.496-9.715.106-5.48-.664-12.039-2.766-15.605-7.285-1.075-1.367-1.621-2.758-1.641-4.317-.047.965.05 1.934.246 2.809.645 2.883 1.531 5.758 3.246 8.2 4.465 6.378 15.57 10.308 22.996 7.663 4.281-1.523 9.14-4.808 10.145-9.5.629-2.957-.13-5.16-1.606-6.898"/><path fill="#191310" d="M133.41 62.203"/><path fill="#552000" d="M151.191 70.703c-6.695 0-14.28-3.496-17.78-8.5a10 10 0 0 1-.282-.41 17 17 0 0 1-1.274-2.375c.68.789 1.415 1.543 2.184 2.254 1.879 1.738 3.938 3.387 6.266 4.48 2.308 1.075 4.984 1.442 7.5 1.672q1.23.115 2.46.114c4.536 0 9.016-1.172 12.735-3.868 1.738-1.257 3.195-3.43 3.77-5.73a9.5 9.5 0 0 1-.22 2.027c-1.003 4.692-5.863 7.977-10.144 9.5-1.601.574-3.375.836-5.215.836"/><path fill="#753600" d="M160.086 54.043a24.6 24.6 0 0 0-4.734-2.922c-2.13-1.004-4.336-1.715-6.625-2.254-2.18-.515-4.192-.633-6.41-.66l-.145-.039-.031-.004c.656.606 1.3 1.324 2.007 1.953 3.024 2.696 7.739 4.953 11.805 5.305 1.133.098 2.203.039 3.332-.07.75-.07 1.903-.45.8-1.309"/><path fill="#552000" d="M157.113 55.473c-.383 0-.765-.016-1.16-.051-4.066-.352-8.781-2.61-11.805-5.305-.707-.629-1.351-1.347-2.007-1.953l.03.004.145.039.075.004c.265.23.582.402.937.566 1.113.516 2.16 1.024 3.227 1.66a56 56 0 0 0 6.507 3.364c1.825.789 3.723 1.379 5.696 1.597a21 21 0 0 1-1.645.075"/><path fill="#232020" d="M161.066 55.672c-2.511-1.027-5.52-.84-8.16-1.473l-.02-.004-.081-.125c-.125-.015-.25 0-.38 0-2.75-.738-6.32-2.293-8.25-4.207l-.054.047c.547.778 1.195 1.41 1.906 1.973-.144-.031-.285-.063-.425-.07-.86-.055-1.813.273-2.641.136-.094-.02-.176.153-.07.192.605.21 1.386.125 2.023.152.973.039 1.742.664 2.695.754l.086-.024c.805.477 1.649.922 2.485 1.372 1.375.726 3.074 1.27 4.605 1.52 2.11.343 4.082-.216 6.172.058.152.015.27-.235.11-.301M159.777 56.969c-.14.027-.23.195-.16.328.117.219 1.371.965 1.059 1.27-.07.07-.043.238.078.167.777-.41-.328-1.894-.977-1.765M157.758 59.508c-4.567.808-8.867.52-13.301-.785-2.648-.782-11.45-3.395-11.73-6.688l-.059.016c-.293 3.531 6.5 5.89 8.93 6.867 5.035 2.023 10.906 2.55 16.164 1.023.23-.066.297-.488-.004-.433M163.367 55.098c-.16.183-.262.34-.328.574-.043.16.191.16.223.02l.21-.505z"/><path fill="#BA6B31" d="M160.969 52.168c-2.2-2.973-5.602-4.215-8.973-5.445-3.098-1.133-6.828-1.625-10.117-1.235l-.012.102c6.805.883 13.344 2.558 18.95 6.707.081.062.226-.031.152-.129M148.578 59.488a53.7 53.7 0 0 1-11.266-4.152c-1.789-.895-3.574-2.582-4.343-4.43-.348-.832-.375-2.187-.04-3.004.548-1.304 1.72-1.261 2.77-1.73v-.137c-4.047-.726-4.457 4.504-2.457 6.903 3.61 4.324 9.953 5.98 15.309 6.675z"/></svg>