<svg xmlns="http://www.w3.org/2000/svg" width="50mm" height="50mm" viewBox="0 0 50 50"><path d="m175.184 112.24 18.116 18.524h7.049l-19.923-20.271-.547-6.467h-5.258z" style="fill:#aeb1b5" transform="matrix(.22314 0 0 .22314 -9.927 -4.173)"/><path d="m192.672 128.997 3.021-2.28c1.22-.921 2.866-.89 3.854.073l8.672 8.444c2.749 2.68 6.041 4.824 8.313 7.977 1.063 1.474 2.041 3.342 1.668 5.235-.427 2.168-2.877 3.414-4.5 4.731-1.203.976-2.472 1.985-3.992 2.285-4.29.848-8.961-9.273-10.954-12.229l-6.943-10.298c-.821-1.221-.443-2.954.861-3.938" style="fill:#262728" transform="matrix(.22314 0 0 .22314 -9.927 -4.173)"/><path d="M211.242 223.444H52.562v-13.107c0-7.753 6.285-14.039 14.039-14.039h132.466c6.724 0 12.175 5.451 12.175 12.175z" style="fill:#53637c" transform="matrix(.22314 0 0 .22314 -9.927 -4.173)"/><path d="M211.245 222.424c-13.053 0-26.967 1.019-40.02 1.019H136.48c-11.356 0-23.296-.961-34.491-.287a217.4 217.4 0 0 0 62.68-13.294c5.44-2.03 11.432-4.954 13.035-10.535.25-.87-.248-3.134-.248-3.134s7.378-.09 14.068.017c3.723.059 8.473-.183 11.878.888 4.681 1.472 7.84 6.103 7.84 11.374 0 .025.056 13.952.003 13.952" style="opacity:.39;fill:#53637c" transform="matrix(.22314 0 0 .22314 -9.927 -4.173)"/><path d="M212.407 230.9H50.931a4.893 4.893 0 0 1 0-9.786h161.476a4.892 4.892 0 1 1 0 9.786M65.96 104.026h133.515v92.272H65.96z" style="fill:#434d5b" transform="matrix(.22314 0 0 .22314 -9.927 -4.173)"/><path d="M119.034 146.946a141 141 0 0 0-9.983 14.095c-2.53 4.072-6.224 10.56-9.537 14.025-15.204 15.902-33.554 21.232-33.554 21.232s6.571-.349 8.458-.349h124.475c0-11.227.583-22.326.583-33.553 0-19.099-.091-58.238 0-58.369.351-.507-36.164 4.456-54.965 18.929-9.28 7.141-18.126 14.864-25.477 23.99" style="opacity:.21;fill:#434d5b" transform="matrix(.22314 0 0 .22314 -9.927 -4.173)"/><path d="M54.776 59.58v33.262c0 6.177 5.007 11.184 11.184 11.184h133.165c7.142 0 12.932-5.79 12.932-12.932V59.23a7.28 7.28 0 0 0-7.281-7.282H62.407a7.63 7.63 0 0 0-7.631 7.632" style="fill:#53637c" transform="matrix(.22314 0 0 .22314 -9.927 -4.173)"/><path d="M71.88 103.62c.519-.191 3.518.465 4.515.465h122.884c7.142 0 12.932-5.79 12.932-12.932V59.289a7.28 7.28 0 0 0-7.282-7.282h-17.972c-13.003 0-26.272-.959-38.966 2.427a50 50 0 0 0-2.769.823c-6.154 2.038-12.01 5.585-15.654 10.948-4.05 5.961-5.126 13.732-9.925 19.108-2.634 2.95-6.177 4.919-9.735 6.645a114.8 114.8 0 0 1-28.732 9.502c-3.13.592-6.307 1.06-9.296 2.16" style="opacity:.24;fill:#53637c" transform="matrix(.22314 0 0 .22314 -9.927 -4.173)"/><path d="M54.659 77.988v14.854c0 6.177 5.008 11.184 11.185 11.184h133.165c7.142 0 12.932-5.79 12.932-12.932l.117-13.107H54.659Z" style="fill:#53637c" transform="matrix(.22314 0 0 .22314 -9.927 -4.173)"/><path d="M171.63 62.201h32.388v13.981H171.63z" style="fill:#a2c1ff" transform="matrix(.22314 0 0 .22314 -9.927 -4.173)"/><path d="M182.931 68.667a3.437 3.437 0 1 1-6.875 0 3.437 3.437 0 0 1 6.875 0" style="fill:#ff6f2a" transform="matrix(.22314 0 0 .22314 -9.927 -4.173)"/><path d="M201.106 69.133a3.902 3.902 0 1 1-7.805.001 3.902 3.902 0 0 1 7.805-.001" style="fill:#fc0" transform="matrix(.22314 0 0 .22314 -9.927 -4.173)"/><path d="M61.883 51.949a17.85 17.85 0 0 1 13.984-6.757h115.607c5.074 0 9.891 2.236 13.166 6.112l.545.645z" style="fill:#85888e" transform="matrix(.22314 0 0 .22314 -9.927 -4.173)"/><path d="M76.096 45.192s11.846-13.36 58.019-13.515c46.718-.157 55.456 13.515 55.456 13.515z" style="fill:#434d5b" transform="matrix(.22314 0 0 .22314 -9.927 -4.173)"/><path d="M133.997 45.803c1.035-.297 2.124-.484 3.355-.683a30.3 30.3 0 0 0 8.547-2.728c1.953-.962 3.834-2.165 5.215-3.848 1.443-1.758 2.021-3.778 1.907-6.018 1.289-.23 3.278.433 4.623.609 1.662.218 3.321.454 4.975.722 3.372.546 6.729 1.218 10.02 2.138 6.14 1.717 12.362 4.34 16.833 9.036.35.368 3.386.103 4.06.215a19 19 0 0 1 4.334 1.276c2.606 1.119 5.279 2.896 6.967 5.211l-13.768.061-29.278.13c-8.929.04-34.663.026-34.663.026.015-1.529 1.836-3.358 3.065-4.267a11.5 11.5 0 0 1 3.808-1.88" style="opacity:.21;fill:#434d5b" transform="matrix(.22314 0 0 .22314 -9.927 -4.173)"/><path d="M212.058 91.007V60.512l4.543 3.388v22.267z" style="fill:#85888e" transform="matrix(.22314 0 0 .22314 -9.927 -4.173)"/><path d="M216.543 70.764h2.68c.933 0 1.689.756 1.689 1.689v4.922a2.185 2.185 0 0 1-2.185 2.185h-2.184z" style="fill:#707377" transform="matrix(.22314 0 0 .22314 -9.927 -4.173)"/><path d="M169.872 168.572c2.046 2.573 2.688 6.265 1.776 9.48-.863 3.041-3.001 5.57-5.564 7.243s-5.529 2.554-8.51 3.033c-1.11.178-2.276.298-3.33-.111s-1.951-1.495-1.825-2.669c.114-1.065 1.016-1.873 1.978-2.225s2.001-.356 3.012-.488c2.705-.355 5.287-1.681 7.216-3.707 1.092-1.147 2-2.568 2.233-4.173s-.33-3.401-1.634-4.27c-1.501-1-3.516-.548-5.051.395-5.15 3.163-7.107-1.255-2.107-4.252 3.935-2.359 8.745-2.105 11.806 1.744" style="fill:#fff" transform="matrix(.22314 0 0 .22314 -9.927 -4.173)"/><path d="M167.542 170.439c.961 1.185 1.275 2.834 1.127 4.369-.292 3.027-2.213 5.753-4.734 7.454s-5.585 2.458-8.621 2.627c-.38.021-.776.031-1.126-.121s-.638-.512-.584-.889c.146-1.015 3.097-.951 3.806-1.044 2.705-.355 5.287-1.681 7.216-3.707 1.092-1.147 2-2.568 2.233-4.173s-.33-3.401-1.634-4.27c-1.147-.765-2.534-.636-3.781-.222-.433.144-1.018.273-1.421.48-.569.292-.938.855-1.525 1.126-.636.293-1.646-.087-1.514-.775.045-.234.213-.424.385-.59 1.154-1.115 2.731-1.707 4.316-1.953 1.942-.302 4.122-.05 5.526 1.326q.176.171.331.362" style="opacity:.21;fill:#434d5b" transform="matrix(.22314 0 0 .22314 -9.927 -4.173)"/><path d="m113.383 161.849 42.427.073a2.89 2.89 0 0 1 2.879 3.154c-.658 7.071-3.607 24.469-10.36 31.222l-27.961-.349s-9.007-8.736-9.632-31.38a2.65 2.65 0 0 1 2.647-2.72" style="fill:#fff" transform="matrix(.22314 0 0 .22314 -9.927 -4.173)"/><path d="M141.282 166.203c.142-.965.414-1.897.955-2.701 1.701-2.53 5.85-1.533 8.452-1.529l5.18.009a2.89 2.89 0 0 1 2.879 3.154c-.658 7.071-3.606 24.469-10.36 31.222l-7.465-.093-6.875-.086c-.67-.008-6.293-.313-6.484-.14 5.445-4.897 11.627-10.695 13.071-17.875.668-3.322.38-6.751.5-10.138.02-.605.058-1.22.147-1.823" style="opacity:.21;fill:#434d5b" transform="matrix(.22314 0 0 .22314 -9.927 -4.173)"/><g transform="matrix(.22314 0 0 .22314 -9.927 -4.173)"><path d="M107.203 104.026v6.291a5.243 5.243 0 0 0 5.243 5.243h40.194a6.29 6.29 0 0 0 6.291-6.291v-5.243z" style="fill:#85888e"/><path d="M111.98 115.561h41.01v14.447h-41.01z" style="fill:#707377"/><path d="M119.669 130.007v4.649c0 1.084.779 2.012 1.846 2.199l9.105 1.598.932 4.136h4.427l.932-4.194 7.554-1.743a1.98 1.98 0 0 0 1.534-1.928v-4.717z" style="fill:#85888e"/><path d="M72.601 117.912c0-.656.531-1.187 1.187-1.187h44.017s3.4 0 3.4 4.66c0 2.148-.24 3.748-2.49 4.586a1.3 1.3 0 0 1-.43.075H73.788a1.186 1.186 0 0 1-1.187-1.187z" style="fill:#aeb1b5"/><path d="M132.397 142.59h2.854v19.252h-2.854z" style="fill:#410f00"/><path d="M161.651 106.997h-58.03c-.913 0-1.66-.747-1.66-1.66s.747-1.66 1.66-1.66h58.03c.913 0 1.66.747 1.66 1.66s-.747 1.66-1.66 1.66" style="fill:#aeb1b5"/><circle cx="73.533" cy="121.386" r="4.66" style="fill:#85888e"/></g><path d="M128.283 161.911c-2.618-1.262-4.11-4.493-3.372-7.304s3.624-4.893 6.525-4.706c3.176.205 6.672 2.672 9.185.719 1.386-1.077 1.654-3.019 2.349-4.632s2.614-3.124 4.071-2.145c-3.369-4.189-6.872-8.684-7.501-14.023-.771-6.545 3.385-13.195 9.379-15.935s13.369-1.732 18.801 2c.799.549 1.633 1.178 2.603 1.195.701.013 1.362-.301 1.98-.632 3.733-2 7.251-5.552 6.968-9.778-.138-2.063-1.173-3.96-1.553-5.993-.859-4.584 2.162-9.571 6.622-10.934 1.212-.37 2.58-.546 3.455-1.462.774-.811.963-2.012.986-3.133.094-4.426-1.764-8.64-2.493-13.007-1.306-7.821 1.14-15.996 5.719-22.469s11.145-11.352 18.247-14.879c4.596-2.283 9.554-4.062 14.684-4.207 7.065-.199 13.903 2.727 19.756 6.687 10.996 7.44 19.404 19.05 21.7 32.126.834 4.749.868 9.659-.12 14.378-2.345 11.198-10.484 20.725-20.596 26.076A46.6 46.6 0 0 1 223 115.231c-7.831-.165-15.471-2.302-23.011-4.424 2.123 5.784 1.657 12.464-1.248 17.897s-8.201 9.531-14.19 10.978c-9.397 2.271-19.038-1.798-27.849-5.777-.673 4.283 4.992 6.791 6.396 10.894 1.014 2.964-.553 6.415-3.173 8.132s-6.028 1.898-9.059 1.105c-1.025-.268-2.123-.638-3.111-.255-1.265.49-1.809 1.997-2.916 2.781-.912.646-2.09.727-3.188.934s-2.288.66-2.75 1.678.477 2.526 1.527 2.143" style="opacity:.19;fill:#ffd3a6" transform="matrix(.22314 0 0 .22314 -9.927 -4.173)"/></svg>