<svg xmlns="http://www.w3.org/2000/svg" viewBox="0 0 512 80"><g fill="#333" fill-opacity=".9"><path d="M189 3v75h-21V49h-25v29h-20V3h20v28h25V3h21zm27 76q-5 0-8-2l-6-3-4-6q-2-3-2-7l2-8 5-6 7-3 10-2q7 0 11 2v-1q0-4-2-6t-7-2q-5 0-9 2l-8 4-6-12q11-7 25-7 13 0 20 5 7 6 7 18v11l1 4 4 1v17h-5l-5 1q-5 0-8-2l-3-6-1-2q-3 5-8 7-5 3-10 3zm6-15h3l4-2 1-1 1-3v-4l-4-1h-3q-4 0-7 2t-2 4q0 3 2 4l5 1zm65 15-7-1-8-1-8-2-6-3 8-13 11 4 10 2q5 0 5-3l-2-2-8-3-10-3-6-3q-3-2-4-5l-1-5 2-8q1-3 5-6 3-3 7-4l10-1 11 1 13 5-7 12-10-4-7-1-4 1-2 2 1 2 1 1 3 1 5 1 10 3 7 4q3 2 4 5l1 5q0 9-7 14-6 5-17 5zm67-1-13-20-4 4v16h-19V1h19v42l15-20h21l-19 24 21 31h-21z"/><path d="M403 79q-7 0-13-3-6-2-9-6-4-4-6-9l-2-10q0-6 2-11l5-10q4-4 10-6 5-2 13-2 7 0 13 2t9 6q4 4 6 9l2 11v3l-1 3h-38q0 5 3 7l7 1 6-1q3-1 3-4l17 5q-3 6-10 11-7 4-17 4zm9-35-3-6-6-2q-4 0-7 2t-3 6h19zm27-43h20v53q0 7 5 7l3-1 3-1 2 16-8 3-8 1q-8 0-13-4-4-4-4-12V1zm38 0h20v53q0 7 5 7l3-1 3-1 2 16-8 3-8 1q-8 0-13-4-4-4-4-12V1z"/></g><path fill="#453a62" d="m2 78 25-37L2 4h18l25 37-25 37H2zm0 0"/><path fill="#5e5086" d="m27 78 24-37L27 4h18l50 74H76L61 55 45 78H27zm0 0"/><path fill="#8f4e8b" d="m86 56-8-12h29v12H86zM74 38l-8-13h41v13H74zm0 0"/></svg>