<svg xmlns="http://www.w3.org/2000/svg" xmlns:xlink="http://www.w3.org/1999/xlink" viewBox="0 0 502 435"><defs><linearGradient id="a"><stop offset="0" stop-color="#699ad7"/><stop offset=".2" stop-color="#7eb1dd"/><stop offset="1" stop-color="#7ebae4"/></linearGradient><linearGradient id="b"><stop offset="0" stop-color="#415e9a"/><stop offset=".2" stop-color="#4a6baf"/><stop offset="1" stop-color="#5277c3"/></linearGradient><linearGradient xlink:href="#a" id="c" x1="200.6" x2="290.1" y1="351.4" y2="506.2" gradientTransform="translate(71 -1055)" gradientUnits="userSpaceOnUse"/><linearGradient xlink:href="#b" id="e" x1="-584.2" x2="-496.3" y1="782.3" y2="937.7" gradientTransform="translate(865 -1491)" gradientUnits="userSpaceOnUse"/></defs><g fill-rule="evenodd" color="#000"><path fill="#5277c3" d="m309-710 123 211-57 1-32-57-33 57h-28l-14-25 47-81-34-57z" overflow="visible" style="isolation:auto;mix-blend-mode:normal;solid-color:#000;solid-opacity:1" transform="translate(-156 933)"/><path fill="#7ebae4" d="M354-797 231-586l-28-48 33-57h-66l-14-24 15-25h93l33-57zm9 169h244l-27 49-66-1 33 57-14 24h-29l-46-80-67-1zm142-93L383-933h56l33 57 33-57h27l15 25-47 80 33 58z" overflow="visible" style="isolation:auto;mix-blend-mode:normal;solid-color:#000;solid-opacity:1" transform="translate(-156 933)"/><path fill="#5277c3" d="m309-710 123 211-57 1-32-57-33 57h-28l-14-25 47-81-34-57zm142-94H207l28-48h65l-32-57 14-24h28l46 81h67zm10 170 122-212 29 49-33 57h65l14 24-14 25-93-1-34 58z" overflow="visible" style="isolation:auto;mix-blend-mode:normal;solid-color:#000;solid-opacity:1" transform="translate(-156 933)"/></g><g transform="translate(-156 933)"><path id="d" fill="url(#c)" fill-opacity="1" fill-rule="evenodd" stroke="none" stroke-dasharray="none" stroke-linecap="butt" stroke-linejoin="round" stroke-miterlimit="4" stroke-opacity="1" stroke-width="3" d="m310-710 122 211-56 1-33-57-33 57-28-1-14-24 47-81-34-58z" opacity="1"/><use xlink:href="#d" width="100%" height="100%" transform="rotate(60 407 -716)"/><use xlink:href="#d" width="100%" height="100%" transform="rotate(-60 407 -716)"/><use xlink:href="#d" width="100%" height="100%" transform="rotate(180 407 -716)"/><path id="f" fill="url(#e)" fill-opacity="1" fill-rule="evenodd" stroke="none" stroke-dasharray="none" stroke-dashoffset="0" stroke-linecap="butt" stroke-linejoin="round" stroke-miterlimit="4" stroke-opacity="1" stroke-width="3" d="m310-710 122 211-56 1-33-57-33 57-28-1-14-24 47-81-34-58z" clip-rule="nonzero" color="#000" color-interpolation="sRGB" color-interpolation-filters="linearRGB" color-rendering="auto" display="inline" image-rendering="auto" opacity="1" overflow="visible" shape-rendering="auto" style="isolation:auto;mix-blend-mode:normal;solid-color:#000;solid-opacity:1" text-rendering="auto" visibility="visible"/><use xlink:href="#f" width="100%" height="100%" transform="rotate(120 407 -716)"/><use xlink:href="#f" width="100%" height="100%" transform="rotate(-120 407 -716)"/></g></svg>