<svg xmlns="http://www.w3.org/2000/svg" viewBox="0 0 128 128"><linearGradient id="a" x1="107.4" x2="108.4" y1="54.2" y2="35.6" gradientUnits="userSpaceOnUse"><stop offset=".1" stop-color="#6D4C41"/><stop offset=".6" stop-color="#836358"/><stop offset="1" stop-color="#8D6E63"/></linearGradient><path fill="url(#a)" stroke="#6D4C41" stroke-linejoin="round" stroke-miterlimit="10" stroke-width="2" d="M98 58c-7-39 9-41 11-42s3 2 5 4 2 5 2 8-3 5-4 7c-6 11 7 19 6 50"/><linearGradient id="b" x1="43.4" x2="43.6" y1="36.5" y2="23.8" gradientUnits="userSpaceOnUse"><stop offset=".1" stop-color="#6D4C41"/><stop offset=".6" stop-color="#836358"/><stop offset="1" stop-color="#8D6E63"/></linearGradient><path fill="url(#b)" d="M34 35c6-9 3-21 1-27l-1-3h2c12 0 15 14 15 17 2 8 3 18 1 28L34 35z"/><path fill="#6D4C41" d="M36 4v2c11 0 14 13 14 16 2 8 3 17 1 27L35 35c6-10 3-21 1-27V4m0 0h-2c-3 0 8 18-1 31l19 17c3-11 2-21 0-30 0-6-4-18-16-18z"/><linearGradient id="c" x1="64.6" x2="62.9" y1="15.4" y2="25.3" gradientUnits="userSpaceOnUse"><stop offset="0" stop-color="#999834"/><stop offset=".5" stop-color="#736D30"/><stop offset=".7" stop-color="#6B662D"/><stop offset="1" stop-color="#595525"/></linearGradient><path fill="url(#c)" d="M122 36c-1 0-83-14-118-25V9c0-3 3-5 6-5h1c7 2 19 5 29 6 1 1 0 2 2 3l7-1c34 6 72 8 73 8 0 0 2 2 2 8s-2 8-2 8z"/><path fill="#595525" d="m39 12 9 2c29 5 74 8 75 8l-1-2c-1 0-39-2-73-8h-2l-6 1-1-3C30 9 18 6 11 4L7 5l5 1c8 3 27 6 27 6zM6 10 4 9v2c35 11 117 25 118 25l1-2c-1 0-84-14-117-24z"/><path fill="#212121" d="M47 12c0-1-5 1-6 4v4l-8-2 2-5 7-1h5zm67 13s-5 1-5 4v5l-8-2s5-6 1-14l5 1 7 6zm-20-7-1 8v5l-4-1v-8l5-4z" opacity=".2"/><radialGradient id="d" cx="58.4" cy="88.1" r="56.7" gradientUnits="userSpaceOnUse"><stop offset=".3" stop-color="#BCAAA4"/><stop offset=".7" stop-color="#AB948C"/><stop offset="1" stop-color="#A1887F"/></radialGradient><path fill="url(#d)" stroke="#6D4C41" stroke-miterlimit="10" stroke-width="2" d="M116 76v-3c-1-6-5-12-8-16-6-8-15-12-18-22-4-12 2-18 2-18s-4-4-11-3c-3 1-9 6-8 25 0 14 12 30 12 30-9 7-17 5-21 1-9-7-10-23-12-28-7-13-23-11-29-8 0 0-14 4-14 24 0 24 11 38 16 45 15 17 29 18 29 18l-1-3s8 5 17 4l-2-3c6 3 17 2 17 2l-3-2s13-1 25-11 16-28 16-35c0-2-1-3-3-2l-4 5z"/><path fill="#EFEBE9" d="m14 49 1-2c1-3 3-6 6-8l5-1 6 1 6-1c8-1 12 7 13 13 2 7-4 19-20 18-13 0-19-10-17-20z"/><linearGradient id="e" x1="14.2" x2="11.8" y1="58.5" y2="59.8" gradientUnits="userSpaceOnUse"><stop offset="0" stop-color="#6D4C41"/><stop offset="1" stop-color="#6D4C41" stop-opacity="0"/></linearGradient><path fill="url(#e)" d="M19 47c-3 2-5 5-6 9-1 7 2 11 2 11s1-5 4-9 9-3 8-9c0-3-4-5-8-2z"/><linearGradient id="f" x1="44.6" x2="31.6" y1="46.4" y2="63.4" gradientTransform="matrix(-1 0 0 1 86 0)" gradientUnits="userSpaceOnUse"><stop offset=".7" stop-color="#6D4C41"/><stop offset="1" stop-color="#6D4C41" stop-opacity="0"/></linearGradient><path fill="url(#f)" d="M47 47c3 2 5 5 6 9 1 5 0 9-2 11l-3-9c-4-4-10-3-9-9 0-3 4-5 8-2z"/><path d="m24 55 5 1a44 44 0 0 0 8-1h4l-4 2-4 1-5-1-4-2z"/><path fill="none" stroke="#000" stroke-linecap="round" stroke-miterlimit="10" stroke-width="2.1" d="M20 52c1-2 3-3 5-3m20 3-4-3"/><linearGradient id="g" x1="32.9" x2="32.9" y1="54.1" y2="48" gradientUnits="userSpaceOnUse"><stop offset=".2"/><stop offset=".3" stop-color="#090605"/><stop offset=".5" stop-color="#211714"/><stop offset=".8" stop-color="#47322B"/><stop offset="1" stop-color="#6D4C41"/></linearGradient><path fill="url(#g)" d="M35 49h-5l-1 1v3l3 2h1l4-2v-3l-2-1z"/><linearGradient id="h" x1="48.8" x2="81.1" y1="75" y2="13" gradientUnits="userSpaceOnUse"><stop offset=".3" stop-color="#BCAAA4"/><stop offset=".7" stop-color="#AB948C"/><stop offset="1" stop-color="#A1887F"/></linearGradient><path fill="url(#h)" stroke="#6D4C41" stroke-linecap="round" stroke-linejoin="round" stroke-miterlimit="10" stroke-width="2" d="M67 74c8-18 4-35 5-44 2-12 7-15 7-15s-4-6-12-2c-14 7-8 34-17 43-4 3-8 5-11 9-3 3-6 11-4 15"/><path fill="#D7CCC8" d="m29 23-1-1h-1c-2-3-3-7-2-10 2-4 5-7 9-7l5 1c2 1 4 3 3 4 0 1 0 2-2 2-3 1-7 5-8 8l-1 2-2 1z"/><path fill="#6D4C41" d="m34 6 5 1c3 2 3 4 1 5-4 0-8 4-9 8l-1 1-1 1-1-1c-2-3-2-6-2-9 1-4 5-6 8-6m0-2c-4 0-8 3-10 7-1 4 0 8 2 11l2 1 1 1 3-2 1-2c1-3 4-6 7-7 2 0 3-1 3-3 1-2-1-4-4-5l-5-1z"/><path fill="none" stroke="#6D4C41" stroke-linecap="round" stroke-linejoin="round" stroke-miterlimit="10" d="M39 7c-3 1-9 5-10 15"/><path fill="none" stroke="#6D4C41" stroke-linecap="round" stroke-linejoin="round" stroke-miterlimit="10" d="M34 6c-4 2-8 11-6 16"/><path fill="#D7CCC8" d="M108 34h-1l-1-2 1-2c1-3 1-7-1-10l1-2c0-2 2-2 3-2h2c3 1 5 3 6 5s0 5-1 8a11 11 0 0 1-9 5z"/><path fill="#6D4C41" d="M110 17h2c6 2 7 6 4 11a10 10 0 0 1-8 5l-1-1 1-2c1-3 1-7-1-10 0-1 1-3 3-3m0-2-4 2v13l-1 2 2 3h2c4 0 7-2 9-6 2-3 2-6 1-9-1-1-2-4-6-5h-3z"/><path fill="none" stroke="#6D4C41" stroke-linecap="round" stroke-linejoin="round" stroke-miterlimit="10" d="M110 17c1 1 3 8-3 17"/><path fill="none" stroke="#6D4C41" stroke-linecap="round" stroke-linejoin="round" stroke-miterlimit="10" d="M115 18c1 4-2 14-7 16"/></svg>