<svg xmlns="http://www.w3.org/2000/svg" xml:space="preserve" viewBox="0 0 128 128"><path fill="#855c54" d="M36 37s1-15-1-21c-2-5-9-5-9-5s2-8 9-7 10 8 13 14c6 14 7 33 7 33L38 91l-17-5 15-49z"/><path fill="#606468" d="m62 70 3-3 9 2 13-2 1 16-27-5 1-8z"/><path fill="#865b52" d="m96 53-1-16c0-4-2-22 8-21 9 0 6 12 6 12l-3 3 7 30c3 12-1 16-1 16l-17 2 1-26z"/><path fill="#727f39" d="M11 6c-5 2-4 6-4 8s1 2 4 2l21 4 20 4 33 5 16 3c10 1 15 3 16 2l-1-10-19-4h-8l-17-3-23-3-21-3-8-3c-1-1-4-3-9-2z"/><path fill="#865b52" d="m67 17-9 55s7 1 8-1c2-2 4-8 5-17l-1-18 8 20c2 4 5 21 5 21l9-9-19-48-6-3z"/><path fill="#f8eac0" d="M28 6c2 0-1 3-1 4l-1 2 3-3c2-2 4-2 5-1s0 2-2 3l-2 2-2 3-3 2-1-3-1 1V9c1-2 3-4 5-3z"/><path fill="#f8eac0" d="M33 16c2-3 7-4 6-6s-6 1-8 3-4 6-2 7l4-4zm68 3c-2 0 0 3 0 4l1 5c0 4 2 4 2 2l1-4v-2l1 4 1 4 2-4v-4l1 4 1 4c1 0 2-4 1-7 0-3-2-5-3-6l-1 2s-1-2-3-2l-1 1-3-1z"/><path fill="#ae9580" d="M116 66c-4 0-8 6-8 6l-9-17c-4-7-14-23-15-27v-8l1-1s0-4-4-6c-4-1-7 1-7 1s-2-2-6-2-9 2-12 9c-2 7-2 18-2 23 0 4-2 13-5 19L39 79c-1 3 1 8-2 8-2-1-4-4-2-8l6-10 7-20 3 2c1-5 2-12-9-17S12 33 8 47L7 61a69 69 0 0 0 12 39c3 5 9 11 10 11l1-3 6 6c5 4 11 8 13 8 1-1-1-4-1-4l10 4c4 1 13 2 13 0s-3-2-3-3l11 1c6-1 18-4 25-14l12-23 6-11c1-2 1-7-6-6zm-33 4c0 2-5 3-9 3s-8-1-9-3 1-5 2-11l1-25 2-14 1 10 2 9 8 17c2 7 3 12 2 14z"/><path fill="#feeac7" d="M33 42c-6 0-4-3-10-3-5 0-12 7-12 14 0 8 5 19 20 19h8l10-14 2-8c1-2 1-4-2-7-7-5-11-1-16-1z"/><path fill="#5c6268" d="m19 47 4 6-5 2-5 7-2-5v-4l4-4 4-2zm24 1-3 5 4 4 3 4c2 2 1-2 2-4l2-4-4-3-4-2z"/><circle cx="21.2" cy="49.6" r="3.4" fill="#010605"/><ellipse cx="41.9" cy="50.4" fill="#010605" rx="3.4" ry="3.3"/><path fill="#010605" d="M32 48c-4 0-6 2-6 2l2 3 2 3h-4c-2 0-3-2-4-1s0 3 1 3l5 1 3-1 3 2 6-1 1-3c-2-1-2 1-4 1l-4-1 2-2 2-2s-1-3-5-4z"/><path fill="#cdac93" d="M35 102c-1 1-6-4-8-6s-4-5-2-6c2-2 4 3 5 4l5 8zm5-1c-2 2 2 6 6 8l10 3-8-6c-4-3-6-7-8-5zm12 3c-1 2 3 5 9 6s12-1 12-2l-11-2c-6-1-9-4-10-2zm9-6c0 2 3 3 8 3s8-2 8-3h-8c-4 0-8-3-8 0zm4 16c0 3 8 2 12 1 6-2 9-7 8-8s-4 3-9 5c-3 0-10 0-11 2z"/></svg>